<?xml version="1.0" encoding="UTF-8"?>
<svg id="Layer_1" data-name="Layer 1" xmlns="http://www.w3.org/2000/svg" viewBox="0 0 705.9 551.77">
  <defs>
    <style>
      .cls-1 {
        fill: #f9be22;
      }

      .cls-2 {
        fill: #f15e22;
      }
    </style>
  </defs>
  <path class="cls-2" d="M705.9,173.02l-.13,12.18c-27.14,13.34-64.21,23.43-79.84,74.48l-89.55,292.1c-14.6-.48-23.61-.25-33.27-.25h-32.84l-92.91-283.74-100.77,283.74h-65.62L45.99,60.13c-5.52-14.71-11.96-25.63-19.32-32.77-7.36-7.13-14.49-10.92-21.39-11.38V2.18h122.38c41.84,0,84.47-.41,104.59,0l-.31,14.72c-12.42,2.31-31.43,10.58-31.43,26.68,0,9.66,2.07,19.78,6.21,30.35l101.66,332.51,60.71-164.19-6.68-18.88c-3.69-11.49-15.93-24.47-21.45-29.07-5.52-4.59-12.65-7.35-21.39-8.28v-13.01M533.81,173.02v12.18c-16.56.46-22.11.07-29.47,3.74-7.36,3.69-10.96,11.85-10.96,21.5,0,8.74,7.75,27.26,12.35,39.68l58.58,151.5,21.93-70.33c12.42-40.93,17.92-59.13,25.62-81.28,7.65-22,3.74-35.73-5.09-47.56-8.85-11.86-25.18-16.32-44.5-17.25v-12.18"/>
  <text/>
  <circle class="cls-1" cx="650.8" cy="55.1" r="55.1"/>
</svg>