<?xml version="1.0" encoding="UTF-8"?>
<svg id="Layer_1" data-name="Layer 1" xmlns="http://www.w3.org/2000/svg" viewBox="0 0 677.96 391.59">
  <defs>
    <style>
      .cls-1 {
        fill: #f9be22;
      }

      .cls-2 {
        fill: #f15e22;
      }

      .cls-3 {
        fill: #5c4033;
      }

      .cls-4 {
        fill: #c1b4d8;
      }
    </style>
  </defs>
  <g>
    <path class="cls-2" d="M215.69,162.52l-.04,3.65c-8.14,4-19.26,7.03-23.94,22.34l-26.86,87.6c-4.38-.15-7.08-.08-9.98-.08h-9.85l-27.87-85.1-30.22,85.1h-19.68L17.78,128.66c-1.66-4.41-3.59-7.69-5.79-9.83-2.21-2.14-4.34-3.28-6.41-3.41v-4.14h36.7c12.55,0,25.33-.12,31.37,0l-.09,4.41c-3.72.69-9.43,3.17-9.43,8,0,2.9.62,5.93,1.86,9.1l30.49,99.73,18.21-49.24-2-5.66c-1.11-3.45-4.78-7.34-6.43-8.72-1.66-1.38-3.8-2.2-6.41-2.48v-3.9M164.08,162.52v3.65c-4.97.14-6.63.02-8.84,1.12-2.21,1.11-3.29,3.55-3.29,6.45,0,2.62,2.32,8.18,3.7,11.9l17.57,45.44,6.58-21.09c3.72-12.27,5.37-17.73,7.68-24.38s1.12-10.72-1.53-14.26-7.55-4.89-13.34-5.17v-3.65"/>
    <path class="cls-3" d="M302.55,176.15c9.24,8.9,13.86,23.35,13.86,43.35s-4.62,34.42-13.86,43.24c-9.24,8.83-22.35,13.24-39.31,13.24s-30.07-4.41-39.31-13.24c-9.24-8.83-13.86-23.24-13.86-43.24s4.62-34.45,13.86-43.35c9.24-8.9,22.35-13.34,39.31-13.34s30.07,4.45,39.31,13.34ZM252.68,179.97c-2.62,8.69-3.93,21.86-3.93,39.52s1.31,30.8,3.93,39.41c2.62,8.62,6.14,12.86,10.55,12.86s7.93-4.24,10.55-12.86c2.62-8.62,3.93-21.76,3.93-39.41s-1.31-30.83-3.93-39.52c-2.62-8.69-6.14-13.03-10.55-13.03s-7.93,4.35-10.55,13.03Z"/>
    <path class="cls-3" d="M417.27,169.01c2.97,4.14,4.45,9.04,4.45,14.69,0,6.21-1.76,11.14-5.28,14.79-3.52,3.66-8.11,5.48-13.76,5.48-5.93,0-10.48-1.34-13.66-4.03-3.17-2.69-4.76-6.31-4.76-10.86,0-8.14,3.52-14.55,10.55-19.24-2.48,0-4.69.48-6.62,1.45-3.45,1.52-6.35,3.97-8.69,7.34-2.35,3.38-3.52,7.07-3.52,11.07v62.07c0,6.48,1.48,10.76,4.04,13.35,2.57,2.6,7.27,6.81,13.76,6.81v4.05h-63.42c-1.11.14-1.41.14-3.2.14v-4.19c4.27,0,7.27-4.25,9-6.39,1.72-2.14,2.59-6.03,2.59-11.69v-65.59c0-6.34-.86-10.97-2.59-13.86-1.73-2.9-4.73-6.33-9-6.33v-5.26h48.83v15.52c5.24-10.34,14.14-15.52,26.69-15.52,6.76,0,11.62,2.07,14.59,6.21Z"/>
    <path class="cls-3" d="M536.36,264.7c.96,1.79,1.97,3.28,3,4.45,1.03,1.17,2.17,2.1,3.41,2.79v4.03h-54.21v-4.03c4,0,6-1.31,6-3.93,0-.96-.28-2-.83-3.1l-18.21-38.48c-.83-1.52-1.76-2.62-2.79-3.31-1.03-.69-2.31-1.1-3.83-1.24v35.17c0,5.66.86,9.55,2.59,11.69,1.72,2.14,4.72,3.21,9,3.21v4.03h-60.41v-4.03c4.27,0,7.27-1.07,9-3.21,1.72-2.14,2.59-6.03,2.59-11.69l-.23-120.93c0-6.34-.86-10.97-2.59-13.86-1.73-2.9-8.39-3.73-12.67-3.73l.04-7.23h52.45l.23,106.66c4.31-.14,7.78-4.46,10.53-7.07l14.08-14.14c4.83-4.41,7.24-8.9,7.24-13.45,0-3.59-1.55-6.62-4.66-9.1-3.1-2.48-7.07-3.93-11.9-4.35v-7.03h53.17v7.03c-9.52,2.62-19.73,9.38-30.62,20.28l-5.38,5.38,33.12,65.69c.27.55.9,1.73,1.86,3.52Z"/>
    <path class="cls-3" d="M605.13,164.56c4.76,1.17,8.38,2.45,10.86,3.83,1.52.83,2.76,1.24,3.72,1.24,2.9,0,4.62-2.2,5.17-6.62h4.14c-.55,7.17-.83,19.59-.83,37.24h-4.14c-1.1-9.1-3.69-16.79-7.76-23.07-4.07-6.28-9.97-9.41-17.69-9.41-3.45,0-6.35,1.03-8.69,3.1-2.35,2.07-3.52,4.9-3.52,8.48,0,4.55,1.52,8.59,4.55,12.1,3.03,3.52,7.79,7.83,14.28,12.93.27.14,2.28,1.73,6,4.76,7.72,6.35,13.38,11.97,16.97,16.86,3.59,4.9,5.38,10.93,5.38,18.1,0,6.07-1.86,11.55-5.59,16.45-3.72,4.9-8.79,8.69-15.21,11.38s-13.42,4.03-21,4.03c-8.69,0-15.79-1.73-21.31-5.17-2.35-1.24-4.28-2.14-5.79-2.69-1.52-.55-3.04-.83-4.55-.83-2.62,0-4.53,3.92-5.77,8.75h-4.34c.55-7.86,1-23.16,1-42.89h4.14c1.24,11.31,4.27,20.41,9.1,27.31,4.83,6.9,10.89,10.35,18.21,10.35,3.45,0,6.31-.96,8.59-2.9,2.28-1.93,3.41-4.76,3.41-8.48s-.8-7.31-2.38-10.34c-1.59-3.03-3.52-5.76-5.79-8.17-2.28-2.41-5.97-5.9-11.07-10.45-5.79-5.38-10.21-9.65-13.24-12.83-3.04-3.17-5.62-6.86-7.76-11.07-2.14-4.21-3.21-8.86-3.21-13.97,0-5.93,1.79-11.17,5.38-15.72,3.59-4.55,8.34-8.03,14.28-10.45,5.93-2.41,12.34-3.62,19.24-3.62,5.38,0,10.45.59,15.21,1.76Z"/>
  </g>
  <g>
    <path class="cls-1" d="M106.54,131.75c-.37,1.24-.56,2.48-.56,3.71,0,1.86.49,3.25,1.48,4.18.99.93,2.35,1.39,4.08,1.39,2.72,0,5.35-1.33,7.89-3.99,2.53-2.66,4.79-6.65,6.77-11.97l2.78-7.61h3.53l-3.71,10.76c-4.82,14.6-14.1,21.9-27.83,21.9-6.31,0-11.04-1.64-14.2-4.92-3.15-3.28-4.73-7.76-4.73-13.45,0-3.59.56-7.3,1.67-11.13l18.74-65.32h-16.7l.93-3.71h16.89l7.98-27.65c10.51-.12,19.48-.99,26.91-2.6l-8.72,30.25h20.97l-.56,3.71h-21.53l-22.08,76.45Z"/>
    <path class="cls-1" d="M239.04,117.46l-4.64,13.55c-4.45,12.74-12.74,19.11-24.87,19.11-11.26,0-16.89-5.01-16.89-15.03,0-4.45.93-9.28,2.78-14.47l16.52-50.1c1.11-3.59,1.67-6.31,1.67-8.16,0-2.72-1.18-4.08-3.53-4.08-3.46,0-7.58,3.22-12.34,9.65-4.76,6.43-9.62,15.09-14.57,25.98-4.95,10.89-9.46,22.76-13.55,35.63l-4.45,15.59c-.12.12-.19.31-.19.56v-.19l-.56,2.04h-26.17l36.74-123.77c.62-2.23.93-3.96.93-5.2,0-2.47-.96-4.27-2.88-5.38-1.92-1.11-5.17-1.67-9.74-1.67l1.11-3.9c8.66-.12,16.42-.8,23.29-2.04,6.87-1.23,13.51-3.09,19.95-5.57l-25.24,86.29c6.31-13.98,12.53-23.69,18.65-29.13,6.12-5.44,13.08-8.17,20.88-8.17,5.81,0,10.08,1.33,12.8,3.99,2.72,2.66,4.08,6.28,4.08,10.86,0,3.96-.87,8.35-2.6,13.18l-18.19,54.74c-.74,2.23-1.11,4.02-1.11,5.38,0,2.6,1.24,3.9,3.71,3.9,4.08,0,7.92-4.89,11.51-14.66l3.34-8.91h3.53Z"/>
    <path class="cls-1" d="M339.24,117.46h3.53l-4.64,13.55c-2.48,6.93-5.91,11.85-10.3,14.75-4.39,2.91-9.12,4.36-14.2,4.36-6.43,0-11.01-1.92-13.73-5.75-1.73-2.23-2.6-5.32-2.6-9.28,0-3.22.56-6.87,1.67-10.95-4.21,9.16-8.88,15.77-14.01,19.86-5.13,4.08-10.79,6.12-16.98,6.12-6.8,0-11.97-2.01-15.49-6.03-3.53-4.02-5.29-9.62-5.29-16.79,0-11.01,2.94-22.67,8.81-34.98,5.87-12.31,13.33-22.61,22.36-30.9,9.03-8.29,17.88-12.43,26.54-12.43,3.34,0,6.03.99,8.07,2.97,2.04,1.98,3.25,4.95,3.62,8.91l2.6-9.09c9.9-.12,18.86-1.05,26.91-2.78l-24.31,82.76c-.62,2.1-.93,3.84-.93,5.2,0,2.72,1.17,4.08,3.53,4.08,4.33,0,8.17-4.89,11.51-14.66l3.34-8.91ZM314.56,68.1c.12-.62.19-1.55.19-2.78,0-3.09-.53-5.44-1.58-7.05-1.05-1.61-2.63-2.41-4.73-2.41-4.21,0-9,3.78-14.38,11.32-5.38,7.55-9.96,17.01-13.73,28.39-3.77,11.38-5.66,22.39-5.66,33.03,0,4.08.4,7.02,1.21,8.81.8,1.79,2.13,2.69,3.99,2.69,2.72,0,5.72-1.88,9-5.66,3.28-3.77,6.56-9.21,9.83-16.33,3.28-7.11,6.15-15.56,8.63-25.33l-.93,4.45,8.16-29.13Z"/>
    <path class="cls-1" d="M381.37,131.75c-.37,1.24-.56,2.48-.56,3.71,0,1.86.49,3.25,1.48,4.18.99.93,2.35,1.39,4.08,1.39,2.72,0,5.35-1.33,7.89-3.99,2.53-2.66,4.79-6.65,6.77-11.97l2.78-7.61h3.53l-3.71,10.76c-4.83,14.6-14.1,21.9-27.83,21.9-6.31,0-11.04-1.64-14.2-4.92-3.15-3.28-4.73-7.76-4.73-13.45,0-3.59.56-7.3,1.67-11.13l18.74-65.32h-16.7l.93-3.71h16.89l7.98-27.65c10.51-.12,19.48-.99,26.91-2.6l-8.72,30.25h20.97l-.56,3.71h-21.53l-22.08,76.45Z"/>
  </g>
  <text/>
  <text/>
  <circle class="cls-4" cx="660.07" cy="258.08" r="17.89"/>
</svg>