<?xml version="1.0" encoding="utf-8" ?><svg xmlns="http://www.w3.org/2000/svg" xmlns:xlink="http://www.w3.org/1999/xlink" width="1024" height="1024" viewBox="0 0 1024 1024"><path fill="#F8F7F6" d="M0 0L1024 0L1024 1024L0 1024L0 0Z"/><path fill="#0B0605" d="M742.588 180.356C749.619 187.78 757.041 197.134 764.277 205.025C767.6 204.481 770.481 203.857 773.849 204.055L774.97 203.562C780.53 211.424 786.468 219.441 791.9 227.336C803.852 222.795 815.406 217.846 827.624 213.409C840.183 208.848 857.255 201.138 870.1 209.198C875.363 212.5 876.514 218.944 875.229 224.723C878.949 226.107 881.56 227.105 884.973 229.132C904.339 240.633 914.789 270.219 898.492 288.467C896.887 290.264 894.56 292.204 892.683 293.785C914.308 300.578 917.007 321.065 910.821 340.108C910.416 341.346 910.002 342.582 909.577 343.813C967.376 400.873 998.794 486.474 999.585 567.084C1000.44 654.256 966.438 742.611 904.86 804.847C889.231 820.562 871.877 834.461 853.127 846.28C851.328 847.398 845.602 850.941 843.717 851.49C842.323 854.017 847.484 871.475 848.457 875.173L847.337 875.785C844.647 874.947 786.623 883.23 780.82 884.557L779.584 885.601C778.421 883.252 777.233 880.185 774.838 879.166C747.56 888.64 696.656 896.276 667.757 897.717C630.362 901.114 591.774 897.205 554.807 891.477C539.021 889.03 523.544 885.242 507.87 882.156C505.51 886.724 502.454 891.563 499.695 895.948C482.507 923.267 466.761 952.152 449.337 979.261C445.885 978.934 437.77 979.111 434.023 979.097L401.416 979.144C410.102 951.051 431.764 894.77 441.443 863.719C441.269 863.335 441.094 862.951 440.92 862.566C438.132 862.168 428.53 858.994 425.521 858.057C405.002 851.666 385.746 843.694 365.978 835.37C362.309 845.366 361.563 852.238 349.803 853.575C344.497 851.307 337.637 847.742 332.148 845.208L332.169 844.732L333.026 844.052C330.823 842.659 314.934 835.555 311.432 833.916L255.894 808.299L253.935 808.835L252.681 808.812C250.952 811.927 246.669 823.439 245.276 827.195C242.004 836.013 237.632 845.87 234.755 854.668L232.981 854.212C234.232 852.096 238.483 840.845 239.503 838.237L251.409 807.908C243.053 803.846 234.236 800.21 225.97 796.046C223.15 794.626 220.172 791.694 219.438 788.416C218.841 785.874 219.005 783.213 219.909 780.764C222.04 775.097 227.61 764.56 230.485 758.779L253.888 712.7L274.463 671.564C277.967 664.534 282.699 654.376 286.678 647.851C283.915 646.195 278.611 639.059 276.69 636.278L277.345 635.708C273.59 629.899 262.95 617.754 258.084 611.982C246.442 598.171 235.079 583.909 223.412 570.181L221.734 570.86C218.121 572.64 200.625 592.714 196.246 597.173L194.752 595.914C197.152 594.405 217.48 572.665 220.765 569.189C214.863 562.393 208.935 555.57 203.433 548.559C198.558 542.348 196.547 535.522 202.844 529.502C209.762 522.889 217.503 516.663 224.844 510.516L259.479 481.257L309.417 439.066C320.58 429.588 333.341 418.316 344.897 409.581C347.088 407.882 346.27 406.809 345.882 404.238C339.12 403.18 336.456 398.073 334.837 392.052C332.261 382.469 329.656 372.9 326.94 363.355L304.402 284.195L292.413 241.713C290.372 234.445 287.926 226.609 286.49 219.229C285.88 216.093 287.276 213.08 288.729 210.374C290.355 208.326 290.691 208.035 292.819 206.504C294.83 204.47 297.375 203.039 300.255 203.272C308.776 203.961 318.088 206.303 326.567 207.867C348.482 211.773 370.354 215.916 392.179 220.296C414.161 224.605 436.333 227.884 458.187 232.819C464.687 234.287 468.164 238.554 470.085 244.668C473.589 255.821 476.676 267.131 479.794 278.402L501.265 355.995C503.747 365.066 506.29 374.119 508.896 383.156C509.715 385.92 510.578 392.248 513.082 392.901C534.848 383.227 564.373 386.666 581.457 403.98C587.704 410.311 593.165 418.064 599.927 423.9L600.466 424.36C605.846 415.118 610.946 414.92 620.301 419.764C626.171 422.804 632.235 425.582 638.304 428.197C643.451 400.95 656.783 378.343 674.944 357.811L674.996 357.62C662.794 335.937 658.446 295.904 677.126 276.442C683.715 269.578 691.871 261.369 696.735 253.333L696.462 252.3L697.347 251.876C698.154 251.499 698.204 251.454 698.91 250.901L699.377 250.998L701.274 251.912L702.568 249.98C702.54 249.069 703.164 248.431 703.73 247.482C710.376 232.782 715.216 220.125 719.833 204.598C721.785 198.035 724.191 191.685 725.842 184.951C727.282 184.975 728.722 184.991 730.162 184.999L730.009 183.898L731.55 183.821L732.007 184.893C736.68 183.859 738.578 183.474 742.588 180.356Z"/><path fill="#F0E6D3" d="M861.77 384.84C881.343 383.892 902.133 362.237 909.224 345.096C969.061 408.305 1001.08 492.851 998.126 579.84C995.279 666.698 959.266 752.179 895.523 811.925C878.577 827.809 863.208 838.426 843.57 850.446L843.717 851.49C842.323 854.017 847.484 871.475 848.457 875.173L847.337 875.785C844.647 874.947 786.623 883.23 780.82 884.557L779.584 885.601C778.421 883.252 777.233 880.185 774.838 879.166C747.56 888.64 696.656 896.276 667.757 897.717C630.362 901.114 591.774 897.205 554.807 891.477C539.021 889.03 523.544 885.242 507.87 882.156C505.51 886.724 502.454 891.563 499.695 895.948C482.507 923.267 466.761 952.152 449.337 979.261C445.885 978.934 437.77 979.111 434.023 979.097L401.416 979.144C410.102 951.051 431.764 894.77 441.443 863.719C441.269 863.335 441.094 862.951 440.92 862.566L441.873 861.729C414.851 853.289 392.703 845.47 366.635 834.005C370.824 824.233 374.878 813.084 378.748 803.075L396.147 758.766C409.058 726.038 424.209 689.33 435.55 656.293C462.796 659.88 482.372 664.501 508.995 671.74C518.873 674.972 549.682 685.492 557.099 690.781C534.32 697.372 514.442 704.047 493.732 715.61C491.241 717.001 484.026 720.28 482.68 722.297C484.4 722.829 490.416 718.824 492.514 717.677C555.83 683.083 626.993 678.121 697.588 675.178C692.265 686.554 685.786 703.48 686.587 716.729C686.848 721.062 694.701 721.221 695.514 717.002C698.036 703.896 698.089 688.23 702.387 675.575L702.631 674.869C704.794 687.907 703.733 702.265 704.693 715.477C704.77 716.539 705.603 718.167 706.359 718.902C707.234 719.756 708.454 720.16 709.666 719.995C721.07 718.506 709.372 682.951 708.329 675.679C709.663 674.757 711.594 674.943 713.305 674.9C715.573 674.961 717.855 674.848 720.129 674.814C721.228 674.297 721.575 674.528 721.153 673.396C722.502 672.996 724.69 672.867 726.265 672.531C727.96 672.37 731.286 673.982 733.747 674.404C749.688 676.533 765.352 680.383 780.463 685.887C784.39 687.298 796.44 692.855 799.471 693.346L799.611 692.726C796.731 690.117 783.104 685.387 778.826 683.783C764.302 678.339 748.666 675.409 733.441 672.75C754.058 646.194 786.455 635.053 817.515 625.717C821.094 624.642 839.334 620.963 841.456 619.739L841.464 619.157C838.056 618.909 831.874 620.87 828.411 621.644C810.408 625.665 792.984 631.358 776.214 639.073C773.51 640.317 767.331 643.862 764.787 644.391L763.775 643.134C782.572 623.023 789.531 598.305 796.304 572.584L795.769 570.597C809.941 552.867 812.279 540.915 819.832 519.969L838.916 467.834L849.983 437.78C852.659 430.53 855.598 423.374 857.191 415.807C859.319 405.566 859.172 394.983 856.762 384.805L858.335 383.55C857.528 382.209 857.424 381.882 857.03 380.248L858.673 379.454L859.1 374.109L860.209 376.042C860.03 378.353 859.633 381.104 860.105 383.306L860.968 383.93L861.77 384.84Z"/><path fill="#12100F" d="M441.873 861.729C463.759 867.836 484.614 874.618 506.919 880.279C544.7 889.659 583.304 895.343 622.185 897.252C631.652 897.641 641.13 897.672 650.6 897.344C655.026 897.187 661.041 896.629 665.226 896.644L665.476 897.246L667.757 897.717C630.362 901.114 591.774 897.205 554.807 891.477C539.021 889.03 523.544 885.242 507.87 882.156C505.51 886.724 502.454 891.563 499.695 895.948C482.507 923.267 466.761 952.152 449.337 979.261C445.885 978.934 437.77 979.111 434.023 979.097L401.416 979.144C410.102 951.051 431.764 894.77 441.443 863.719C441.269 863.335 441.094 862.951 440.92 862.566L441.873 861.729Z"/><path fill="#F0E6D3" d="M441.012 869.849C448.386 872.12 457.775 876.116 465.07 879.031C476.531 883.557 487.951 888.188 499.328 892.922C498.298 895.322 496.825 897.831 495.509 900.096C481.87 923.566 467.38 946.484 453.607 969.88L448.762 977.865C434.24 978.181 417.972 977.892 403.411 977.532L425.462 914.431C430.565 899.689 435.583 884.433 441.012 869.849Z"/><defs><linearGradient id="gradient_0" gradientUnits="userSpaceOnUse" x1="803.45129" y1="510.29172" x2="830.33594" y2="521.8432"><stop offset="0" stop-color="black"/><stop offset="1" stop-color="#201614"/></linearGradient></defs><path fill="url(#gradient_0)" d="M859.1 374.109L860.209 376.042C860.03 378.353 859.633 381.104 860.105 383.306L860.968 383.93L861.77 384.84C859.931 385.443 860.458 384.87 859.731 386.217C859.922 395.963 860.513 406.971 858.519 416.448C857.382 421.854 855.155 429.055 853.603 434.58C850.268 446.503 846.861 458.405 843.381 470.287C833.631 503.592 824.099 538.545 810.732 570.523C804.477 585.487 795.922 600.425 787.62 614.341C786.771 615.733 786.738 615.905 786.201 617.489C784.63 620.372 779.706 624.467 779.59 625.861L779.857 626.144C777.181 629.169 766.706 641.326 764.787 644.391L763.775 643.134C782.572 623.023 789.531 598.305 796.304 572.584L795.769 570.597C809.941 552.867 812.279 540.915 819.832 519.969L838.916 467.834L849.983 437.78C852.659 430.53 855.598 423.374 857.191 415.807C859.319 405.566 859.172 394.983 856.762 384.805L858.335 383.55C857.528 382.209 857.424 381.882 857.03 380.248L858.673 379.454L859.1 374.109Z"/><path fill="#D0C3D4" d="M858.673 379.454C858.537 380.82 858.448 382.182 858.335 383.55C857.528 382.209 857.424 381.882 857.03 380.248L858.673 379.454Z"/><path fill="#12100F" d="M843.57 850.446L843.717 851.49C842.323 854.017 847.484 871.475 848.457 875.173L847.337 875.785C844.647 874.947 786.623 883.23 780.82 884.557L779.584 885.601C778.421 883.252 777.233 880.185 774.838 879.166L773.957 878.08C783.995 874.587 794.341 871.806 804.434 868.272C818.455 863.362 830.573 857.497 843.57 850.446Z"/><path fill="#0B0605" d="M789.29 614.954C811.907 595.033 840.709 581.161 869.554 572.907C872.522 572.058 881.087 569.354 883.586 570.067L883.539 570.679C881.596 571.533 875.173 572.892 872.584 573.582C865.215 575.545 858.5 577.513 851.339 580.292C832.521 587.593 811.17 598.66 795.479 611.49C791.905 614.437 788.476 617.556 785.204 620.836C784.579 621.453 780.288 625.829 779.857 626.144L779.59 625.861C779.706 624.467 784.63 620.372 786.201 617.489C786.738 615.905 786.771 615.733 787.62 614.341L789.29 614.954Z"/><path fill="#F8F7F6" d="M787.62 614.341L789.29 614.954C788.168 615.956 787.405 616.593 786.201 617.489C786.738 615.905 786.771 615.733 787.62 614.341Z"/><path fill="#0B0605" d="M665.226 896.644C702.05 894.544 738.522 888.317 773.957 878.08L774.838 879.166C747.56 888.64 696.656 896.276 667.757 897.717L665.476 897.246L665.226 896.644Z"/><path fill="#591003" d="M726.265 672.531C727.96 672.37 731.286 673.982 733.747 674.404C729.206 674.49 724.666 674.627 720.129 674.814C721.228 674.297 721.575 674.528 721.153 673.396C722.502 672.996 724.69 672.867 726.265 672.531Z"/><path fill="#FF5C00" d="M344.897 409.581L346.496 409.963C347.482 410.436 349.632 412.091 350.646 412.761C354.202 415.11 369.251 421.78 370.967 424.591C378.138 451.872 400.231 465.725 420.771 482.47L487.147 536.172L565.795 600.321L587.785 618.256C590.994 620.88 599.861 628.381 603.082 630.006C617.881 637.47 641.809 638.103 657.861 637.886C672.973 650.134 683.063 657.966 701.699 665.429C700.59 668.138 699.336 671.022 698.383 673.77C667.819 674.25 637.314 676.614 607.041 680.848C592.963 682.939 579.048 685.448 565.207 688.74C562.702 689.335 560.247 690.03 557.669 689.955L557.099 690.781C549.682 685.492 518.873 674.972 508.995 671.74C482.372 664.501 462.796 659.88 435.55 656.293C424.209 689.33 409.058 726.038 396.147 758.766L378.748 803.075C374.878 813.084 370.824 824.233 366.635 834.005C392.703 845.47 414.851 853.289 441.873 861.729L440.92 862.566C438.132 862.168 428.53 858.994 425.521 858.057C405.002 851.666 385.746 843.694 365.978 835.37C362.309 845.366 361.563 852.238 349.803 853.575C344.497 851.307 337.637 847.742 332.148 845.208L332.169 844.732L333.026 844.052C330.823 842.659 314.934 835.555 311.432 833.916L255.894 808.299L253.935 808.835L252.681 808.812C250.952 811.927 246.669 823.439 245.276 827.195C242.004 836.013 237.632 845.87 234.755 854.668L232.981 854.212C234.232 852.096 238.483 840.845 239.503 838.237L251.409 807.908C243.053 803.846 234.236 800.21 225.97 796.046C223.15 794.626 220.172 791.694 219.438 788.416C218.841 785.874 219.005 783.213 219.909 780.764C222.04 775.097 227.61 764.56 230.485 758.779L253.888 712.7L274.463 671.564C277.967 664.534 282.699 654.376 286.678 647.851C283.915 646.195 278.611 639.059 276.69 636.278L277.345 635.708C273.59 629.899 262.95 617.754 258.084 611.982C246.442 598.171 235.079 583.909 223.412 570.181L221.734 570.86C218.121 572.64 200.625 592.714 196.246 597.173L194.752 595.914C197.152 594.405 217.48 572.665 220.765 569.189C214.863 562.393 208.935 555.57 203.433 548.559C198.558 542.348 196.547 535.522 202.844 529.502C209.762 522.889 217.503 516.663 224.844 510.516L259.479 481.257L309.417 439.066C320.58 429.588 333.341 418.316 344.897 409.581Z"/><path fill="#FF5C00" d="M406.664 539.71C415.939 549.039 424.865 559.311 433.974 568.904C440.38 575.636 446.716 582.435 452.981 589.298C456.045 592.633 460.455 597.162 463.101 600.708L462.639 601.564C460.268 601.468 458.724 601.414 456.367 601.594C459.36 601.86 461.707 602.006 464.716 602.062C470.084 608.594 475.064 616.101 479.619 623.253C489.454 638.698 499.706 654.287 508.642 670.27C508.945 671.089 508.978 670.909 508.995 671.74C482.372 664.501 462.796 659.88 435.55 656.293C424.209 689.33 409.058 726.038 396.147 758.766L378.748 803.075C374.878 813.084 370.824 824.233 366.635 834.005C392.703 845.47 414.851 853.289 441.873 861.729L440.92 862.566C438.132 862.168 428.53 858.994 425.521 858.057C405.002 851.666 385.746 843.694 365.978 835.37C362.309 845.366 361.563 852.238 349.803 853.575C344.497 851.307 337.637 847.742 332.148 845.208L332.169 844.732L333.026 844.052C330.823 842.659 314.934 835.555 311.432 833.916L255.894 808.299L253.935 808.835L252.681 808.812C250.952 811.927 246.669 823.439 245.276 827.195C242.004 836.013 237.632 845.87 234.755 854.668L232.981 854.212C234.232 852.096 238.483 840.845 239.503 838.237L251.409 807.908C243.053 803.846 234.236 800.21 225.97 796.046C223.15 794.626 220.172 791.694 219.438 788.416C218.841 785.874 219.005 783.213 219.909 780.764C222.04 775.097 227.61 764.56 230.485 758.779L253.888 712.7L274.463 671.564C277.967 664.534 282.699 654.376 286.678 647.851L287.322 648.067L287.419 649.008C289.115 646.44 292.461 639.106 294.019 636.103C299.227 626.065 303.918 615.447 309.992 605.848C328.426 576.718 356.443 554.455 389.247 543.692C395.806 541.54 400.335 541.159 406.664 539.71Z"/><path fill="#FF5C00" d="M310.107 798.933C326.6 765.329 341.501 730.842 357.833 697.094C370.927 670.034 381.997 638.556 405.623 618.827C423.059 604.267 440.502 598.527 463.101 600.708L462.639 601.564C460.268 601.468 458.724 601.414 456.367 601.594C459.36 601.86 461.707 602.006 464.716 602.062C470.084 608.594 475.064 616.101 479.619 623.253C489.454 638.698 499.706 654.287 508.642 670.27C508.945 671.089 508.978 670.909 508.995 671.74C482.372 664.501 462.796 659.88 435.55 656.293C424.209 689.33 409.058 726.038 396.147 758.766L378.748 803.075C374.878 813.084 370.824 824.233 366.635 834.005C392.703 845.47 414.851 853.289 441.873 861.729L440.92 862.566C438.132 862.168 428.53 858.994 425.521 858.057C405.002 851.666 385.746 843.694 365.978 835.37C362.309 845.366 361.563 852.238 349.803 853.575C344.497 851.307 337.637 847.742 332.148 845.208L332.169 844.732L333.026 844.052C330.823 842.659 314.934 835.555 311.432 833.916L255.894 808.299L253.935 808.835L252.681 808.812C250.952 811.927 246.669 823.439 245.276 827.195C242.004 836.013 237.632 845.87 234.755 854.668L232.981 854.212C234.232 852.096 238.483 840.845 239.503 838.237L251.409 807.908C243.053 803.846 234.236 800.21 225.97 796.046C223.15 794.626 220.172 791.694 219.438 788.416C218.841 785.874 219.005 783.213 219.909 780.764C222.04 775.097 227.61 764.56 230.485 758.779L253.888 712.7L274.463 671.564C277.967 664.534 282.699 654.376 286.678 647.851L287.322 648.067L287.419 649.008C268.095 686.359 249.098 723.877 230.429 761.559C256.36 773.993 283.909 787.307 310.107 798.933Z"/><path fill="#FF5C00" d="M229.762 762.919C240.302 767.057 256.013 775.433 266.917 780.489L367.81 827.562C363.444 837.85 362.276 849.436 350.399 852.336C344.67 849.7 338.716 846.433 333.026 844.052C330.823 842.659 314.934 835.555 311.432 833.916L255.894 808.299C246.174 803.913 235.074 799.316 225.6 794.593C216.266 789.941 222.388 777.98 225.829 770.933L229.762 762.919Z"/><path fill="#190203" d="M310.107 798.933C326.6 765.329 341.501 730.842 357.833 697.094C370.927 670.034 381.997 638.556 405.623 618.827C423.059 604.267 440.502 598.527 463.101 600.708L462.639 601.564C460.268 601.468 458.724 601.414 456.367 601.594C436.998 601.825 424.154 605.98 408.659 618.045C388.507 633.736 379.467 654.654 368.855 676.991C363.059 689.205 357.329 701.451 351.664 713.727C338.494 742.378 325.12 770.934 311.544 799.394C329.866 808.853 349.479 817.727 368.246 826.382C387.927 773.531 410.263 721.293 429.499 668.334C425.512 667.766 412.43 665.303 410.162 662.283C411.511 661.978 427.774 666.685 430.332 667.272L430 666.593C427.726 662.005 419.264 649.283 418.536 645.821C420.539 646.939 429.295 662.258 430.851 665.216C433.724 656.933 436.853 648.842 440.213 640.744C442.581 635.039 444.181 629.161 447.486 623.919C445.683 632.959 439.802 645.909 436.079 654.818C461.045 658.607 484.344 662.707 508.642 670.27C508.945 671.089 508.978 670.909 508.995 671.74C482.372 664.501 462.796 659.88 435.55 656.293C424.209 689.33 409.058 726.038 396.147 758.766L378.748 803.075C374.878 813.084 370.824 824.233 366.635 834.005C392.703 845.47 414.851 853.289 441.873 861.729L440.92 862.566C438.132 862.168 428.53 858.994 425.521 858.057C405.002 851.666 385.746 843.694 365.978 835.37C362.309 845.366 361.563 852.238 349.803 853.575C344.497 851.307 337.637 847.742 332.148 845.208L332.169 844.732L333.026 844.052C338.716 846.433 344.67 849.7 350.399 852.336C362.276 849.436 363.444 837.85 367.81 827.562L266.917 780.489C256.013 775.433 240.302 767.057 229.762 762.919L225.829 770.933C222.388 777.98 216.266 789.941 225.6 794.593C235.074 799.316 246.174 803.913 255.894 808.299L253.935 808.835L252.681 808.812C250.952 811.927 246.669 823.439 245.276 827.195C242.004 836.013 237.632 845.87 234.755 854.668L232.981 854.212C234.232 852.096 238.483 840.845 239.503 838.237L251.409 807.908C243.053 803.846 234.236 800.21 225.97 796.046C223.15 794.626 220.172 791.694 219.438 788.416C218.841 785.874 219.005 783.213 219.909 780.764C222.04 775.097 227.61 764.56 230.485 758.779L253.888 712.7L274.463 671.564C277.967 664.534 282.699 654.376 286.678 647.851L287.322 648.067L287.419 649.008C268.095 686.359 249.098 723.877 230.429 761.559C256.36 773.993 283.909 787.307 310.107 798.933Z"/><path fill="#FF5C00" d="M216.591 519.489C233.053 539.177 250.746 559.193 266.879 578.941C274.577 588.533 282.366 598.051 290.245 607.494C292.396 610.081 297.989 617.205 300.123 619.207C299.957 622.747 289.311 642.245 287.005 646.673C283.432 643.213 280.506 639.53 277.345 635.708C273.59 629.899 262.95 617.754 258.084 611.982C246.442 598.171 235.079 583.909 223.412 570.181C219.261 565.397 214.776 560.024 210.605 555.34C193.384 536.001 199.505 533.86 216.591 519.489Z"/><path fill="#12100F" d="M407.629 538.342C427.494 558.815 447.492 579.158 467.621 599.371C490.585 621.809 513.292 644.509 535.737 667.467C538.564 670.309 556.53 687.622 557.669 689.955L557.099 690.781C549.682 685.492 518.873 674.972 508.995 671.74C508.978 670.909 508.945 671.089 508.642 670.27C499.706 654.287 489.454 638.698 479.619 623.253C475.064 616.101 470.084 608.594 464.716 602.062C461.707 602.006 459.36 601.86 456.367 601.594C458.724 601.414 460.268 601.468 462.639 601.564L463.101 600.708C460.455 597.162 456.045 592.633 452.981 589.298C446.716 582.435 440.38 575.636 433.974 568.904C424.865 559.311 415.939 549.039 406.664 539.71L407.629 538.342Z"/><path fill="#190203" d="M344.897 409.581L346.496 409.963C323.111 428.242 297.486 450.86 274.643 470.191L237.867 501.367C231.58 506.683 223.632 513.014 217.733 518.457C232.211 536.431 248.6 555.159 263.722 572.775C276.357 560.486 292.9 546.487 306.295 534.906L337.527 507.36C344.846 500.956 361.452 484.733 369.307 480.702C361.898 488.998 351.689 496.577 343.342 504.106C320.914 524.337 297.661 543.669 275.306 563.979C271.702 567.243 268.194 570.399 264.788 573.88C272.488 583.588 280.329 593.183 288.307 602.664C290.996 605.896 298.666 614.705 300.819 617.98L300.123 619.207C297.989 617.205 292.396 610.081 290.245 607.494C282.366 598.051 274.577 588.533 266.879 578.941C250.746 559.193 233.053 539.177 216.591 519.489C199.505 533.86 193.384 536.001 210.605 555.34C214.776 560.024 219.261 565.397 223.412 570.181L221.734 570.86C218.121 572.64 200.625 592.714 196.246 597.173L194.752 595.914C197.152 594.405 217.48 572.665 220.765 569.189C214.863 562.393 208.935 555.57 203.433 548.559C198.558 542.348 196.547 535.522 202.844 529.502C209.762 522.889 217.503 516.663 224.844 510.516L259.479 481.257L309.417 439.066C320.58 429.588 333.341 418.316 344.897 409.581Z"/><defs><linearGradient id="gradient_1" gradientUnits="userSpaceOnUse" x1="313.85168" y1="560.61224" x2="354.57828" y2="597.0661"><stop offset="0" stop-color="black"/><stop offset="1" stop-color="#1B0D0D"/></linearGradient></defs><path fill="url(#gradient_1)" d="M397.079 537.601C393.261 530.799 389.502 525.873 384.981 519.893C382.529 516.649 368.935 499.946 368.802 498.421C374.534 501.233 385.876 517.137 392.115 522.584C392.607 521.311 392.778 520.886 393.458 519.662C395.52 528.741 401.044 531.581 407.629 538.342L406.664 539.71C400.335 541.159 395.806 541.54 389.247 543.692C356.443 554.455 328.426 576.718 309.992 605.848C303.918 615.447 299.227 626.065 294.019 636.103C292.461 639.106 289.115 646.44 287.419 649.008L287.322 648.067L286.678 647.851C283.915 646.195 278.611 639.059 276.69 636.278L277.345 635.708C280.506 639.53 283.432 643.213 287.005 646.673C289.311 642.245 299.957 622.747 300.123 619.207L300.819 617.98C302.437 617.031 309.396 604.061 310.878 601.607C329.97 569.669 360.985 546.641 397.079 537.601Z"/><path fill="#0B0605" d="M392.115 522.584C391.64 516.241 388.999 509.958 387.625 503.733C386.714 499.609 385.355 495.381 384.373 491.271C384.01 489.755 382.13 484.259 382.5 483.186C383.277 480.933 384.616 486.843 384.588 486.741C387.479 497.049 390.255 507.39 392.915 517.761C393.089 518.444 393.232 519.005 393.458 519.662C392.778 520.886 392.607 521.311 392.115 522.584Z"/><path fill="#12100F" d="M292.819 206.504C294.83 204.47 297.375 203.039 300.255 203.272C308.776 203.961 318.088 206.303 326.567 207.867C348.482 211.773 370.354 215.916 392.179 220.296C414.161 224.605 436.333 227.884 458.187 232.819C464.687 234.287 468.164 238.554 470.085 244.668C473.589 255.821 476.676 267.131 479.794 278.402L501.265 355.995C503.747 365.066 506.29 374.119 508.896 383.156C509.715 385.92 510.578 392.248 513.082 392.901L514.131 393.593C531.919 387.576 550.441 386.932 567.611 395.508C570.946 397.175 574.059 399.252 576.878 401.692C578.789 403.338 599.441 425.13 599.58 426.455L600.395 427.463C596.195 436.509 591.909 445.515 587.537 454.479C583.852 461.872 578.78 470.855 576.097 478.66C575.719 479.757 576.317 481.994 576.664 483.161L573.855 481.136C559.486 482.147 539.697 481.25 524.482 481.586C523.25 485.387 518.929 496.695 519.746 499.969C523.919 503.289 549.37 497.159 556.804 499.772C553.374 500.906 524.674 501.957 519.299 502.219L517.618 501.944C512.75 499.698 507.198 496.428 502.385 493.874C492.042 488.45 481.747 482.934 471.503 477.325L401.705 440.017C397.485 437.768 375.405 425.538 372.581 425.081C372.372 424.968 371.241 424.669 370.967 424.591C369.251 421.78 354.202 415.11 350.646 412.761C349.632 412.091 347.482 410.436 346.496 409.963L344.897 409.581C347.088 407.882 346.27 406.809 345.882 404.238C339.12 403.18 336.456 398.073 334.837 392.052C332.261 382.469 329.656 372.9 326.94 363.355L304.402 284.195L292.413 241.713C290.372 234.445 287.926 226.609 286.49 219.229C285.88 216.093 287.276 213.08 288.729 210.374C290.355 208.326 290.691 208.035 292.819 206.504Z"/><path fill="#FED321" d="M305.008 221.121C325.852 225.925 349.028 229.574 370.186 233.695C397.877 239.09 428.751 246.099 456.611 249.846C468.338 297.228 484.067 345.731 496.218 393.413C486.062 393.51 474.798 393.996 464.863 393.918C464.499 392.062 463.491 388.295 462.858 386.515C451.233 353.809 431.366 324.052 403.356 303.167C397.705 298.955 392.288 294.72 386.096 291.556C385.647 291.167 385.63 290.833 385.78 290.231C387.278 284.227 381.036 277.074 374.999 277.185C371.134 277.257 368.818 279.363 366.243 281.998C364.499 281.43 362.513 280.645 360.783 279.98C347.515 274.88 334.019 272.353 319.879 271.2C319.003 270.843 318.728 271.027 318.486 270.104C314.195 253.781 309.208 237.453 305.008 221.121Z"/><path fill="#12100F" d="M401.837 244.218C407.494 243.095 413.004 246.725 414.205 252.367C415.406 258.008 411.852 263.567 406.228 264.846C402.521 265.69 398.646 264.471 396.088 261.658C393.529 258.845 392.683 254.872 393.874 251.261C395.064 247.65 398.107 244.959 401.837 244.218Z"/><path fill="#12100F" d="M435.345 306.162C438.03 305.752 440.562 307.53 441.087 310.196C441.612 312.861 439.944 315.467 437.303 316.106C435.491 316.545 433.585 315.954 432.339 314.568C431.092 313.181 430.706 311.223 431.334 309.468C431.962 307.713 433.502 306.443 435.345 306.162Z"/><path fill="#0B0605" d="M435.467 270.793C437.363 270.308 439.308 271.385 439.905 273.249C440.502 275.113 439.543 277.119 437.718 277.826C436.437 278.322 434.986 278.067 433.95 277.164C432.915 276.26 432.465 274.857 432.784 273.52C433.102 272.183 434.135 271.133 435.467 270.793Z"/><path fill="#0B0605" d="M332.561 239.817C333.788 239.314 335.191 239.509 336.234 240.327C337.277 241.146 337.801 242.462 337.604 243.773C337.407 245.085 336.52 246.189 335.283 246.665C333.398 247.39 331.281 246.463 330.536 244.587C329.79 242.711 330.693 240.584 332.561 239.817Z"/><path fill="#B25423" d="M514.131 393.593C531.919 387.576 550.441 386.932 567.611 395.508C570.946 397.175 574.059 399.252 576.878 401.692C578.789 403.338 599.441 425.13 599.58 426.455L600.395 427.463C596.195 436.509 591.909 445.515 587.537 454.479C583.852 461.872 578.78 470.855 576.097 478.66C575.719 479.757 576.317 481.994 576.664 483.161L573.855 481.136C573.794 480.505 573.907 480.842 573.316 480.215C558.032 479.742 538.904 480.533 523.108 480.532C519.488 478.283 515.246 476.298 511.435 474.329C491.036 463.79 470.923 452.434 450.337 442.282C455.692 441.265 467.677 441.81 470.857 438.013C467.438 436.178 461.889 434.599 457.882 432.978C460.364 432.708 468.754 432.111 470.281 431.046C466.705 430.568 457.365 431.676 455.667 431.22C450.052 429.712 443.554 425.005 437.003 423.313L438.261 421.94C443.995 422.2 451.761 421.672 457.679 421.411C461.392 423.412 467.576 426.466 471.446 427.778L471.352 427.412C467.468 424.883 463.123 423.05 458.901 421.117C462.332 421.12 472.498 421.311 475.103 420.174C457.834 418.874 460.957 423.458 444.105 413.207C451.246 413.003 460.682 412.739 467.759 413.33C470.55 413.562 475.284 418.002 479.52 417.07L479.419 416.641C485.014 406.954 501.388 400.768 511.554 397.787C511.385 397.331 511.238 397.078 511.198 396.597C512.187 394.888 512.574 394.733 514.131 393.593Z"/><path fill="#12100F" d="M599.58 426.455L600.395 427.463C596.195 436.509 591.909 445.515 587.537 454.479C583.852 461.872 578.78 470.855 576.097 478.66C575.719 479.757 576.317 481.994 576.664 483.161L573.855 481.136C573.794 480.505 573.907 480.842 573.316 480.215C558.032 479.742 538.904 480.533 523.108 480.532C519.488 478.283 515.246 476.298 511.435 474.329C491.036 463.79 470.923 452.434 450.337 442.282C455.692 441.265 467.677 441.81 470.857 438.013L471.267 437.611C473.448 444.669 475.334 448.124 483.437 446.486C505.578 442.011 515.002 436.6 538.362 443.379C545.774 454.158 554.28 461.658 566.293 467.146C569.631 468.671 576.216 472.254 578.826 467.788C586.6 454.486 592.524 440.146 599.58 426.455Z"/><path fill="#0B0605" d="M479.52 417.07C488.4 413.206 494.091 411.296 502.905 408.435C519.747 402.966 530.555 401.52 547.256 408.847C549.272 409.732 554.294 411.201 555.408 412.966C553.455 413.609 546.398 410.26 544.314 409.268C530.947 402.9 517.485 405.124 503.978 409.535C495.839 412.193 486.942 414.536 479.47 418.899C475.299 421.265 473.971 426.709 472.226 430.752C493.236 425.064 516.463 414.055 537.96 421.872C540.376 422.751 548.479 425.295 549.527 427.505L548.833 427.829C543.536 425.592 542.679 424.465 536.647 422.746C519.889 417.971 510.949 421.03 495.035 425.696L472.278 432.217L471.267 437.611L470.857 438.013C467.438 436.178 461.889 434.599 457.882 432.978C460.364 432.708 468.754 432.111 470.281 431.046C466.705 430.568 457.365 431.676 455.667 431.22C450.052 429.712 443.554 425.005 437.003 423.313L438.261 421.94C443.995 422.2 451.761 421.672 457.679 421.411C461.392 423.412 467.576 426.466 471.446 427.778L471.352 427.412C467.468 424.883 463.123 423.05 458.901 421.117C462.332 421.12 472.498 421.311 475.103 420.174C457.834 418.874 460.957 423.458 444.105 413.207C451.246 413.003 460.682 412.739 467.759 413.33C470.55 413.562 475.284 418.002 479.52 417.07Z"/><path fill="#0B0605" d="M511.198 396.597C523.158 392.838 537.122 393.79 548.997 397.507C552.165 398.498 555.097 400.041 558.276 400.958C559.127 401.21 560.035 401.733 558.701 402.299C554.177 401.018 550.2 399.006 545.508 397.888L543.491 397.397C532.74 394.691 522.223 395.068 511.554 397.787C511.385 397.331 511.238 397.078 511.198 396.597Z"/><path fill="#161CFE" d="M319.879 271.2C334.019 272.353 347.515 274.88 360.783 279.98C362.513 280.645 364.499 281.43 366.243 281.998C368.818 279.363 371.134 277.257 374.999 277.185C381.036 277.074 387.278 284.227 385.78 290.231C385.63 290.833 385.647 291.167 386.096 291.556C392.288 294.72 397.705 298.955 403.356 303.167C431.366 324.052 451.233 353.809 462.858 386.515C463.491 388.295 464.499 392.062 464.863 393.918C451.708 394.069 438.036 393.774 424.844 393.651C422.385 384.82 414.745 372.726 409.291 365.417C390.598 340.749 362.967 324.407 332.345 319.91C331.749 318.477 331.112 315.66 330.676 314.027C327.015 300.309 322.838 286.691 319.417 272.923C319.137 271.796 319.209 272.067 319.879 271.2Z"/><path fill="#12100F" d="M366.243 281.998C368.818 279.363 371.134 277.257 374.999 277.185C381.036 277.074 387.278 284.227 385.78 290.231C385.63 290.833 385.647 291.167 386.096 291.556C385.132 292.423 385.154 292.582 384.532 293.757C382.46 297.675 379.685 298.435 375.747 299.63C367.185 297.245 360.974 292.265 365.792 282.893L366.243 281.998Z"/><path fill="#12100F" d="M430.982 361.79C432.314 361.284 433.816 361.534 434.914 362.443C436.012 363.353 436.536 364.782 436.287 366.186C436.038 367.59 435.054 368.751 433.71 369.227C431.664 369.952 429.415 368.896 428.668 366.858C427.92 364.82 428.952 362.56 430.982 361.79Z"/><path fill="#12100F" d="M393.439 325.742C394.639 325.357 395.953 325.662 396.86 326.538C397.766 327.413 398.118 328.716 397.775 329.928C397.431 331.141 396.449 332.066 395.218 332.336C393.435 332.727 391.66 331.649 391.185 329.887C390.71 328.125 391.702 326.301 393.439 325.742Z"/><path fill="#12100F" d="M288.729 210.374C290.355 208.326 290.691 208.035 292.819 206.504C291.313 210.099 290.287 213.271 291.228 217.215C293.254 225.71 295.884 234.507 298.208 242.941L314.93 302.256C320.767 323.813 326.799 345.316 333.027 366.764C335.598 375.838 339.539 394.621 344.046 401.741L344.761 401.765L345.137 401.125C346.986 398.012 349.437 394.946 352.978 393.626C354.392 394.236 355.386 394.093 356.924 394.083C360.166 396.34 388.403 411.358 391.675 411.724C412.909 414.1 436.669 411.209 458.289 411.92C465.705 412.146 472.831 410.983 480.233 411.794L480.023 412.149C476.714 412.672 474.473 412.874 471.13 413.09L470.832 413.507C472.461 414.584 477.598 416.815 479.419 416.641L479.52 417.07C475.284 418.002 470.55 413.562 467.759 413.33C460.682 412.739 451.246 413.003 444.105 413.207C460.957 423.458 457.834 418.874 475.103 420.174C472.498 421.311 462.332 421.12 458.901 421.117C463.123 423.05 467.468 424.883 471.352 427.412L471.446 427.778C467.576 426.466 461.392 423.412 457.679 421.411C451.761 421.672 443.995 422.2 438.261 421.94L437.003 423.313C443.554 425.005 450.052 429.712 455.667 431.22C457.365 431.676 466.705 430.568 470.281 431.046C468.754 432.111 460.364 432.708 457.882 432.978C461.889 434.599 467.438 436.178 470.857 438.013C467.677 441.81 455.692 441.265 450.337 442.282C470.923 452.434 491.036 463.79 511.435 474.329C515.246 476.298 519.488 478.283 523.108 480.532C538.904 480.533 558.032 479.742 573.316 480.215C573.907 480.842 573.794 480.505 573.855 481.136C559.486 482.147 539.697 481.25 524.482 481.586C523.25 485.387 518.929 496.695 519.746 499.969C523.919 503.289 549.37 497.159 556.804 499.772C553.374 500.906 524.674 501.957 519.299 502.219L517.618 501.944C512.75 499.698 507.198 496.428 502.385 493.874C492.042 488.45 481.747 482.934 471.503 477.325L401.705 440.017C397.485 437.768 375.405 425.538 372.581 425.081C372.372 424.968 371.241 424.669 370.967 424.591C369.251 421.78 354.202 415.11 350.646 412.761C349.632 412.091 347.482 410.436 346.496 409.963L344.897 409.581C347.088 407.882 346.27 406.809 345.882 404.238C339.12 403.18 336.456 398.073 334.837 392.052C332.261 382.469 329.656 372.9 326.94 363.355L304.402 284.195L292.413 241.713C290.372 234.445 287.926 226.609 286.49 219.229C285.88 216.093 287.276 213.08 288.729 210.374Z"/><path fill="#645758" d="M288.729 210.374C290.355 208.326 290.691 208.035 292.819 206.504C291.313 210.099 290.287 213.271 291.228 217.215C293.254 225.71 295.884 234.507 298.208 242.941L314.93 302.256C320.767 323.813 326.799 345.316 333.027 366.764C335.598 375.838 339.539 394.621 344.046 401.741L344.761 401.765L345.137 401.125C346.986 398.012 349.437 394.946 352.978 393.626C354.392 394.236 355.386 394.093 356.924 394.083C360.166 396.34 388.403 411.358 391.675 411.724C412.909 414.1 436.669 411.209 458.289 411.92C465.705 412.146 472.831 410.983 480.233 411.794L480.023 412.149C476.714 412.672 474.473 412.874 471.13 413.09L470.832 413.507C472.461 414.584 477.598 416.815 479.419 416.641L479.52 417.07C475.284 418.002 470.55 413.562 467.759 413.33C460.682 412.739 451.246 413.003 444.105 413.207C460.957 423.458 457.834 418.874 475.103 420.174C472.498 421.311 462.332 421.12 458.901 421.117C463.123 423.05 467.468 424.883 471.352 427.412L471.446 427.778C467.576 426.466 461.392 423.412 457.679 421.411C451.761 421.672 443.995 422.2 438.261 421.94L437.003 423.313C443.554 425.005 450.052 429.712 455.667 431.22C457.365 431.676 466.705 430.568 470.281 431.046C468.754 432.111 460.364 432.708 457.882 432.978C461.889 434.599 467.438 436.178 470.857 438.013C467.677 441.81 455.692 441.265 450.337 442.282C470.923 452.434 491.036 463.79 511.435 474.329C515.246 476.298 519.488 478.283 523.108 480.532C538.904 480.533 558.032 479.742 573.316 480.215C573.907 480.842 573.794 480.505 573.855 481.136C559.486 482.147 539.697 481.25 524.482 481.586C523.25 485.387 518.929 496.695 519.746 499.969C523.919 503.289 549.37 497.159 556.804 499.772C553.374 500.906 524.674 501.957 519.299 502.219L517.618 501.944C518.491 496.535 521.695 486.957 523.347 481.523C518.288 478.435 506.758 473.049 500.995 470.021L456.161 446.303C452.363 444.342 436.8 436.766 434.93 435.149C429.298 433.591 401.924 418.723 395.581 415.396C387.97 411.405 360.41 398.433 355.106 394.027C349.487 396.359 347.634 397.984 346.128 403.892C341.578 402.107 340.467 396.893 339.151 392.53C336.246 382.896 333.934 373.064 331.229 363.36L313.206 299.414L297.921 244.738C295.329 235.516 292.408 226.232 290.287 216.884C289.666 214.151 290.501 212.424 288.729 210.374Z"/><path fill="#12100F" d="M434.93 435.149C434.539 434.81 433.266 433.872 433.164 433.315C433.573 432.685 452.098 431.797 454.834 431.527C460.985 435.726 462.196 435.1 468.462 437.823C470.879 440.147 454.601 439.898 453.251 440.682C449.692 442.747 436.112 434.705 435.197 434.882C435.108 434.971 435.019 435.06 434.93 435.149Z"/><path fill="#12100F" d="M437.003 423.313L436.457 422.908C436.24 422.749 435.89 422.553 435.828 422.269L435.891 422.179C436.457 421.969 437.602 421.994 438.261 421.94L437.003 423.313Z"/><path fill="#12100F" d="M425.862 421.747C426.742 421.752 427.623 421.744 428.503 421.726C433.276 421.579 447.155 428.566 452.117 430.859C446.264 430.999 442.846 430.974 436.88 431.542C434.925 431.545 432.086 432.084 430.147 432.454C424.101 428.766 417.53 426.368 411.6 422.434C416.566 421.987 420.902 421.944 425.862 421.747Z"/><path fill="#12100F" d="M432.785 413.231C444.997 412.784 445.052 415.516 455.815 419.779C450.588 420.361 446.291 420.428 441.026 420.489C437.153 420.704 431.824 421.664 428.341 419.264C425.264 417.143 421.397 415.577 417.969 413.954C423.294 413.421 427.438 413.412 432.785 413.231Z"/><path fill="#12100F" d="M394.181 413.647C405.494 414.299 413.675 411.681 423.504 417.433C425.784 418.767 426.437 417.914 428.296 420.239C422.357 420.711 414.785 421.431 408.883 421.335C404.279 418.497 399.116 415.878 394.181 413.647Z"/><path fill="#645758" d="M430.916 443.238C436.562 444.024 447.435 451.627 453.317 453.778C455.207 454.47 459.895 457.259 460.953 458.984C461.321 459.584 459.831 461.111 459.568 461.427C454.909 459.608 451.482 458.143 447.084 455.648C441.712 452.6 435.981 449.885 430.476 447.087C427.944 445.801 429.58 444.703 430.916 443.238Z"/><path fill="#190203" d="M430.718 444.559C434.464 444.602 457.666 456.59 460.097 459.555C453.686 459.91 437.637 448.654 431.104 446.085C430.736 445.94 430.737 444.848 430.718 444.559Z"/><path fill="#9D7E77" d="M504.528 481.211C505.933 480.797 507.413 481.581 507.859 482.977C508.305 484.373 507.554 485.87 506.169 486.347C505.244 486.666 504.22 486.459 503.491 485.806C502.763 485.154 502.445 484.158 502.66 483.205C502.875 482.251 503.59 481.488 504.528 481.211Z"/><path fill="#9D7E77" d="M490.24 473.842C491.498 473.249 493 473.744 493.659 474.968C494.319 476.192 493.905 477.718 492.719 478.443C491.892 478.947 490.854 478.953 490.021 478.46C489.188 477.966 488.696 477.052 488.742 476.085C488.788 475.118 489.364 474.255 490.24 473.842Z"/><path fill="#9D7E77" d="M476.4 466.296C477.779 465.933 479.192 466.756 479.556 468.135C479.921 469.514 479.1 470.927 477.722 471.294C476.341 471.662 474.923 470.839 474.558 469.457C474.192 468.075 475.018 466.659 476.4 466.296Z"/><path fill="#C4B5FD" d="M332.345 319.91C362.967 324.407 390.598 340.749 409.291 365.417C414.745 372.726 422.385 384.82 424.844 393.651L382.237 393.761C374.329 393.782 364.663 393.568 356.924 394.083C355.386 394.093 354.392 394.236 352.978 393.626C345.809 369.136 338.931 344.562 332.345 319.91Z"/><path fill="#645758" d="M369.397 224.84C373.082 225.422 376.832 226.592 380.518 227.323C382.997 227.814 383.341 227.731 383.519 229.94C379.74 229.524 375.979 228.662 372.231 228.037C370.282 227.713 369.292 227.94 369.372 225.785L369.397 224.84Z"/><path fill="#C4B5FD" d="M702.905 460.748C718.106 462.039 735.249 468.264 747.996 476.626C751.129 478.681 758.445 484.574 761.438 485.684C760.345 483.708 757.008 481.212 755.188 479.833C743.89 471.295 730.985 465.124 717.247 461.689C713.498 460.743 700.447 459.818 698.987 456.83C702.185 450.13 705.12 442.173 707.921 435.194C713.209 422.056 718.411 408.882 723.526 395.676C726.704 387.548 731.121 375.482 735.268 368.258C744.665 351.984 760.158 340.125 778.321 335.303C814.05 325.852 847.871 350.138 856.762 384.805C859.172 394.983 859.319 405.566 857.191 415.807C855.598 423.374 852.659 430.53 849.983 437.78L838.916 467.834L819.832 519.969C812.279 540.915 809.941 552.867 795.769 570.597C789.298 577.325 783.755 582.094 775.384 586.488C757.968 595.628 738.571 595.778 720.157 590.004C681.371 577.844 617.282 528.231 599.08 492.81C605.597 477.64 614.944 461.209 621.929 446.056C624.671 440.11 629.316 432.708 631.476 426.803C669.138 444.588 730.166 463.608 737.837 511.608C738.378 514.995 737.958 518.202 738.96 521.693L739.764 521.725C740.544 520.185 739.879 514.934 739.585 513.001C735.688 487.379 722.605 475.184 702.905 460.748Z"/><path fill="#FF5C00" d="M372.581 425.081C375.405 425.538 397.485 437.768 401.705 440.017L471.503 477.325C481.747 482.934 492.042 488.45 502.385 493.874C507.198 496.428 512.75 499.698 517.618 501.944L519.299 502.219C531.942 506.133 547.847 509.333 560.93 511.161C575.643 548.317 603.702 578.79 628.976 609.322C619.429 614.386 610.716 620.885 603.141 628.591C589.083 618.279 572.755 604.095 558.973 592.895L475.423 524.99L421.807 481.527C399.692 463.618 382.12 453.494 372.581 425.081Z"/><path fill="#FF5C00" d="M874.548 226.055C883.366 229.253 888.791 232.288 894.965 239.622C908.645 255.872 910.085 280.848 890.65 293.412C885.424 292.683 879.931 291.785 874.682 291.585L874.257 291.916C877.087 293.328 881.376 293.629 884.569 293.812C915.698 295.593 917.362 327.101 905.571 349.159C895.507 367.983 881.84 378.642 860.968 383.93L860.105 383.306C859.633 381.104 860.03 378.353 860.209 376.042C863.718 327.263 835.762 280.423 784.036 277.534C763.65 276.395 741.545 281.875 725.837 295.521C721.293 299.516 717.571 304.481 713.369 308.423C713.603 302.936 713.566 296.438 717.85 292.355C724.402 286.11 770.145 270.704 781.828 266.202C805.401 257.118 829.093 247.997 851.989 237.311C859.567 233.774 867.394 230.406 874.548 226.055Z"/><path fill="#C4B5FD" d="M585.315 496.814C587.061 496.305 597.404 494.317 598.221 495.538C621.061 529.67 655.233 557.805 690.488 578.215C728.292 600.1 762.848 604.093 796.304 572.584C789.531 598.305 782.572 623.023 763.775 643.134C760.33 646.625 759.123 647.733 755.025 650.244C730.568 647.835 698.93 634.582 679.725 619.076C672.346 613.117 662.076 601.449 655.61 594.13C630.381 565.574 599.094 532.66 585.315 496.814Z"/><path fill="#B25423" d="M742.588 180.356C749.619 187.78 757.041 197.134 764.277 205.025C767.6 204.481 770.481 203.857 773.849 204.055C781.297 215.278 789.566 226.136 797.198 237.448C797.97 238.648 800.334 241.948 800.197 243.238C793.165 245.675 781.209 251.777 773.87 255.045C763.501 259.639 753.171 264.32 742.882 269.09C737.132 271.735 729.803 274.926 724.342 278.009C719.51 272.58 716.32 265.764 711.997 260.414L711.072 261.212C709.934 260.084 703.905 251.762 702.568 249.98C702.54 249.069 703.164 248.431 703.73 247.482C710.376 232.782 715.216 220.125 719.833 204.598C721.785 198.035 724.191 191.685 725.842 184.951C727.282 184.975 728.722 184.991 730.162 184.999L730.009 183.898L731.55 183.821L732.007 184.893C736.68 183.859 738.578 183.474 742.588 180.356Z"/><path fill="#B25423" d="M725.842 184.951C727.282 184.975 728.722 184.991 730.162 184.999C730.837 189.204 730.866 195.297 730.966 199.613C731.237 211.405 731.562 221.833 724.237 231.794C718.904 239.046 712.01 243.966 703.73 247.482C710.376 232.782 715.216 220.125 719.833 204.598C721.785 198.035 724.191 191.685 725.842 184.951Z"/><path fill="#12100F" d="M730.009 183.898L731.55 183.821L732.007 184.893C732.176 191.477 733.037 211.966 731.981 217.081C730.36 224.931 716.555 255.23 711.997 260.414L711.072 261.212C709.934 260.084 703.905 251.762 702.568 249.98C702.54 249.069 703.164 248.431 703.73 247.482C712.01 243.966 718.904 239.046 724.237 231.794C731.562 221.833 731.237 211.405 730.966 199.613C730.866 195.297 730.837 189.204 730.162 184.999L730.009 183.898Z"/><path fill="#F8F7F6" d="M701.274 251.912L702.568 249.98C703.905 251.762 709.934 260.084 711.072 261.212C714.885 267.101 718.763 272.948 722.706 278.751C707.043 287.516 703.53 295.919 708.913 313.189C699.566 323.352 694.65 332.228 687.803 344.001C686.107 346.916 679.586 352.544 677.006 355.365L676.91 355.892L677.478 356.628L677.515 357.15C676.921 357.847 676.968 357.79 676.051 358.095L674.944 357.811L674.996 357.62C662.794 335.937 658.446 295.904 677.126 276.442C683.715 269.578 691.871 261.369 696.735 253.333L696.462 252.3L697.347 251.876C698.154 251.499 698.204 251.454 698.91 250.901L699.377 250.998L701.274 251.912Z"/><path fill="#FF5C00" d="M699.377 250.998L701.274 251.912C693.562 263.56 687.477 269.169 678.325 279.167C665.131 293.582 665.744 315.804 669.465 333.698C670.788 340.062 673.155 349.704 677.006 355.365L676.91 355.892L677.478 356.628L677.515 357.15C676.921 357.847 676.968 357.79 676.051 358.095L674.944 357.811L674.996 357.62C662.794 335.937 658.446 295.904 677.126 276.442C683.715 269.578 691.871 261.369 696.735 253.333L696.462 252.3L697.347 251.876C698.154 251.499 698.204 251.454 698.91 250.901L699.377 250.998Z"/><path fill="#591003" d="M674.996 357.62C675.694 357.025 676.25 356.523 676.91 355.892L677.478 356.628L677.515 357.15C676.921 357.847 676.968 357.79 676.051 358.095L674.944 357.811L674.996 357.62Z"/><path fill="#FF5C00" d="M792.519 228.538C806.678 222.667 835.253 210.38 849.647 207.794C854.46 206.929 861.454 206.73 866.007 208.597C868.926 209.794 871.734 211.525 872.968 214.539C874.044 217.171 875.075 221.313 873.89 224.05C872.55 227.144 861.473 231.108 858.15 232.654C849.439 236.706 840.845 241.045 831.954 244.692C816.425 251.062 800.837 257.38 785.189 263.451C773.025 268.17 723.565 284.807 717.117 291.129C711.007 297.118 713.963 304.021 710.911 310.849C705.343 308.803 708.036 294.16 710.54 290.689C718.202 280.07 738.179 272.961 749.612 267.75L801.414 244.259L800.197 243.238C800.334 241.948 797.97 238.648 797.198 237.448L798.506 237.001L792.519 228.538Z"/><path fill="#12100F" d="M798.506 237.001C810.11 234.277 852.009 212.62 859.655 216.145C860.749 217.542 860.471 216.778 860.586 218.492C858.341 221.574 849.794 223.607 846.038 225.292L820.176 236.594C815.741 238.531 805.9 242.933 801.414 244.259L800.197 243.238C800.334 241.948 797.97 238.648 797.198 237.448L798.506 237.001Z"/><path fill="#C4B5FD" d="M814.151 286.661C821.434 290.509 828.116 295.4 833.983 301.181C854.199 321.298 859.02 346.794 859.1 374.109L858.673 379.454L857.03 380.248C855.501 375.582 853.529 371.074 851.141 366.784C841.523 349.457 826.778 338.921 807.964 333.443C808.943 328.78 809.793 321.208 810.488 316.316C811.864 306.642 813.359 296.35 814.151 286.661Z"/><path fill="#C4B5FD" d="M600.395 427.463C603.812 420.755 604.475 418.598 612.257 417.48C618.203 420.464 624.174 423.396 630.17 426.278C629.431 428.015 620.448 445.732 619.625 447.16C616.271 452.977 599.484 490.378 596.569 493.66C592.137 494.608 579.187 487.17 576.664 483.161C576.317 481.994 575.719 479.757 576.097 478.66C578.78 470.855 583.852 461.872 587.537 454.479C591.909 445.515 596.195 436.509 600.395 427.463Z"/><path fill="#F0E6D3" d="M677.515 357.15C678.242 358.542 678.911 359.775 679.676 361.142C679.313 361.951 679.062 362.283 678.585 363.033L678.319 363.458C676.648 367.297 674.464 371.008 672.58 374.755C663.207 393.399 652.692 411.788 643.959 430.723L639.577 428.559C644.691 401.062 657.866 379.679 675.815 358.985L676.051 358.095C676.968 357.79 676.921 357.847 677.515 357.15Z"/><path fill="#B25423" d="M677.515 357.15C678.242 358.542 678.911 359.775 679.676 361.142C679.313 361.951 679.062 362.283 678.585 363.033L678.319 363.458C677.413 362.002 676.694 360.457 675.815 358.985L676.051 358.095C676.968 357.79 676.921 357.847 677.515 357.15Z"/><path fill="#FF5C00" d="M704.825 666.834C709.036 668.49 713.358 669.851 717.758 670.907C718.438 671.066 719.561 671.338 720.254 671.465L726.265 672.531C724.69 672.867 722.502 672.996 721.153 673.396C721.575 674.528 721.228 674.297 720.129 674.814C717.855 674.848 715.573 674.961 713.305 674.9C713.214 673.943 713.04 674.094 712.119 673.771C710.747 673.894 707.551 674.741 707.01 673.074L706.782 672.346C706.185 670.489 705.533 668.651 704.825 666.834Z"/><path fill="#350100" d="M712.119 673.771C713.53 673.387 719.313 673.44 721.153 673.396C721.575 674.528 721.228 674.297 720.129 674.814C717.855 674.848 715.573 674.961 713.305 674.9C713.214 673.943 713.04 674.094 712.119 673.771Z"/><path fill="#F0E6D3" d="M683.408 350.576L684.212 352.135C683.042 354.222 680.713 358.9 679.676 361.142C678.911 359.775 678.242 358.542 677.515 357.15L677.478 356.628C679.888 354.478 681.276 353.043 683.408 350.576Z"/><path fill="#C3B0A3" d="M683.408 350.576C683.855 349.968 684.533 348.972 685.304 348.663C685.636 348.53 685.804 348.877 685.72 349.175C685.424 350.23 684.759 351.19 684.212 352.135L683.408 350.576Z"/><path fill="#C4B5FD" d="M776.193 281.683C787.01 279.931 802.346 281.749 812.674 285.811C811.705 299.622 808.737 319.256 806.668 333.241C777.324 326.32 744.171 344.883 731.81 371.663C726.049 384.145 721.418 397.454 716.337 410.255C710.111 425.942 703.623 441.556 697.529 457.285C694.513 455.482 691.318 453.707 688.26 451.95C673.493 443.607 660.554 438.198 645.204 431.241C654.914 410.611 667.789 387.712 678.195 367.327C684.571 354.835 695.49 331.579 703.17 321.935C721.22 299.266 747.567 285.32 776.193 281.683Z"/><path fill="#C4B5FD" d="M580.888 497.209L583.01 496.969C584.455 497.558 585.423 501.051 586.159 502.698C601.714 537.513 629.368 567.01 654.526 595.188C661.168 602.627 668.924 611.419 676.106 617.819C680.403 621.618 685.009 625.051 689.878 628.084C711.156 641.621 729.342 646.777 753.425 651.692C741.911 660.252 741.165 661.577 732.205 672.222C672.088 663.117 635.132 615.939 599.293 571.044C583.697 551.508 563.769 524.056 559.12 499.146C566.676 498.772 573.384 498.084 580.888 497.209Z"/><path fill="#FF5C00" d="M629.914 610.44C631.883 612.124 634.576 615.269 636.553 617.312C643.124 624.105 649.144 630.237 656.253 636.5C647.765 636.593 639.953 636.565 631.498 635.458C623.866 635.087 611.574 632.041 604.545 629.365C612.419 620.294 619.976 616.352 629.914 610.44Z"/><path fill="#FF5C00" d="M699.414 674.504L700.882 675.618C698.457 686.394 695.848 700.961 695.004 711.876C694.212 722.102 687.108 720.164 687.857 713.401C689.425 699.234 692.878 687.302 699.414 674.504Z"/><path fill="#FF5C00" d="M704.23 674.252C706.516 675.282 706.426 675.79 707.348 678.289C709.829 685.014 714.796 711.161 712.387 716.866L712.025 717.781C709.583 718.49 706.199 719.236 706.08 715.254C705.707 702.823 705.705 690.397 704.445 677.999C704.282 676.396 704.15 675.888 704.23 674.252Z"/><path fill="#B25423" d="M700.831 670.918L701.699 671.604C701.414 672.94 701.142 674.278 700.882 675.618L699.414 674.504C700.003 673.359 700.478 672.157 700.831 670.918Z"/><path fill="#89442F" d="M700.831 670.918C701.191 669.869 701.58 668.431 702.145 667.533L702.558 667.352L702.368 667.258L702.542 667.147C703.459 667.454 701.873 670.935 701.699 671.604L700.831 670.918Z"/><path fill="#12100F" d="M255.894 808.299L311.432 833.916C314.934 835.555 330.823 842.659 333.026 844.052L332.169 844.732L332.148 845.208C328.166 852.523 319.547 877.462 316.268 881.889C318.312 884.499 324.647 883.834 327.565 887.876C330.197 891.521 329.045 938.764 328.95 946.755C332.473 950.583 333.924 954.048 333.617 959.392C333.305 965.181 330.579 970.574 326.103 974.257C321.736 977.831 317.372 978.838 311.851 979.051C297.693 979.595 283.014 979.224 268.834 979.232L180.642 979.267L110.793 979.277C99.5326 979.26 87.2941 979.337 76.0294 978.805C70.8691 978.191 64.503 974.066 61.6987 969.994C59.1908 966.352 57.1155 959.211 58.5163 955.04C60.7709 948.326 62.2017 940.67 64.292 933.967C73.9656 902.945 99.3346 894.426 128.465 889.619C130.776 889.235 138.438 887.514 140.488 886.451C140.411 885.205 140.194 885.694 140.89 884.858C144.133 885.818 152.36 885.893 154.893 882.743C155.479 882.014 155.991 881.434 156.632 880.751C159.155 880.502 157.504 882.736 159.533 882.525C162.256 882.241 169.988 880.614 171.808 879.357L172.123 877.055C173.262 876.139 172.639 876.31 174.029 876.444L174.564 878.088L175.262 878.442C178.18 878.043 189.539 875.201 192.044 873.984C192.064 872.703 191.904 871.86 192.673 870.88C194.415 870.387 193.648 870.275 195.075 870.887L195.436 873.274C201.824 871.661 208.979 869.413 215.37 867.558C215.33 865.379 215.119 863.284 215.715 861.22L216.529 860.883L217.877 862.191C219.664 862.648 228.176 858.833 231.48 857.967C228.943 845.959 224.479 837.864 212.313 830.804C201.98 824.807 178.002 829.372 180.575 845.012C181.83 852.645 204.737 851.404 210.716 852.033C215.402 852.526 220.421 853.676 226.401 855.829L225.963 857.352C219.694 855.393 215.527 854.247 208.763 853.712C199.445 852.975 184.559 855.794 179.108 845.978C175.277 839.079 182.711 831.733 188.438 828.888C202.497 821.904 219.672 828.901 227.306 841.933C229.785 846.088 230.66 849.458 232.616 853.477L232.981 854.212L234.755 854.668C237.632 845.87 242.004 836.013 245.276 827.195C246.669 823.439 250.952 811.927 252.681 808.812L253.935 808.835L255.894 808.299Z"/><path fill="#FED321" d="M225.963 857.352C219.694 855.393 215.527 854.247 208.763 853.712C199.445 852.975 184.559 855.794 179.108 845.978C175.277 839.079 182.711 831.733 188.438 828.888C202.497 821.904 219.672 828.901 227.306 841.933C229.785 846.088 230.66 849.458 232.616 853.477L232.981 854.212L234.755 854.668C234.068 856.747 232.184 863.064 231.046 864.493C230.38 865.256 230.402 865.198 230.098 866.229C227.587 868.363 224.237 867.689 223.413 868.71C239.664 867.93 242.749 872.405 252.009 884.388C258.447 892.721 270.858 896.433 281.156 896.631C270.17 907.101 261.312 919.955 257.525 934.814L139.021 934.883C139.113 914.601 134.004 901.764 114.553 893.943C120.104 892.762 137.155 888.764 142.161 888.541L140.488 886.451C140.411 885.205 140.194 885.694 140.89 884.858C144.133 885.818 152.36 885.893 154.893 882.743C155.479 882.014 155.991 881.434 156.632 880.751C159.155 880.502 157.504 882.736 159.533 882.525C162.256 882.241 169.988 880.614 171.808 879.357L172.123 877.055C173.262 876.139 172.639 876.31 174.029 876.444L174.564 878.088L175.262 878.442C178.18 878.043 189.539 875.201 192.044 873.984C192.064 872.703 191.904 871.86 192.673 870.88C194.415 870.387 193.648 870.275 195.075 870.887L195.436 873.274C201.824 871.661 208.979 869.413 215.37 867.558C215.33 865.379 215.119 863.284 215.715 861.22L216.529 860.883L217.877 862.191C219.664 862.648 228.176 858.833 231.48 857.967C228.943 845.959 224.479 837.864 212.313 830.804C201.98 824.807 178.002 829.372 180.575 845.012C181.83 852.645 204.737 851.404 210.716 852.033C215.402 852.526 220.421 853.676 226.401 855.829L225.963 857.352Z"/><path fill="#0B0605" d="M225.963 857.352C219.694 855.393 215.527 854.247 208.763 853.712C199.445 852.975 184.559 855.794 179.108 845.978C175.277 839.079 182.711 831.733 188.438 828.888C202.497 821.904 219.672 828.901 227.306 841.933C229.785 846.088 230.66 849.458 232.616 853.477L232.981 854.212L234.755 854.668C234.068 856.747 232.184 863.064 231.046 864.493C230.38 865.256 230.402 865.198 230.098 866.229C227.587 868.363 224.237 867.689 223.413 868.71C221.253 869.271 219.734 869.426 218.096 870.907C217.833 872.047 217.638 873.275 218.57 874.252L218.754 875.162L219.262 875.95C220.032 877.12 221.763 878.047 221.455 879.742C221.007 882.205 217.275 883.983 215.604 881.606C215.08 880.859 215.021 879.498 214.476 879.169C213.926 879.15 213.316 879.868 212.94 880.176C212.632 879.692 212.779 879.883 212.526 879.582C211.102 873.954 199.597 875.104 195.27 876.324C195.396 878.713 195.249 881.157 196.379 883.162C197.605 884.036 197.622 883.892 199.17 883.913C198.914 884.267 198.624 884.559 198.329 884.88C200.049 890.006 201.501 891.719 194.426 892.17C193.288 890.294 193.291 889.994 192.588 887.877C192.127 887.369 192.091 887.314 191.522 886.922C190.235 884.382 184.328 880.391 181.729 879.059C179.432 879.666 177.067 880.327 174.765 880.881L175.232 889.594C178.86 891.208 182.876 893.653 180.634 898.412C179.845 900.047 178.378 901.254 176.622 901.713C171.409 903.112 169.091 898.357 168.86 894.019L168.732 891.572C165.148 889.351 161.521 887.2 157.852 885.123C157.374 888.195 156.805 892.678 156.091 895.583C155.708 896.453 155.735 896.678 155.838 897.641C157.078 899.174 157.103 899.152 157.81 901.02L158.036 901.601C152.559 908.57 151.527 901.842 149.494 900.513C149.335 900.079 149.097 899.487 148.986 899.033C149.115 898.654 149.193 897.957 149.26 897.532C147.494 894.746 144.319 891.436 142.161 888.541L140.488 886.451C140.411 885.205 140.194 885.694 140.89 884.858C144.133 885.818 152.36 885.893 154.893 882.743C155.479 882.014 155.991 881.434 156.632 880.751C159.155 880.502 157.504 882.736 159.533 882.525C162.256 882.241 169.988 880.614 171.808 879.357L172.123 877.055C173.262 876.139 172.639 876.31 174.029 876.444L174.564 878.088L175.262 878.442C178.18 878.043 189.539 875.201 192.044 873.984C192.064 872.703 191.904 871.86 192.673 870.88C194.415 870.387 193.648 870.275 195.075 870.887L195.436 873.274C201.824 871.661 208.979 869.413 215.37 867.558C215.33 865.379 215.119 863.284 215.715 861.22L216.529 860.883L217.877 862.191C219.664 862.648 228.176 858.833 231.48 857.967C228.943 845.959 224.479 837.864 212.313 830.804C201.98 824.807 178.002 829.372 180.575 845.012C181.83 852.645 204.737 851.404 210.716 852.033C215.402 852.526 220.421 853.676 226.401 855.829L225.963 857.352Z"/><path fill="#FED321" d="M154.467 885.733C155.418 886.497 153.217 894.819 152.866 896.532C151.708 895.374 150.688 894.388 149.617 893.142C147.877 891.123 146.432 889.512 144.833 887.335C148.053 886.811 151.252 886.194 154.467 885.733Z"/><path fill="#FED321" d="M171.943 881.666C172.47 882.841 172.727 889.42 172.915 891.265C170.645 889.568 169.314 888.747 166.819 887.414C164.581 886.113 163.313 885.321 160.936 884.145C164.553 883.333 168.335 882.346 171.943 881.666Z"/><path fill="#F8F7F6" d="M176.876 891.7C179.066 892.677 180.364 894.234 179.937 896.762C179.739 897.97 179.055 899.045 178.045 899.737C174.858 901.898 171.711 899.868 169.981 896.955C169.988 896.186 169.859 893.01 170.313 892.578C171.272 892.581 171.263 900.022 176.18 898.412C179.432 897.348 177.82 893.855 176.876 891.7Z"/><path fill="#FD9908" d="M214.414 870.621C216.378 870.876 215.707 876.111 214.758 876.521C214.15 876.456 211.999 875.102 211.159 874.697L210.587 874.428L209.708 874.174C208.336 873.765 206.971 873.413 205.576 873.088C208.878 872.014 210.939 871.322 214.414 870.621Z"/><path fill="#FBBF24" d="M187.309 877.677C188.639 877.607 191.581 877.288 192.686 877.609C192.951 877.686 195.236 882.959 193.225 882.971C190.67 881.229 188.709 879.889 186.063 878.3C186.388 877.89 186.721 877.96 187.309 877.677Z"/><path fill="#12100F" d="M155.838 897.641C155.735 896.678 155.708 896.453 156.091 895.583C158.092 898.582 163.034 899.782 158.898 905.969C155.376 911.24 143.63 906.143 148.986 899.033C149.097 899.487 149.335 900.079 149.494 900.513C151.527 901.842 152.559 908.57 158.036 901.601L157.81 901.02C157.103 899.152 157.078 899.174 155.838 897.641Z"/><path fill="#F8F7F6" d="M155.838 897.641C159.456 898.017 158.852 901.423 159.134 903.772C154.417 909.345 146.767 905.994 149.494 900.513C151.527 901.842 152.559 908.57 158.036 901.601L157.81 901.02C157.103 899.152 157.078 899.174 155.838 897.641Z"/><path fill="#F8F7F6" d="M218.754 875.162L219.548 875.397C229.902 878.257 218.01 892.067 213.169 880.7L212.94 880.176C213.316 879.868 213.926 879.15 214.476 879.169C215.021 879.498 215.08 880.859 215.604 881.606C217.275 883.983 221.007 882.205 221.455 879.742C221.763 878.047 220.032 877.12 219.262 875.95L218.754 875.162Z"/><path fill="#F8F7F6" d="M198.329 884.88L199.042 885.255C205.27 888.341 200.301 898.365 192.978 892.835C191.181 890.612 191.137 890.17 192.588 887.877C193.291 889.994 193.288 890.294 194.426 892.17C201.501 891.719 200.049 890.006 198.329 884.88Z"/><path fill="#12100F" d="M199.17 883.913C202.671 885.953 204.636 888.714 202.054 892.783C201.091 894.312 199.551 895.386 197.783 895.761C196.245 896.101 194.15 895.576 192.985 894.593C189.614 891.751 189.788 890.28 191.522 886.922C192.091 887.314 192.127 887.369 192.588 887.877C191.137 890.17 191.181 890.612 192.978 892.835C200.301 898.365 205.27 888.341 199.042 885.255L198.329 884.88C198.624 884.559 198.914 884.267 199.17 883.913Z"/><path fill="#12100F" d="M218.57 874.252L219.507 874.342C223.258 874.644 225.271 877.73 224.581 881.509C223.082 889.719 210.468 886.283 212.526 879.582C212.779 879.883 212.632 879.692 212.94 880.176L213.169 880.7C218.01 892.067 229.902 878.257 219.548 875.397L218.754 875.162L218.57 874.252Z"/><path fill="#F0E6D3" d="M234.755 854.668C237.632 845.87 242.004 836.013 245.276 827.195C246.669 823.439 250.952 811.927 252.681 808.812L253.935 808.835C261.226 812.671 268.553 817.236 275.485 821.716C291.959 832.363 309.023 842.15 325.645 852.492C318.891 859.755 315.308 866.247 313.153 876.016C312.761 877.793 312.083 882.085 310.918 883.048C298.793 883.935 292.397 888.315 282.825 895.105C260.666 895.028 256.504 886.93 243.144 872.049C240.985 869.646 233.992 868.505 231.27 866.41L231.046 864.493C232.184 863.064 234.068 856.747 234.755 854.668Z"/><path fill="#F0E6D3" d="M62.68 947.623C79.1283 947.156 97.5139 947.512 114.051 947.516L229.371 947.701L296.048 947.497C306.09 947.483 316.208 947.345 326.231 947.657C330.912 947.803 332.627 954.731 332.287 958.499C331.693 965.081 329.942 968.88 325.162 973.32C315.281 980.284 290.655 978.02 278.324 978.014L222.812 977.996L132.528 978.003C115.068 977.996 97.4414 978.145 79.9955 977.606C76.2299 977.49 72.6065 976.908 69.3038 974.996C64.7003 972.329 61.3795 967.905 60.1048 962.739C58.6652 957.02 59.7088 952.531 62.68 947.623Z"/><path fill="#F8F7F6" d="M64.9939 936.202C91.0257 935.235 121.531 936.079 147.892 936.073L327.752 936.033C327.769 939.634 327.784 942.636 327.505 946.221C288.501 945.369 246.2 946.189 206.966 946.248C159.737 946.318 110.57 945.42 63.4537 946.27C63.8623 942.423 64.122 939.948 64.9939 936.202Z"/><path fill="#C4B5FD" d="M309.738 884.656C314.53 884.08 319.064 884.386 323.62 885.932C324.909 887.187 325.251 887.621 326.362 889.063L326.119 889.795C324.358 890.139 323.147 890.337 321.459 890.92C323.496 891.629 325.313 891.515 327.483 891.576L327.581 934.622C309.865 934.346 290.539 934.865 272.625 934.92L264.545 934.859C265.534 932.248 266.692 929.728 266.871 926.967L266.382 927.294L266.793 927.272C265.11 928.614 264.559 932.478 264.002 934.752L258.873 934.761C261.642 925.477 266.055 916.765 271.901 909.041C281.906 895.597 293.116 887.104 309.738 884.656Z"/><path fill="#28202B" d="M309.017 890.602C311.072 890.492 318 889.413 319.776 890.651C319.875 890.719 319.828 890.801 319.809 890.876C319.036 891.661 310.509 891.379 308.751 891.605C305.445 892.029 302.588 892.959 299.422 893.814L299.123 893.013C302.301 892.035 304.752 890.834 308.056 890.533C308.376 890.556 308.697 890.579 309.017 890.602Z"/><path fill="#28202B" d="M299.422 893.814C296.884 895.166 294.481 895.689 291.958 897.383C290.91 898.087 286.156 902.119 285.6 901.917L285.507 901.719C286.192 898.625 296.243 893.599 299.123 893.013L299.422 893.814Z"/><path fill="#28202B" d="M274.679 913.283L274.623 914.584C272.01 917.143 271.18 920.913 268.867 923.378C268.788 923.368 268.708 923.358 268.629 923.348C267.785 921.568 274.062 914.188 274.679 913.283Z"/><path fill="#12100F" d="M283.337 903.444C284.669 904.801 280.982 907.127 279.991 907.853C278.777 906.917 282.598 904.045 283.337 903.444Z"/><path fill="#12100F" d="M274.679 913.283C275.027 912.613 276.802 909.522 277.746 909.832C278.452 910.64 275.263 914.021 274.623 914.584L274.679 913.283Z"/><path fill="#F8F7F6" d="M111.138 894.577C111.279 894.569 111.419 894.562 111.56 894.555C126.294 896.772 135.317 910.896 137.314 924.684C137.838 928.296 137.688 931.703 137.696 934.789C123.941 934.295 107.232 934.801 93.25 934.849C83.9598 934.865 74.6699 934.936 65.3806 935.065C67.082 930.145 69.2727 925.41 71.9198 920.928C81.1445 905.528 94.2831 898.782 111.138 894.577Z"/><path fill="#0B0605" d="M187.212 596.843C183.255 591.908 180.737 589.174 175.879 585.05C168.705 578.959 153.534 573.485 154.489 562.153C155.126 554.606 164.891 552.959 170.951 553.881C178.795 555.137 185.793 559.526 190.339 566.042C195.199 572.914 196.856 581.021 195.688 589.236C195.6 589.857 194.751 595.81 194.752 595.914L196.246 597.173C200.625 592.714 218.121 572.64 221.734 570.86L223.412 570.181C235.079 583.909 246.442 598.171 258.084 611.982C262.95 617.754 273.59 629.899 277.345 635.708L276.69 636.278L276.15 636.029C273.936 636.517 256.013 655.122 253.317 657.972C259.882 664.588 256.346 669.19 252.599 676.14C245.377 689.533 237.426 702.592 230.606 716.196C232.039 725.673 225.973 732.898 217.249 735.956C211.232 738.066 204.97 737.09 199.527 733.887C187.457 726.783 175.601 719.207 163.742 711.73L104.217 674.554C86.2193 663.537 68.2927 652.405 50.4379 641.158C41.0428 635.319 31.5413 629.719 22.4446 623.347C13.9125 617.371 10.4785 605.829 15.6475 596.472C18.4094 591.473 21.7345 590.154 26.8365 588.633C31.4736 581.806 34.946 578.051 42.5516 574.527C62.9074 565.097 76.3154 568.285 95.9787 575.196L108.174 579.925L109.629 579.121C113.37 580.777 119.367 584.753 123.208 585.169C124.63 584.49 124.643 584.365 126.198 584.066C130.177 586.893 134.147 589.851 139.274 589.782L140.369 588.593C141.553 588.603 142.028 588.854 143.075 589.432C149.028 592.718 150.765 592.988 157.348 594.102C158.323 592.566 158.918 591.14 160.516 590.459L161.796 590.705C161.959 593.51 159.817 593.205 160.842 594.721C166.2 596.06 171.373 596.993 176.794 598.008C177.634 596.439 177.698 595.574 178.968 595.015C179.574 597.452 179.099 596.929 180.631 598.576C182.421 599.212 183.291 598.864 184.98 598.028C185.732 597.649 186.476 597.253 187.212 596.843Z"/><path fill="#F0E6D3" d="M196.246 597.173C200.625 592.714 218.121 572.64 221.734 570.86C229.288 579.618 237.755 591.87 244.614 601.446C252.136 611.947 261.171 623.645 268.221 634.349C259.226 639.882 252.165 645.322 247.655 655.336C235.09 650.783 229.56 650.302 216.314 652.718C206.597 645.548 201.616 639.389 200.093 627.195C199.395 621.605 197.392 607.416 190.767 605.957L190.189 604.408C190.799 602.295 194.531 598.893 196.246 597.173Z"/><path fill="#F0E6D3" d="M24.7639 590.407C28.1566 590.341 38.4084 598.065 42.1809 600.439L78.4604 622.999L195.729 695.891C206.827 702.798 218.447 709.372 229.044 716.897C230.353 718.589 229.957 721.528 229.264 723.071C226.82 728.512 223.085 731.65 217.957 734.234C204.843 738.842 196.527 730.56 185.833 723.876L152.16 702.845L63.8283 647.946C51.2171 640.022 38.3126 632.136 25.824 624.051C22.1158 621.229 18.7408 619.212 16.826 614.843C12.52 605.019 14.5597 595.088 24.7639 590.407Z"/><path fill="#FED321" d="M90.7372 574.822L95.4872 576.624L109.189 581.938C110.225 585.084 111.435 588.219 111.751 591.501C109.981 593.928 108.525 595.168 109.012 598.169C109.285 599.846 110.206 601.348 111.577 602.35C112.924 603.34 114.633 603.699 116.265 603.335C119.98 602.539 121.624 598.958 120.26 595.397C120.617 592.402 122.638 590.352 124.612 588.108L125.676 587.71C128.347 589.007 129.547 593.744 130.717 596.757C130.506 597.808 130.774 597.359 129.817 598.041C130.257 598.608 130.206 598.519 130.296 599.257L130.343 601.052C130.458 604.968 136.474 607.527 137.336 599.952C137.45 599.505 137.451 599.318 137.671 598.971L136.758 598.646C136.86 596.559 139.754 593.66 141.286 591.864C145.561 595.362 146.903 597.964 149.871 602.695C148.25 604.329 147.69 604.637 147.039 606.745C147.317 610.785 149.969 613.547 154.159 613.072C155.919 612.865 157.511 611.931 158.549 610.495C159.637 608.958 159.72 607.545 159.458 605.749C158.386 604.358 157.996 604.145 156.627 603.124C156.348 600.472 158.787 598.056 161.048 597.042C164.895 597.126 168.744 603.66 169.279 606.783L169.018 607.51L169.602 608.365C170.3 610.585 170.554 617.957 175.813 612.807C176.977 611.667 175.744 609.341 176.933 608.805C178.287 609.132 178.497 611.873 178.534 612.971L178.555 613.46L179.379 614.348C180 612.459 180.091 611.085 179.308 609.26C177.686 607.88 177.248 607.656 176.221 605.859C175.807 603.812 176.782 602.321 177.649 600.308C182.318 603.105 184.213 603.578 189.11 605.69C205.675 620.264 190.826 635.516 214.259 653.063C201.541 655.702 189.895 662.607 180.593 671.538L88.7846 613.986C97.2878 601.15 97.3362 588.394 90.7372 574.822Z"/><path fill="#12100F" d="M129.817 598.041C130.257 598.608 130.206 598.519 130.296 599.257L130.343 601.052C130.458 604.968 136.474 607.527 137.336 599.952C137.45 599.505 137.451 599.318 137.671 598.971C144.36 605.747 134.156 611.652 128.938 606.113C126.164 603.17 127.274 600.539 129.817 598.041Z"/><path fill="#F8F7F6" d="M137.336 599.952C142.869 611.288 123.708 607.295 129.843 599.826L130.296 599.257L130.343 601.052C130.458 604.968 136.474 607.527 137.336 599.952Z"/><path fill="#F8F7F6" d="M169.602 608.365C170.3 610.585 170.554 617.957 175.813 612.807C176.977 611.667 175.744 609.341 176.933 608.805C178.287 609.132 178.497 611.873 178.534 612.971L178.555 613.46C173.063 619.881 166.223 615.365 169.602 608.365Z"/><path fill="#12100F" d="M169.018 607.51L169.602 608.365C166.223 615.365 173.063 619.881 178.555 613.46L179.379 614.348C173.081 623.169 163.276 613.213 169.018 607.51Z"/><path fill="#F8F7F6" d="M33.9197 581.73C37.5915 582.717 63.6478 600.144 68.8637 603.364L234.284 705.932C232.766 709.177 231.515 711.639 229.764 714.761C222.042 711.344 203.857 699.22 195.829 694.29C169.653 678.367 143.615 662.218 117.719 645.843L57.6056 608.38C50.8681 604.193 32.9001 593.737 27.9975 589.315C29.7978 586.729 31.9321 584.19 33.9197 581.73Z"/><path fill="#C4B5FD" d="M225.353 652.672C233.14 651.596 244.324 654.648 251.148 658.48C253.355 659.72 256.827 663.574 255.062 666.159C253.454 666.4 252.722 665.879 251.197 665.225L250.576 664.954C251.814 666.776 252.81 667.336 254.598 668.697C252.061 675.054 238.684 698.951 234.873 704.881L225.25 699.075C210.443 690.375 196.446 680.851 181.839 672.269C194.666 659.517 208.062 655.122 225.353 652.672Z"/><path fill="#28202B" d="M222.324 658.259C223.338 658.076 231.015 656.877 231.273 658.262C230.925 659.225 224.415 659.058 223.026 659.183L222.324 658.259Z"/><path fill="#28202B" d="M212 660.491C214.435 659.41 217.491 658.533 220.164 658.572L220.391 659.251C218.246 659.839 215.187 660.292 213.296 661.234L212 660.491Z"/><path fill="#12100F" d="M209.969 660.682L210.315 661.908C207.514 662.682 205.762 663.474 202.818 664.121C205.323 661.865 206.662 661.588 209.969 660.682Z"/><path fill="#12100F" d="M242.996 660.045C243.769 659.971 247.811 662.485 248.6 663.733C246.881 663.619 242.814 662.228 242.996 660.045Z"/><path fill="#12100F" d="M232.07 658.162C235.905 657.753 237.249 657.888 240.736 659.954C237.791 660.005 234.786 659.274 232.07 658.162Z"/><path fill="#28202B" d="M194.022 667.877C194.257 667.97 194.624 668.071 194.822 668.264C192.763 669.872 191.531 670.843 189.585 672.691C186.75 671.653 193.118 668.39 194.022 667.877Z"/><path fill="#12100F" d="M202.278 664.079C200.563 666.073 198.05 667.073 195.543 667.772C197.795 665.438 199.116 664.682 202.278 664.079Z"/><path fill="#645758" d="M220.164 658.572C220.893 658.48 221.598 658.37 222.324 658.259L223.026 659.183C222.076 659.239 221.345 659.248 220.391 659.251L220.164 658.572Z"/><path fill="#F8F7F6" d="M65.373 570.223C72.589 569.616 81.5605 571.468 88.3168 574.058C96.6516 585.618 94.8473 601.604 87.7357 613.25C83.6149 611.005 78.2562 607.544 74.1446 605.038C61.0498 596.94 48.0123 588.749 35.033 580.467C45.5096 573.801 53.0056 570.916 65.373 570.223Z"/><path fill="#F8F7F6" d="M164.206 555.574C168.701 555.309 170.672 555.282 174.929 556.687C191.974 562.312 197.773 581.714 192.261 597.622C192.14 597.972 191.809 598.282 191.463 598.389C191.07 598.271 190.263 597.066 189.951 596.7C185.418 591.372 181.879 587.326 176.303 582.884C170.532 578.288 160.263 573.838 157.151 566.972C154.398 560.899 159.067 557.392 164.206 555.574Z"/><path fill="#FED321" d="M112.467 582.509C115.135 583.649 118.058 584.946 120.807 585.795C121.606 585.194 121.523 585.676 121.98 586.492C120.594 588.907 118.654 590.733 116.456 592.417L115.727 592.991C114.555 588.838 114.044 586.615 112.467 582.509Z"/><path fill="#12100F" d="M120.807 585.795C121.606 585.194 121.523 585.676 121.98 586.492L120.807 585.795Z"/><path fill="#FBBF24" d="M129.958 588.751C132.776 589.556 135.885 590.594 138.77 591.445C138.037 592.951 137.391 594.209 136.571 595.67C136.483 595.761 134.896 597.58 134.594 597.247C132.824 595.3 131.14 591.187 129.958 588.751Z"/><path fill="#FED321" d="M167.495 597.673C168.644 597.894 169.634 598.131 170.757 598.371L176.07 599.455C175.299 601.258 174.482 603.041 173.619 604.801C173.432 605.111 173.074 605.767 172.696 605.863C172.19 605.667 168.037 598.562 167.495 597.673Z"/><path fill="#FBBF24" d="M148.326 593.773C150.868 594.193 153.074 594.782 155.517 595.599C157.271 596.185 156.005 597.51 155.358 598.633L154.926 599.399C154.319 600.066 153.768 600.736 153.17 601.398C152.167 601.182 148.896 594.868 148.326 593.773Z"/><path fill="#F8F7F6" d="M149.543 604.739C150.826 606.9 149.78 609.654 152.738 609.976C155.885 610.318 156.344 606.59 157.418 605.078C158.179 604.008 158.578 607.197 158.587 607.267C158.55 607.342 158.513 607.416 158.476 607.491L158.043 608.394C156.567 611.414 153.488 613.125 150.449 611.127C149.363 610.406 148.621 609.27 148.397 607.986C148.157 606.586 148.794 605.83 149.543 604.739Z"/><path fill="#F8F7F6" d="M111.516 593.733C112.456 595.589 111.776 596.415 112.323 597.511C116.801 606.488 120.356 591.269 119.86 599.284C117.694 601.566 115.485 603 112.372 601.17C111.3 600.551 110.545 599.501 110.3 598.287C109.908 596.341 110.491 595.306 111.516 593.733Z"/><path fill="#12100F" d="M613.32 28.623C618.765 41.2485 623.227 50.5169 633.85 59.5022C648.548 71.934 668.134 80.1969 687.517 76.4196C691.426 75.658 695.878 75.1565 699.838 74.8909C702.644 74.4294 703.434 74.96 705.797 73.6002C710.96 70.6291 719.171 74.5319 723.435 77.7662L723.791 77.8758L724.42 78.0781C729.367 79.7215 745.563 89.4982 747.264 89.6755C754.872 81.572 750.027 62.6626 745.895 53.6753C765.953 66.0709 771.517 77.0117 769.346 100.359C779.813 93.1958 784.137 83.7274 786.492 71.4409C786.794 69.8336 787.073 68.2221 787.327 66.6066C795.062 80.9718 798.175 95.873 793.564 111.894C790.504 122.523 785.635 127.885 777.686 135.152C781.794 159.744 779.029 179.437 774.97 203.562L773.849 204.055C770.481 203.857 767.6 204.481 764.277 205.025C757.041 197.134 749.619 187.78 742.588 180.356C738.578 183.474 736.68 183.859 732.007 184.893L731.55 183.821L730.009 183.898L730.162 184.999C728.722 184.991 727.282 184.975 725.842 184.951C724.191 191.685 721.785 198.035 719.833 204.598C715.216 220.125 710.376 232.782 703.73 247.482C703.164 248.431 702.54 249.069 702.568 249.98L701.274 251.912L699.377 250.998L698.91 250.901C698.204 251.454 698.154 251.499 697.347 251.876L696.462 252.3C685.526 255.583 675.335 254.82 665.514 248.907L665.382 219.04C656.353 218.376 647.317 217.802 638.277 217.317C639.02 208.44 640.912 197.304 642.129 188.328C643.9 174.765 645.582 161.19 647.174 147.605C646.445 147.406 646.402 147.357 645.704 147.294C608.02 143.878 585.698 113.884 585.529 76.8073C587.249 79.5367 589.092 82.1871 591.052 84.7502C601.319 98.0515 611.683 102.568 627.892 104.786C608.026 83.8171 603.083 55.5387 613.32 28.623Z"/><path fill="#B25423" d="M648.432 147.782C658.582 144.151 679.929 132.489 689.857 127.224C689.674 133.859 689.762 147.332 689.105 153.418C695.268 155.84 704.006 158.919 709.789 161.555C707.063 172.779 714.573 180.666 724.447 184.445L725.842 184.951C724.191 191.685 721.785 198.035 719.833 204.598C715.216 220.125 710.376 232.782 703.73 247.482C703.164 248.431 702.54 249.069 702.568 249.98L701.274 251.912L699.377 250.998L698.91 250.901C698.204 251.454 698.154 251.499 697.347 251.876L696.462 252.3C685.526 255.583 675.335 254.82 665.514 248.907L665.382 219.04C656.353 218.376 647.317 217.802 638.277 217.317C639.02 208.44 640.912 197.304 642.129 188.328C643.9 174.765 645.582 161.19 647.174 147.605L648.432 147.782Z"/><path fill="#0B0605" d="M647.174 147.605L648.432 147.782C645.423 169.315 643.331 195.071 639.584 215.939C648.692 216.655 657.811 217.224 666.937 217.648L666.684 228.535C673.309 228.391 678.785 227.78 684.993 224.846C687.077 223.861 693.724 218.358 694.909 219.097C693.022 222.422 685.148 226.838 681.536 228.025C676.857 229.563 671.695 230.004 666.786 230.046C666.804 235.793 666.668 242.847 667.003 248.473C675.745 253.684 685.971 253.73 695.649 251.336L696.166 251.203L697.347 251.876L696.462 252.3C685.526 255.583 675.335 254.82 665.514 248.907L665.382 219.04C656.353 218.376 647.317 217.802 638.277 217.317C639.02 208.44 640.912 197.304 642.129 188.328C643.9 174.765 645.582 161.19 647.174 147.605Z"/><path fill="#FF5C00" d="M724.447 184.445L725.842 184.951C724.191 191.685 721.785 198.035 719.833 204.598C715.216 220.125 710.376 232.782 703.73 247.482C703.164 248.431 702.54 249.069 702.568 249.98L701.274 251.912L699.377 250.998C699.624 248.304 705.471 238.229 706.795 234.586C712.633 218.53 717.911 202.389 722.874 186.05C723.281 184.711 723.282 184.943 724.447 184.445Z"/><path fill="#591003" d="M696.166 251.203C697.353 250.572 697.676 250.505 698.91 250.901C698.204 251.454 698.154 251.499 697.347 251.876L696.166 251.203Z"/><path fill="#12100F" d="M657.255 159.173C660.401 159.014 669.283 158.349 670.643 162.712C671.983 167.01 667.418 168.934 664.065 169.96C659.519 170.332 651.83 170.953 650.032 165.262C648.909 161.711 653.456 159.803 656.251 159.354L657.255 159.173Z"/><path fill="#0B0605" d="M653.805 178.28C656.666 178.046 668.19 177.295 669.69 180.149C669.599 181.863 661.066 178.843 660.588 180.271C660.738 180.735 662.173 181.99 662.529 182.335C662.654 183.686 662.961 185.685 662.417 186.994C662.054 187.855 661.365 188.538 660.5 188.892C659.475 189.319 658.319 189.306 657.304 188.857C651.772 186.386 655.53 181.916 655.611 180.313L655.48 180.171C654.204 179.754 652.408 181.48 651.662 179.772C651.767 178.578 652.783 178.324 653.805 178.28Z"/><path fill="#FF5C00" d="M729.859 145.305C729.98 143.75 729.776 139.59 732.573 140.217C733 140.316 733.352 140.618 733.515 141.024C733.939 142.098 733.319 144.23 732.998 145.268C743.894 147.326 749.759 157.649 748.355 168.241C747.815 172.307 745.143 175.61 742.625 178.637L742.588 180.356C738.578 183.474 736.68 183.859 732.007 184.893L731.55 183.821L730.009 183.898L730.162 184.999C728.722 184.991 727.282 184.975 725.842 184.951L724.447 184.445C714.573 180.666 707.063 172.779 709.789 161.555C710.475 161.305 710.723 161.249 711.337 160.87C713.665 151.598 719.845 145.462 729.859 145.305Z"/><path fill="#190203" d="M709.789 161.555C710.475 161.305 710.723 161.249 711.337 160.87C709.061 173.258 717.555 183.835 730.009 183.898L730.162 184.999C728.722 184.991 727.282 184.975 725.842 184.951L724.447 184.445C714.573 180.666 707.063 172.779 709.789 161.555Z"/><path fill="#190203" d="M731.55 183.821C736.456 182.945 738.912 181.934 742.625 178.637L742.588 180.356C738.578 183.474 736.68 183.859 732.007 184.893L731.55 183.821Z"/><path fill="#190203" d="M727.917 154.355C733.512 153.551 738.695 157.445 739.481 163.043C740.268 168.64 736.358 173.811 730.758 174.58C725.183 175.345 720.039 171.456 719.256 165.883C718.474 160.311 722.347 155.155 727.917 154.355Z"/><path fill="#FF5C00" d="M726.621 156.312C731.206 154.787 736.158 157.282 737.66 161.875C739.162 166.468 736.641 171.407 732.041 172.885C727.473 174.353 722.578 171.854 721.087 167.294C719.596 162.735 722.069 157.827 726.621 156.312Z"/><path fill="#FF5C00" d="M727.12 137.985C727.004 133.544 727.537 117.633 728.314 112.232C728.402 111.622 731.772 111.945 732.697 112.023C734.177 112.338 735.487 112.371 736.997 112.434C737.081 112.437 737.164 112.441 737.248 112.444C737.06 112.268 739.084 112.505 739.121 112.777C739.753 117.336 738.631 134.822 738.422 138.112C734.654 138.107 730.887 138.064 727.12 137.985Z"/><path fill="#FF5C00" d="M719.058 77.9292C719.901 76.5998 721.421 77.7659 723.435 77.7662L723.791 77.8758L724.259 78.6606C724.678 79.3515 725.265 79.9189 725.731 80.532C732.251 89.1054 734.745 99.6916 735.271 110.279C735.346 111.804 735.719 111.902 736.997 112.434C735.487 112.371 734.177 112.338 732.697 112.023C731.904 98.1303 729.657 87.5877 719.058 77.9292Z"/><path fill="#E4523D" d="M699.838 74.8909C702.644 74.4294 703.434 74.96 705.797 73.6002C710.96 70.6291 719.171 74.5319 723.435 77.7662C721.421 77.7659 719.901 76.5998 719.058 77.9292C716.04 76.2925 715.226 75.7905 711.751 75.3838C707.797 74.9268 703.816 74.762 699.838 74.8909Z"/><path fill="#F0E6D3" d="M780.82 884.557C786.623 883.23 844.647 874.947 847.337 875.785L848.457 875.173C855.631 901.741 862.642 928.352 869.488 955.005C870.467 958.792 875.437 975.924 875.433 978.689L874.582 979.348C864.428 979.372 854.275 979.303 844.122 979.14C841.066 979.091 833.994 979.2 831.41 978.812C821.992 963.091 813.671 947.139 804.757 931.183C796.252 915.958 787.761 901.041 779.584 885.601L780.82 884.557Z"/><path fill="#0B0605" d="M780.82 884.557C783.56 891.052 830.4 975.355 832.636 977.248C833.847 977.434 834.66 977.573 835.889 977.638C834.386 978.464 833.166 978.27 831.41 978.812C821.992 963.091 813.671 947.139 804.757 931.183C796.252 915.958 787.761 901.041 779.584 885.601L780.82 884.557Z"/><path fill="#0B0605" d="M848.457 875.173C855.631 901.741 862.642 928.352 869.488 955.005C870.467 958.792 875.437 975.924 875.433 978.689L874.582 979.348C873.777 978.908 873.756 979.005 873.704 978.115C873.827 975.268 869.86 961.876 868.903 958.166L855.306 906.114C852.877 897.042 849.008 884.523 847.337 875.785L848.457 875.173Z"/><path fill="#591003" d="M835.889 977.638C838.788 977.362 872.073 977.742 873.704 978.115C873.756 979.005 873.777 978.908 874.582 979.348C864.428 979.372 854.275 979.303 844.122 979.14C841.066 979.091 833.994 979.2 831.41 978.812C833.166 978.27 834.386 978.464 835.889 977.638Z"/><path fill="#190203" d="M226.401 855.829C227.14 856.131 229.171 856.507 229.319 857.265C229.29 857.328 229.261 857.391 229.231 857.454L229.054 857.161L228.491 857.65C227.635 857.581 226.805 857.517 225.963 857.352L226.401 855.829Z"/></svg>