<?xml version="1.0" encoding="utf-8" ?><svg xmlns="http://www.w3.org/2000/svg" xmlns:xlink="http://www.w3.org/1999/xlink" width="1024" height="1024" viewBox="0 0 1024 1024"><path fill="#12100F" d="M0 0L1024 0L1024 526.082L1024 536.242L1024 1024L0 1024L0 512.913L0 488.158L0 0Z"/><path fill="white" d="M0 512.913C4.8958 536.772 9.69514 553.819 25.8787 573.083C43.0336 593.502 62.3275 600.791 85.5231 612.091L145.775 641.598L360.44 747.256L608.2 869.319L684.941 907.286C697.864 913.671 717.221 923.882 730.211 928.771C748.008 935.483 767.363 936.918 785.955 932.904C810.379 927.522 835.5 912.43 848.515 890.862C859.917 871.967 870.09 850.771 880.278 831.071L934.377 726.91L989.172 621.876L1005.06 591.513C1009.53 583.028 1012.98 576.631 1016.88 567.857C1022.44 555.381 1021.36 547.522 1024 536.242L1024 1024L0 1024L0 512.913Z"/><path fill="white" d="M0 0L1024 0L1024 526.082C1022.83 521.822 1022.46 515.693 1021.63 511.188C1016.55 483.745 1001.78 456.518 980.192 438.564C961.433 422.963 936.665 414.512 915.252 403.045C890.136 390.163 864.701 377.433 839.125 365.543C837.425 350.89 834.872 339.485 820.281 332.337C809.129 326.874 797.836 321.576 786.634 316.21L717.905 283.27L510.535 183.717L418.701 139.627C402.589 131.826 383.649 121.349 366.481 115.984C361.006 114.273 354.275 118.622 349.791 121.691C328.611 112.212 304.642 97.6772 282.527 92.2202C257.811 86.1212 227.671 91.5444 206.058 105.142C193.667 112.784 183.075 123.014 175.006 135.131C165.642 149.161 155.289 171.535 147.297 187.144L101.546 276.105L40.1981 395.234C29.5538 415.927 18.2245 436.977 8.37988 458.024C4.33959 466.662 2.20009 478.61 0 488.158L0 0Z"/><path fill="white" d="M255.737 92.2075C280.845 90.3115 298.614 99.373 320.036 109.907C329.487 114.53 338.914 119.204 348.315 123.928C341.071 135.044 342.8 144.065 345.733 156.257C348.482 167.688 351.937 178.966 355.155 190.276L370.18 243.581L382.953 289.188C386.378 301.6 392.859 329.581 400.823 339.308C411.469 352.312 436.601 358.827 450.789 368.074C448.51 371.725 446.268 375.4 444.063 379.097C431.862 373.209 410.827 359.949 398.107 361.851C391.187 362.931 384.963 366.673 380.765 372.278C376.206 378.346 365.765 399.125 361.642 406.819C349.313 429.33 337.145 451.928 325.139 474.612L284.173 550.887C276.479 565.108 268.512 579.22 261.446 593.706C255.244 606.204 258.933 612.264 263.649 623.56C269.705 638.062 278.138 639.603 291.795 646.216L318.349 659.329L415.021 706.719L545.553 771.233L582.31 789.348C600.501 798.522 630.28 818.213 646.324 793.048C653.015 782.552 659.084 769.601 664.983 758.493L699.827 693.238C714.114 667.033 728.183 640.71 742.032 614.271C748.735 601.613 756.657 587.754 762.345 574.781C764.991 566.956 766.42 553.276 765.008 545.454C762.901 536.272 754.097 530.78 746.468 526.907C731.426 519.271 715.786 512.913 701.204 504.581C703.415 500.534 706.029 496.357 708.417 492.386C723.856 497.506 744.315 511.739 760.824 516.079C765.478 517.331 773.594 517.257 777.563 514.12C785.791 507.617 791.135 490.383 794.938 480.814L809.44 444.699L826.645 402.29C831.044 391.497 836.684 379.072 839.037 367.863L918.901 407.273C954.498 424.611 977.793 431.09 1001.12 465.661C1012.64 483.514 1019.49 503.979 1021.02 525.17C1022.37 546.207 1018.04 562.636 1008.05 580.95C1002.28 591.523 996.705 602.527 991.12 613.226L945.555 700.734L883.826 819.439L865.533 854.982C857.224 871.234 849.953 887.108 837.781 901.008C821.318 919.809 796.074 931.253 771.25 932.747C756.476 933.627 741.691 931.19 727.981 925.613C717.758 921.404 705.237 914.868 695.195 909.863L647.85 886.395L492.898 810.05L175.212 653.653L102.251 617.638C84.0756 608.733 52.1828 595.109 38.093 582.59C16.732 563.3 3.84022 536.365 2.21536 507.629C1.31528 491.521 3.95215 475.412 9.94081 460.433C15.1343 447.225 26.9748 425.838 33.7389 412.743L75.2781 332.061L140.39 205.599L158.655 169.839C166.08 155.182 174.259 137.266 185.219 125.172C203.653 104.831 228.444 93.6191 255.737 92.2075Z"/><path fill="#12100F" d="M881.932 468.476C892.468 468.648 893.954 474.251 894.126 483.446C905.038 473.676 912.325 477.957 913.624 491.796C925.525 484.773 930.103 488.226 932.016 501.123C944.177 493.203 949.728 499.67 950.09 512.429C962.009 504.291 967.523 507.564 969.58 521.272C973.836 518.708 979.477 515.929 983.729 519.311C989.94 524.251 987.108 532.095 985.841 537.696C985.442 539.462 987.209 550.678 987.611 552.711L987.744 553.353C990.434 555.182 992.674 556.217 995.588 557.648C992.465 564.892 986.306 575.641 982.364 582.663L960.339 621.802C946.991 646.038 933.475 670.181 919.79 694.229C910.72 710.407 902.238 726.518 892.462 742.305L882.895 737.523C840.961 716.535 795.75 695.624 754.778 673.754C757.674 670.18 760.108 666.172 762.558 662.278C759.328 660.77 756.112 659.234 752.909 657.669C765.45 636.693 778.498 611.841 790.526 590.302C811.416 553.416 831.915 516.309 852.02 478.989C856.202 477.171 859.665 475.638 863.722 473.491C866.464 474.469 869.444 475.944 872.117 477.174C875.787 472.153 876.411 471.508 881.932 468.476Z"/><path fill="#C4B5FD" d="M864.279 476.022C866.968 477.078 868.775 478.251 871.224 479.723C869.344 483.925 861.653 495.927 871.072 496.89C873.133 497.1 874.174 497.105 875.912 495.806C878.908 491.146 874.766 486.125 877.569 482.859C878.91 483.14 887.956 487.63 890.663 488.741C890.042 490.573 889.556 492.306 888.297 493.844C886.309 496.272 882.838 501.399 885.244 504.506C886.833 506.56 892.446 507.662 894.505 505.676C897.698 502.598 893.988 495.796 896.835 493.144C899.566 493.552 905.791 497.467 908.357 498.946C906.654 502.317 898.701 515.735 907.493 516.103C909.635 516.176 911.721 515.417 913.315 513.986C914.19 511.12 913.986 505.657 914.113 502.324C918.909 504.037 922.259 506.127 926.626 508.622C924.571 513.777 916.337 524.412 927.446 525.743C929.114 525.943 930.164 525.467 931.434 524.378C933.101 521.268 930.778 514.923 933.336 512.708C935.26 513.293 943.525 517.751 946.294 519.046C943.715 522.615 934.586 536.671 948.639 535.398C951.838 535.108 950.705 526.552 952.317 523.234C952.625 523.071 952.934 522.909 953.243 522.746C957.707 524.576 960.268 526.776 964.984 527.932C962.791 532.633 957.366 538.926 960.639 544.135C964.744 547.206 968.55 544.282 971.538 541.364C970.524 538.513 968.74 535.317 971.913 533.461C973.653 533.399 974.827 533.65 976.379 534.522C983.258 538.392 986.742 540.602 982.897 548.67C976.115 562.901 968.087 576.428 960.349 590.137L923.666 655.823C910.88 677.643 899.254 699.967 886.524 721.818C844.607 699.314 798.97 678.58 756.281 656.508C766.27 639.09 775.581 621.623 785.276 604.062L824.811 533.106L841.321 503.159C845.15 496.194 849.123 488.569 853.81 482.159C855.763 479.489 861.21 477.402 864.279 476.022Z"/><path fill="#12100F" d="M861.399 512.482C872.788 519.008 886.432 525.412 898.33 531.457L952.695 559.586C951.043 563.014 948.933 566.81 947.06 570.138C936.909 588.176 927.537 607.296 916.64 624.888C900.52 617.426 885.549 609.108 869.782 601.136C854.776 593.55 839.92 586.587 824.99 578.703C828.812 570.267 834.551 560.489 839.1 552.354L861.399 512.482Z"/><path fill="#12100F" d="M788.609 641.946C791.724 641.867 807.192 649.825 810.652 651.523C821.095 656.633 831.508 661.803 841.891 667.033C854.239 673.258 867.554 679.77 879.552 686.725C881.077 687.609 881.026 687.93 881.716 689.419C877.538 688.384 857.788 677.799 852.585 675.188C832.932 665.327 812.86 655.593 793.369 645.386C791.434 644.373 790.122 643.554 788.609 641.946Z"/><path fill="#12100F" d="M797.214 625.448C799.469 625.71 807.691 629.398 809.641 630.614C822.049 638.352 887.441 666.615 891.971 672.519C889.223 672.848 886.53 671.374 884.084 670.164C856.93 656.723 829.727 643.319 802.774 629.483C800.723 628.43 798.808 627.103 797.214 625.448Z"/><path fill="#12100F" d="M815.218 593.484C818.507 593.421 832.42 600.507 836.12 602.299L864.567 616.23C878.504 623.118 893.131 630.178 906.782 637.68C907.929 638.31 908.329 638.813 908.844 639.951C904.157 639.072 818.887 596.809 815.218 593.484Z"/><path fill="#12100F" d="M806.589 609.055C811.999 610.51 820.268 615.006 825.426 617.588L851.284 630.566C866.335 638.094 881.871 645.503 896.743 653.397C898.313 654.23 899.023 654.784 899.77 656.331C895.169 655.158 884.049 649.315 879.126 646.887L841.669 628.267L819.116 616.96C815.489 615.139 811.573 613.251 808.046 611.236C806.562 610.388 806.862 610.432 806.589 609.055Z"/><path fill="white" d="M990.773 559.373C991.303 563.638 968.53 602.141 964.972 608.505C952.028 632.102 938.867 655.579 925.49 678.934C919.759 688.855 914.153 698.848 908.672 708.909C904.031 717.429 898.749 727.651 893.493 735.691L893.17 734.686C893.953 730.41 907.402 706.898 910.184 701.933L956.747 620.161C965.752 604.168 974.751 588.221 983.24 571.949C985.451 567.712 988.199 563.397 990.773 559.373Z"/><path fill="white" d="M986.696 556.843C987.333 557.528 987.109 557.243 987.388 558.232C985.334 564.16 979.677 573.929 976.479 579.554L959.619 609.151L892.71 728.641L892.232 728.084C892.818 721.96 936.483 647.169 942.776 635.762C955.681 612.371 973.075 580.172 986.696 556.843Z"/><path fill="white" d="M761.05 668.036C765.594 668.539 888.75 729.877 890.921 732.537C887.341 732.366 869.631 723.389 865.273 721.269L825.145 701.577L785.112 681.62C781.165 679.645 762.416 671.014 761.05 668.036Z"/><path fill="white" d="M984.365 552.443C985.261 553.912 983.934 556.48 983.205 557.823C976.187 570.737 968.961 583.536 961.758 596.348L925.542 660.805L903.734 699.772C899.635 707.164 894.331 717.454 889.751 724.146L889.104 723.268C890.283 718.93 898.704 705.225 901.411 700.475L922.287 663.448L963.525 589.673C969.963 578.112 977.448 563.218 984.365 552.443Z"/><path fill="white" d="M763.877 663.392C768.212 664.887 775.505 669.035 779.802 671.188L811.276 686.931L858.178 710.355C867.431 714.935 876.792 719.45 885.967 724.184C887.94 725.202 888.163 725.264 888.917 726.972C880.495 725.342 779.278 672.403 764.303 665.671C763.764 665.428 763.916 664.253 763.877 663.392Z"/><path fill="white" d="M758.544 672.07C764.983 673.427 774.226 678.709 780.368 681.779L804.577 693.756L859.861 721.153C864.111 723.268 889.129 735.054 891.105 737.719C887.532 737.509 768.342 678.573 758.544 672.07Z"/><path fill="#FBBF24" d="M938.169 500.018L938.902 499.979C945.853 499.658 947.551 503.428 948.206 510.162C948.383 511.982 947.678 516.006 945.217 515.751C943.328 511.798 946.644 505.763 941.993 502.543C939.205 502.146 938.092 503 935.752 504.629L935.238 504.992C926.303 514.866 931.015 517.277 928.472 521.174L927.586 520.886C922.834 513.256 931.914 503.738 938.169 500.018Z"/><path fill="#FBBF24" d="M920.731 490.033C921.058 490.027 921.385 490.025 921.712 490.026C929.916 490.086 932.658 501.451 926.833 506.439L926.027 506.349C924.559 502.104 927.868 495.731 923.681 492.396C920.75 491.969 919.161 493.607 916.833 495.336C915.404 496.914 913.084 499.77 912.384 501.781C911.414 504.567 912.035 509.829 909.699 511.819L909.201 511.568C907.608 508.932 907.845 508.154 908.458 505.157C910.019 497.532 914.405 493.765 920.731 490.033Z"/><path fill="#FBBF24" d="M978.125 519.385C979.628 519.724 981.572 520.05 982.626 521.184C986.231 525.065 987.164 531.365 983.417 535.312L982.431 535.097C980.084 532.177 984.349 523.914 979.337 521.576C976.492 521.85 973.631 524.597 971.707 526.57C968.324 531.292 968.778 532.977 967.375 538.565C966.996 540.076 966.897 540.692 965.772 541.323L965.046 540.454C962.827 530.908 969.721 522.862 978.125 519.385Z"/><path fill="#FBBF24" d="M959.339 510.007C964.237 510.819 965.057 511.917 966.939 516.502C968.071 519.262 968.077 524.52 964.558 525.345C962.664 522.071 966.126 503.765 953.177 517.117L952.706 517.61C947.444 525.398 949.54 529.896 947.753 532.46L947.002 532.247C944.545 528.441 946.002 523.927 947.843 520.05C950.33 514.812 953.902 511.92 959.339 510.007Z"/><path fill="#FBBF24" d="M902.297 479.965C912.857 480.05 913.24 495.509 907.731 496.01C905.812 492.359 909.922 484.268 904.539 482.774C901.631 483.244 899.957 484.824 897.867 486.761L897.33 487.266C890.794 494.856 894.536 500.099 891.547 503.013L890.436 502.408C889.31 500.649 889.692 498.413 890.156 496.428C891.83 489.268 896.263 483.801 902.297 479.965Z"/><path fill="#FBBF24" d="M882.682 471.077C891.523 469.845 894.514 480.084 890.397 485.89L889.293 485.882C887.291 483.057 890.626 474.729 884.61 472.765C881.853 473.194 879.894 474.897 877.965 476.816C876.858 478.728 875.928 480.31 875.271 482.429C874.525 484.837 874.345 490.502 873.155 492.326C870.195 491.052 871.778 484.024 872.711 481.717C874.907 476.282 877.455 473.541 882.682 471.077Z"/><path fill="white" d="M939.951 503.855C944.165 504.791 943.264 512.353 940.734 513.955L939.222 513.443L933.768 509.591C936.169 506.881 936.997 505.985 939.951 503.855Z"/><path fill="white" d="M883.104 474.758C887.041 475.787 888.496 482.574 884.2 483.819C881.529 482.205 880.681 481.433 878.42 479.419C879.847 477.793 881.534 476.26 883.104 474.758Z"/><path fill="white" d="M921.699 494.346L922.684 494.81C924.237 496.996 924.879 501.909 922.284 503.475L920.771 502.935L915.476 499.739C917.915 497.246 918.887 496.414 921.699 494.346Z"/><path fill="white" d="M959.22 514.865C962.621 515.877 962.9 521.9 960.725 523.649L959.255 523.202C957.424 522.018 955.596 520.692 953.805 519.436C956.052 517.042 956.537 516.675 959.22 514.865Z"/><path fill="#EAE8E7" d="M899.805 487.748C901.268 486.468 902.202 485.311 904.066 485.033C906.007 486.288 905.588 487.565 905.55 489.781C905.466 491.206 905.375 491.329 904.935 492.711L903.765 493.283C900.979 493.262 899.028 492.313 898.442 489.423L899.805 487.748Z"/><path fill="white" d="M899.805 487.748C901.268 486.468 902.202 485.311 904.066 485.033C906.007 486.288 905.588 487.565 905.55 489.781L904.722 490.776C902.817 490.515 901.357 488.998 899.805 487.748Z"/><path fill="white" d="M977.398 524.346C978.874 524.538 978.312 524.381 979.63 525.253C980.879 527.61 980.746 531.15 978.956 533.183L977.745 532.923L972.475 529.392C974.459 526.82 974.819 526.399 977.398 524.346Z"/><path fill="#12100F" d="M220.501 247.709C243.407 245.974 272.103 255.566 286.904 273.657C291.393 279.145 294.255 286.541 296.704 293.117C302.252 297.085 307.53 301.416 312.505 306.081C346.761 338.831 348.342 387.549 314.808 421.544C290.81 445.871 258.128 457.206 224.375 457.576C213.121 457.876 201.875 456.739 190.909 454.193C149.731 444.664 108.565 414.653 107.277 368.825C107.156 364.521 107.588 360.254 107.551 356.003C107.5 350.166 106.011 344.166 107.568 338.386C109.367 331.339 113.912 329.073 118.005 323.859C120.519 320.656 122.802 316.658 125.374 313.374C132.799 303.896 141.322 297.056 151.679 291.167C164.228 259.548 188.594 250.632 220.501 247.709Z"/><path fill="#FF5C00" d="M296.826 295.771C319.734 309.398 337.052 337.869 336.688 364.764C336.03 423.01 274.13 456.657 221.717 455.502C185.335 454.701 154.5 443.004 128.998 416.741C112.221 396.957 109.371 383.301 109.511 357.838C122.638 379.81 145.266 380.256 168.379 379.581C173.024 387.535 177.384 394.645 184.197 400.939C195.507 411.49 210.614 417.003 226.062 416.215C257.794 414.672 277.546 390.015 286.681 361.783C293.641 340.269 298.074 318.428 296.826 295.771Z"/><path fill="#FF5C00" d="M293.373 320.483C294.086 321.881 293.299 325.661 293.029 327.266C287.894 357.743 276.676 395.698 246.049 409.312C232.722 415.359 217.525 415.806 203.866 410.552C183.201 402.444 173.687 386.576 165.31 367.309C161.028 356.003 154.714 332.171 154.066 320.381C155.889 323.584 157.864 326.889 160.003 329.869C185.03 364.736 247.137 367.581 278.205 339.713C284.631 333.95 288.916 327.756 293.373 320.483Z"/><path fill="#FF5C00" d="M218.279 255.703C250.45 253.233 295.019 272.807 290.695 312.786C290.085 318.431 286.908 324.56 284.087 329.462C285.025 301.636 258.482 289.004 234.885 284.955C212.597 281.856 184.112 286.791 168.457 304.337C162.647 310.849 160.893 316.702 159.493 325.09C158.218 320.244 156.791 315.306 156.438 310.309C153.937 274.912 188.867 258.431 218.279 255.703Z"/><path fill="#FF5C00" d="M136.239 323.204C140.769 322.683 147.058 323.264 151.723 323.608L154.253 335.369C145.677 335.596 132.881 333.493 125.765 339.143C120.259 343.514 120.501 354.141 125.546 358.859C134.627 367.352 150.631 365.665 162.015 365.506L165.5 373.432L167.216 377.407C148.756 377.52 126.788 377.446 114.487 361.286C104.129 347.68 107.891 328.132 125.887 324.295C129.381 323.55 132.68 323.425 136.239 323.204Z"/><path fill="#FF5C00" d="M133.287 337.571C140.407 337.444 147.528 337.361 154.649 337.321C156.586 345.967 158.785 354.552 161.244 363.064L151.284 363.237C145.773 363.214 136.291 363.289 131.749 360.721C120.756 354.504 120.55 341.629 133.287 337.571Z"/><path fill="#FF5C00" d="M152.968 298.477C154.179 286.256 161.3 274.44 170.861 266.856C188.826 252.605 214.004 248.252 236.367 250.661C264.566 253.698 299.371 274.66 295.142 307.249C294.749 310.28 293.992 314.17 292.847 316.985C293.532 309.67 294.053 303.898 291.975 296.715C278.244 249.242 206.925 241.443 172.777 270.159C162.062 279.169 156.443 290.043 153.753 303.469C152.919 302.223 153.041 300.087 152.968 298.477Z"/><path fill="#FF5C00" d="M150.172 294.888L150.493 294.938C151.491 295.906 150.41 301.011 150.425 302.956C150.471 309.194 151.259 315.272 151.551 321.507C143.226 320.969 132.69 320.567 124.533 322.126L122.986 322.228L122.678 321.581C124.733 313.206 143.091 299.485 150.172 294.888Z"/><path fill="#5E5555" d="M152.968 298.477C153.041 300.087 152.919 302.223 153.753 303.469C153.936 308.589 154.518 312.554 154.409 317.956C152.757 310.769 151.815 305.837 152.968 298.477Z"/><path fill="#12100F" d="M841.567 741.442C846.699 740.61 849.157 751.213 849.922 754.821L840.468 759.707L842.941 764.879C833.082 775.935 815.399 782.602 802.342 789.262C795.323 792.843 788.435 796.525 781.485 800.24C780.065 797.124 779.823 796.408 779.068 793.069C763.96 801.687 748.443 809.317 733.305 817.795C721.067 824.648 708.69 832.952 695.849 838.9C690.371 841.437 679.591 844.389 673.364 846.256C668.163 847.794 663.379 849.238 658.243 851.027C665.934 842.722 676.958 829.549 685.342 822.794C688.96 819.879 703.902 812.48 708.777 809.978L745.724 790.918L808.833 758.277C819.077 752.974 831.282 746.138 841.567 741.442Z"/><path fill="white" d="M835.514 762.046L835.804 762.833C830.18 770.34 793.529 788.057 783.755 793.022C783.566 792.869 783.155 792.246 782.991 792.017C784.194 788.125 828.661 765.757 835.514 762.046Z"/><path fill="white" d="M691.278 821.553C697.734 823.897 699.95 828.484 699.852 835.068C697.666 834.941 698.018 834.115 697.791 832.058C697.267 827.325 694.432 824.747 691.278 821.553Z"/><path fill="white" d="M687.672 823.492C693.697 825.61 696.018 832.134 695.452 838.088C693.651 836.23 693.814 833.391 692.511 830.641C690.919 827.285 690.081 826.322 687.672 823.492Z"/><path fill="white" d="M698.968 816.872C706.374 817.211 707.582 824.691 707.007 830.717C705.615 829.636 705.64 825.11 705.434 823.202C703.382 820.973 701.17 818.952 698.968 816.872Z"/><path fill="white" d="M713.196 809.873C719.036 811.418 721.597 818.425 722.597 823.713C720.975 822.876 718.528 815.912 716.851 813.865C715.519 812.24 714.709 811.379 713.196 809.873Z"/><path fill="white" d="M695.32 819.522C701.727 821.157 703.183 826.562 703.371 832.58C700.815 829.748 701.807 825.444 695.32 819.522Z"/><path fill="white" d="M703.657 815.471C709.53 817.514 711.317 822.662 711.333 828.467C709.184 827.587 710.347 824.357 709.011 821.75C707.715 819.221 705.652 817.456 703.657 815.471Z"/><path fill="#12100F" d="M205.723 138.395L206.352 138.938C206.41 140.959 196.035 149.608 195.179 156.551C193.699 161.705 194.569 176.423 199.045 180.528C215.874 195.962 222.821 215.043 197.533 230.094C196.498 229.305 196.643 228.629 197.593 227.853C204.666 222.076 210.265 218.995 211.445 209.005C213.734 195.194 203.758 191.487 197.808 182.779C187.45 167.619 191.807 148.344 205.723 138.395Z"/><path fill="#12100F" d="M251.273 138.879L252.192 139.476C251.506 142.417 241.661 149.428 240.662 157.949C238 173.405 244.856 179.151 253.499 189.99C267.065 207.005 257.302 220.413 242.871 230.543L242.375 230.259L242.134 229.326C243.138 227.749 245.217 226.481 246.787 225.387C252.395 221.477 256.162 215.295 257.007 208.485C258.594 195.682 250.71 191.104 243.939 182.371C238.897 175.869 236.992 166.928 238.391 158.876C240.04 149.393 243.744 144.422 251.273 138.879Z"/><path fill="#12100F" d="M228.125 138.905L228.669 139.201C229.164 141.657 223.109 146.076 221.52 148.895C214.417 161.636 216.567 176.042 227.009 186.182C244.18 202.855 237.751 218.451 220.789 230.14L220.228 229.557C220.42 225.429 233.145 220.988 234.263 209.78C235.854 193.832 228.965 193.851 221.569 183.883C216.383 176.882 214.217 168.095 215.554 159.484C216.863 150.903 221.236 144.055 228.125 138.905Z"/><path fill="#12100F" d="M850.196 741.397C857.198 741.551 856.303 744.942 852.963 749.455C850.939 749.236 848.738 746.634 848.524 744.616C848.343 742.908 849.162 742.558 850.196 741.397Z"/><path fill="#FBBF24" d="M399.799 363.602C410.805 363.289 425.595 372.321 435.487 377.225L475.147 396.765L602.926 459.327L704.213 508.89L735.272 523.937C740.533 526.464 746.851 529.114 751.792 531.98C776.253 546.17 756.452 572.343 747.228 589.56L717.87 644.509L669.448 734.777C660.964 750.616 652.91 766.711 643.891 782.236C638.94 790.758 635.051 792.266 625.672 794.595C610.321 794.648 600.324 787.503 586.985 780.868L550.475 762.918L420.947 699.177C386.275 682.456 351.727 665.478 317.306 648.245L287.713 633.707C282.082 630.948 275.933 628.08 270.571 624.878C265.7 621.97 261.707 615.835 260.735 610.263C259.848 605.179 260.938 599.967 263.138 595.302C270.43 580.684 278.427 566.141 286.172 551.76L330.128 470.077L363.474 407.887C368.176 399.055 372.72 390.102 377.512 381.315C383.1 371.069 387.981 365.899 399.799 363.602Z"/><path fill="#12100F" d="M400.575 397.727C411.676 402.433 425.161 409.879 436.298 415.388L507.309 450.405L733.218 561.923C727.773 573.482 717.217 591.053 710.633 603.041L663.085 689.765C654.12 686.516 635.914 676.948 626.606 672.313L558.783 638.501L330.549 525.406C351.389 489.536 369.854 452.355 390.513 416.383C394.034 410.253 397.387 404.036 400.575 397.727Z"/><path fill="#FBBF24" d="M449.236 551.225C454.072 554.584 461.671 558.069 467.081 560.712L492.721 573.224L573.13 613.023L560.059 636.731C549.91 632.986 532.23 623.307 521.787 618.182C493.128 604.28 464.631 590.045 436.302 575.482L449.236 551.225Z"/><path fill="#FBBF24" d="M691.353 575.67C697.998 577.967 710.026 584.781 716.338 588.232C712.19 596 707.937 603.713 703.582 611.367C696.243 608.171 685.766 602.888 678.815 599.038C683.131 591.323 687.311 583.532 691.353 575.67Z"/><path fill="#FBBF24" d="M346.901 501.146C352.973 503.49 364.471 509.883 371.544 513.124C367.093 520.93 363.237 528.764 358.596 536.656C350.085 532.916 341.706 528.883 333.473 524.565C338.079 516.964 342.512 508.9 346.901 501.146Z"/><path fill="#FBBF24" d="M402.113 400.223C409.189 404.548 419.112 409.134 426.623 412.807C422.595 420.691 418.261 428.415 413.631 435.962C405.268 432.458 396.924 428.025 388.888 423.827C393.159 415.883 397.568 408.013 402.113 400.223Z"/><path fill="#FBBF24" d="M705.253 550.662C713.807 554.554 722.309 558.454 730.448 563.172C726.265 570.799 721.957 578.356 717.526 585.841C711.959 584.265 698.49 576.735 692.688 573.635C696.525 566.143 701.226 558.39 705.253 550.662Z"/><path fill="#FBBF24" d="M650.275 651.243C657.318 655.414 667.211 659.951 674.72 663.586C670.847 671.461 666.118 679.592 661.807 687.292C653.862 682.629 645.49 679.562 637.367 674.921C641.379 666.595 645.648 659.255 650.275 651.243Z"/><path fill="#FBBF24" d="M387.611 425.725C394.229 429.499 405.351 434.549 412.585 438.106C408.675 445.977 404.246 453.626 399.919 461.28C391.906 456.926 382.818 453.081 375.135 448.727L387.611 425.725Z"/><path fill="#FBBF24" d="M677.595 601.037C684.725 603.906 695.434 609.523 702.409 613.114C698.26 620.985 694.022 628.81 689.696 636.585L665.263 624.514C668.859 617.08 673.699 608.498 677.595 601.037Z"/><path fill="#FBBF24" d="M374.091 450.314C379.657 454.069 392.108 459.694 398.693 463C394.981 470.569 390.447 478.658 386.438 486.141C378.37 481.903 369.932 478.652 361.783 473.984C365.425 466.395 370.15 457.864 374.091 450.314Z"/><path fill="#FBBF24" d="M360.461 476.056C367.564 479.029 378.196 484.631 385.42 488.156L372.599 510.924C366.176 508.838 353.768 502.348 347.859 499.063C351.844 491.464 356.323 483.622 360.461 476.056Z"/><path fill="#FBBF24" d="M664.017 626.329C672.14 630.432 680.549 634.408 688.749 638.392L675.82 661.789C667.86 657.509 659.486 653.47 651.373 649.443L664.017 626.329Z"/><path fill="#FBBF24" d="M373.318 513.802C377.798 516.826 391.401 523.011 396.87 525.625C393.201 532.988 387.816 541.935 383.695 549.131C376.206 545.96 367.65 541.375 360.408 537.651C364.675 530.521 369.246 521.297 373.318 513.802Z"/><path fill="#FBBF24" d="M599.742 626.341C605.28 629.935 616.778 634.941 623.178 637.905C620.108 644.802 614.103 654.584 610.166 661.289C603.635 658.895 592.918 653.298 586.747 650.004C591.268 642.309 595.507 634.216 599.742 626.341Z"/><path fill="#FBBF24" d="M423.666 539.246C430.775 543.237 439.443 546.72 447.023 550.556C442.942 558.514 438.746 566.413 434.437 574.25C428.729 572.223 416.976 565.913 411.115 562.921C415.387 555.077 419.571 547.185 423.666 539.246Z"/><path fill="#FBBF24" d="M574.917 614.043C582.557 617.536 590.366 621.58 597.906 625.354L584.958 649.109C577.779 646.216 568.79 641.397 561.722 637.819C566.544 630.208 570.528 621.965 574.917 614.043Z"/><path fill="#FBBF24" d="M576.917 551.136C582.065 552.939 595.185 559.796 600.491 562.488L587.675 585.775C580.655 582.818 571.392 577.857 564.291 574.409C567.724 567.291 573.021 558.371 576.917 551.136Z"/><path fill="#FBBF24" d="M515.124 488.719C518.694 489.972 534.272 498.051 538.627 500.151C534.344 507.907 530.105 515.687 525.909 523.491C518.097 520.042 510.042 515.8 502.384 511.924L515.124 488.719Z"/><path fill="#FBBF24" d="M630.17 513.271C635.163 516.552 647.658 522.201 653.512 525.038L640.641 547.949C633.153 544.983 624.216 540.216 616.934 536.531C620.497 529.404 626.121 520.262 630.17 513.271Z"/><path fill="#FBBF24" d="M604.702 500.735C612.488 504.772 620.339 508.683 628.251 512.466C623.762 520.024 619.371 527.821 614.969 535.446C611.158 534.425 596.119 526.203 591.965 523.962C595.944 516.189 600.433 508.376 604.702 500.735Z"/><path fill="#FBBF24" d="M425.911 476.413C433.848 480.171 441.43 483.698 449.147 487.901C445.356 495.683 440.757 503.729 436.488 511.251C428.939 507.023 420.925 503.936 413.378 499.551C417.422 491.926 421.561 483.823 425.911 476.413Z"/><path fill="#FBBF24" d="M398.84 526.723C406.209 530.823 414.285 534.593 421.891 538.242C417.632 546.098 413.328 553.93 408.979 561.737C401.441 558.573 392.897 553.981 385.684 550.072C390.186 542.355 394.572 534.572 398.84 526.723Z"/><path fill="#FBBF24" d="M554.193 475.72C561.669 479.861 569.843 483.662 577.569 487.402C573.258 495.132 569.02 502.901 564.852 510.709C557.294 506.539 549.037 503.38 541.436 499.086C545.559 491.227 549.812 483.438 554.193 475.72Z"/><path fill="#FBBF24" d="M588.385 588.673C594.915 591.305 605.403 596.958 611.908 600.23C607.662 607.957 603.369 615.659 599.029 623.334C593.607 621.329 581.453 614.9 575.797 612.073C580.119 604.342 584.315 596.54 588.385 588.673Z"/><path fill="#FBBF24" d="M563.152 576.203C570.928 580.102 578.766 583.874 586.664 587.518C582.715 595.184 578.128 603.208 573.959 610.806C568.453 608.975 556.263 602.323 550.612 599.365C553.096 593.829 559.996 582.059 563.152 576.203Z"/><path fill="#FBBF24" d="M638.834 613.709C646.698 617.582 654.357 621.313 662.181 625.313C658.047 633.03 653.808 640.69 649.464 648.291C646.908 647.917 629.749 638.918 626.216 637.113C630.503 629.356 634.709 621.554 638.834 613.709Z"/><path fill="#FBBF24" d="M501.428 513.775C509.124 517.762 517.204 521.545 525.028 525.318C521.036 532.922 516.843 540.418 512.451 547.798C510.2 548.278 492.321 538.53 488.985 536.805C493.075 529.018 496.915 521.336 501.428 513.775Z"/><path fill="#FBBF24" d="M490.387 475.97C495.769 479.558 507.369 484.886 513.406 487.607C509.384 495.362 505.179 503.562 500.571 510.968C492.842 507.602 484.974 503.355 477.544 499.394C481.877 491.528 485.83 483.745 490.387 475.97Z"/><path fill="#FBBF24" d="M641.338 550.799C645.36 553.744 659.559 559.934 664.805 562.34C661.124 569.789 655.877 578.257 651.695 585.681C645.099 581.95 635.326 577.412 628.335 573.884L641.338 550.799Z"/><path fill="#FBBF24" d="M453.636 426.247C461.365 430.151 469.137 433.968 476.952 437.698C472.525 445.41 468.207 453.183 463.999 461.016C456.5 456.952 448.183 453.167 440.44 449.482L453.636 426.247Z"/><path fill="#FBBF24" d="M625.349 638.724L648.198 650.465C644.251 658.181 639.477 666.108 635.373 673.932C630.204 672.056 617.711 665.177 612.331 662.385C616.721 654.526 621.061 646.639 625.349 638.724Z"/><path fill="#FBBF24" d="M540.376 500.966C546.419 504.687 556.951 508.991 563.788 512.351L551.115 535.815C543.957 531.944 535.225 527.925 527.804 524.542C531.779 516.776 535.85 508.354 540.376 500.966Z"/><path fill="#FBBF24" d="M513.037 551.453C520.825 555.165 528.592 558.92 536.338 562.717C532.924 570.098 527.653 578.771 523.518 585.758C518.29 584.027 505.545 577.195 500.486 574.376C504.214 566.987 509.007 558.807 513.037 551.453Z"/><path fill="#FBBF24" d="M613.724 601.248C619.248 604.754 630.72 609.871 636.986 612.807C633.309 620.17 628.403 628.518 624.352 635.799C617.699 633.447 607.471 627.936 600.928 624.578C604.54 617.206 609.679 608.64 613.724 601.248Z"/><path fill="#FBBF24" d="M487.957 538.537C495.042 542.721 503.661 546.67 511.138 550.307C507.662 557.579 502.472 566.287 498.399 573.253C490.996 570.2 482.652 565.811 475.545 562.128C478.78 554.997 483.964 545.125 487.957 538.537Z"/><path fill="#FBBF24" d="M615.81 538.256C623.519 542.328 631.313 546.236 639.188 549.975C635.27 557.824 630.615 565.045 626.719 573.289C618.752 569.786 610.998 565.578 603.316 561.484C607.568 553.789 611.734 546.046 615.81 538.256Z"/><path fill="#FBBF24" d="M579.268 488.229C585.908 492.197 595.848 496.636 602.884 499.91C598.835 507.657 594.333 515.179 590.22 523.131C582.271 519.522 574.446 515.646 566.759 511.51C571.201 503.893 575.199 496.05 579.268 488.229Z"/><path fill="#FBBF24" d="M428.526 413.755C435.478 417.725 444.794 421.858 452.135 425.297L438.948 447.719C436.187 447.94 419.372 439.136 415.65 437.266C419.513 429.678 424.382 421.294 428.526 413.755Z"/><path fill="#FBBF24" d="M387.33 488.887C392.483 492.173 404.565 497.719 410.233 500.437C406.25 508.275 402.129 516.042 397.874 523.735C390 519.915 382.161 516.021 374.36 512.052C378.547 504.255 382.87 496.532 387.33 488.887Z"/><path fill="#FBBF24" d="M602.411 563.527C610.239 567.367 618.002 571.339 625.696 575.44L612.968 598.115C604.979 594.508 597.094 590.673 589.325 586.613L602.411 563.527Z"/><path fill="#FBBF24" d="M565.419 513.694C570.147 515.207 583.979 522.572 589.102 525.191C584.776 532.294 580.518 540.263 576.471 547.583L576.077 547.847C573.396 547.773 556.754 538.615 553.183 536.739C557.316 529.086 561.395 521.404 565.419 513.694Z"/><path fill="#FBBF24" d="M437.45 514.061C444.024 516.835 454.557 522.234 460.867 525.511C456.947 533.032 452.131 541.219 447.958 548.692C440.241 544.809 432.344 541.259 424.773 537.099L437.45 514.061Z"/><path fill="#FBBF24" d="M528.964 463.613C535.449 466.034 545.76 471.582 552.076 474.792C548.06 482.697 543.868 490.51 539.502 498.227C531.861 494.724 524.068 490.481 516.199 486.847C520.609 479.188 524.865 471.442 528.964 463.613Z"/><path fill="#FBBF24" d="M465.172 463.862C470.693 467.046 482.012 472.025 488.157 474.972C484.595 482.443 479.645 491.144 475.414 498.253C467.753 494.771 459.495 490.518 451.878 486.812C456.466 479.357 460.831 471.485 465.172 463.862Z"/><path fill="#FBBF24" d="M538.199 563.701C545.9 567.304 553.676 571.457 561.249 575.381C557.098 583.12 552.892 590.828 548.63 598.506C540.895 594.536 533.118 590.647 525.301 586.839C529.634 579.462 534.004 571.229 538.199 563.701Z"/><path fill="#FBBF24" d="M627.371 575.969C634.758 580.199 642.825 583.788 650.523 587.537C647.126 594.881 642.002 603.669 638.001 610.856L614.612 599.263C618.939 591.686 623.197 583.65 627.371 575.969Z"/><path fill="#FBBF24" d="M551.884 538.654C558.852 541.579 568.218 546.644 575.134 550.138C570.965 557.733 566.742 565.299 562.467 572.835C557.73 571.793 544.273 564.446 539.192 561.809C543.496 554.131 547.727 546.412 551.884 538.654Z"/><path fill="#FBBF24" d="M652.491 588.418C658.329 591.338 670.87 597.142 675.892 600.336C671.589 607.941 667.352 615.583 663.181 623.262C655.469 619.335 647.7 615.523 639.876 611.825L652.491 588.418Z"/><path fill="#FBBF24" d="M503.685 451.222L527.173 462.487L514.463 485.651C509.449 483.938 496.67 476.991 491.383 474.246C495.093 466.74 499.661 458.642 503.685 451.222Z"/><path fill="#FBBF24" d="M450.996 488.993C458.837 492.619 466.607 496.397 474.301 500.325C470.356 508.08 466.033 515.992 461.954 523.705C454.38 519.729 446.418 515.998 438.694 512.275C442.506 504.643 446.978 496.578 450.996 488.993Z"/><path fill="#FBBF24" d="M479.111 438.897C486.739 442.598 494.123 445.995 501.442 450.298C499.329 454.517 491.555 470.639 488.978 472.995C481.203 469.58 473.524 465.949 465.95 462.109C469.908 454.332 474.62 446.365 479.111 438.897Z"/><path fill="#FBBF24" d="M414.401 439.025C422.113 442.935 429.854 446.788 437.623 450.583C433.895 458.181 429.265 466.444 425.018 473.75C417.542 469.766 409.403 465.961 401.769 462.069L414.401 439.025Z"/><path fill="#FBBF24" d="M679.834 538.135C684.85 539.864 697.653 546.844 703.165 549.609C700.555 555.515 694.172 566.202 690.805 572.188C688.742 572.519 670.776 562.981 667.566 561.332C671.821 553.688 675.912 545.954 679.834 538.135Z"/><path fill="#FBBF24" d="M666.674 563.242C673.744 567.453 682.112 571.126 689.616 574.568C685.607 582.321 681.103 590.289 676.974 598.067C669.107 594.465 661.36 590.606 653.746 586.496C657.583 579.032 662.591 571.003 666.674 563.242Z"/><path fill="#FBBF24" d="M439.352 451.514L463.008 462.757C459.243 470.246 454.706 477.809 450.421 485.004C447.69 485.231 430.914 476.392 427.241 474.54C430.97 466.706 435.011 459.025 439.352 451.514Z"/><path fill="#FBBF24" d="M476.36 501.218C484.015 505.04 491.623 508.955 499.182 512.964C496.232 519.387 490.441 529.292 486.92 535.785C479.428 532.682 471.064 528.344 463.883 524.6C467.835 516.838 472.229 508.914 476.36 501.218Z"/><path fill="#FBBF24" d="M462.752 526.666C469.559 529.437 479.113 534.377 485.935 537.62L473.499 561.168C465.602 557.43 457.944 553.497 449.928 549.764C454.352 542.53 458.676 534.178 462.752 526.666Z"/><path fill="#FBBF24" d="M526.798 526.148C534.735 530.153 541.768 533.933 549.931 537.56C547.472 543.361 540.935 552.898 537.428 560.755L513.959 549.654L526.798 526.148Z"/><path fill="#FBBF24" d="M400.662 464.22C408.389 467.584 416.377 471.776 423.946 475.593C420.119 483.123 415.456 491.233 411.395 498.753C404.786 494.959 395.248 490.484 388.235 486.969C392.557 479.486 396.701 471.9 400.662 464.22Z"/><path fill="#FBBF24" d="M590.806 525.835C597.928 529.953 606.319 533.849 613.787 537.497C610.234 544.703 605.237 553.17 601.32 560.46C594.144 557.534 585.259 552.805 578.081 549.316C582.494 541.584 586.737 533.755 590.806 525.835Z"/><path fill="#FBBF24" d="M412.287 501.312C416.105 504.075 430.297 510.536 435.33 512.978C431.661 520.403 426.788 528.697 422.877 536.298C415.758 532.341 407.297 528.442 399.895 524.84C404.067 517.02 408.198 509.177 412.287 501.312Z"/><path fill="#FBBF24" d="M655.252 525.849C660.252 529.076 672.23 534.455 678.004 537.186C673.73 544.908 669.57 552.693 665.525 560.537C658.472 556.671 649.523 552.566 642.214 548.963C646.869 541.437 651.219 533.726 655.252 525.849Z"/><path fill="#12100F" d="M438.23 592.406C445.707 596.967 465.878 606.104 474.41 610.282L546.544 645.602C541.926 655.961 534.582 668.583 529.001 678.819C521.206 693.113 513.783 707.894 505.967 722.082C492.384 716.438 477.86 708.652 464.484 702.058L396.662 668.585C402.178 659.375 407.299 649.464 412.472 640.003C421.183 624.205 429.769 608.339 438.23 592.406Z"/><path fill="#FBBF24" d="M439.247 595.178C449.001 600.947 465.928 608.554 476.649 613.772L543.868 646.623L504.849 719.194C491.52 713.403 475.926 705.55 462.788 699.077L399.848 667.836C404.392 659.994 409.01 650.912 413.389 642.821L439.247 595.178Z"/><path fill="#FBBF24" d="M355.722 128.589C359.427 128.24 362.804 128.07 366.299 129.491C373.961 132.607 381.631 136.3 389.086 139.873C405.479 147.824 421.797 155.929 438.038 164.185C475.342 182.7 513.966 200.858 551.556 218.908L731.002 304.611L787.618 331.646C799.678 337.407 811.76 343.079 823.586 349.317C830.293 352.411 838.554 363.847 836.172 371.656C832.986 382.104 827.453 393.987 823.305 404.259L792.288 481.374C788.682 490.805 785.059 502.281 778.621 510.06C771.669 518.458 759.56 514.056 751.361 510.308C741.33 505.722 731.614 500.457 721.633 495.735L627.39 450.592L496.763 387.659L453.757 366.911C403.722 342.919 401.889 349.463 386.914 295.279L374.584 251.234L358.633 194.497C353.454 176.267 345.491 155.111 345.502 136.295C348.778 131.761 350.475 130.263 355.722 128.589Z"/><path fill="#12100F" d="M369.183 150.437C377.962 151.225 392.128 159.346 400.553 163.418L443.326 183.921L583.933 251.058L732.179 322.026L775.646 342.88C785.237 347.439 794.875 351.981 804.278 356.912C809.637 359.948 814.747 368.644 813.281 374.855C811.683 381.624 808.791 388.025 806.288 394.467C804.664 398.646 802.975 402.789 801.329 406.929L777.785 466.377L772.156 481.231C769.227 488.826 767.301 493.485 759.666 496.873C748.127 493.432 729.489 483.557 717.986 477.998L646.587 443.504L497.058 371.337C474.486 360.49 451.861 349.754 429.228 339.065C426.665 337.854 414.256 331.178 413.239 329.37C410.211 323.989 406.363 312.759 404.63 306.579C398.283 283.935 392.461 261.301 386.056 238.658C379.11 213.504 371.82 188.427 365.035 163.23C363.068 155.924 363.178 154.571 369.183 150.437Z"/><path fill="#C4B5FD" d="M369.817 152.335C375.805 153.089 403.024 167.162 410.389 170.738L448.923 189.207L697.485 308.013L771.12 343.257C781.536 348.287 792.62 353.339 802.854 358.699C808.178 361.487 810.378 367.279 811.642 372.863C808.696 383.552 802.861 397.004 798.689 407.55L776.703 463.366C774.655 468.205 772.946 473.372 771.03 478.272C767.898 486.283 767.141 490.81 759.034 494.696C744.032 488.975 724.896 478.822 709.917 471.606L621.287 428.932L487.536 364.459L443.83 343.508C436.228 339.884 428.573 336.284 420.987 332.633C418.964 331.659 416.83 329.946 415.424 328.201C412.976 325.162 410.904 319.922 409.728 316.208C407.04 307.716 404.763 298.897 402.411 290.292L390.699 247.666L378.513 203.771C375.838 194.287 366.048 163.269 366.542 155.609C367.189 154.097 368.474 153.373 369.817 152.335Z"/><path fill="#FBBF24" d="M361.877 118.118C365.361 117.88 367.489 117.984 370.756 119.411C385.729 125.954 400.369 133.218 415.096 140.303L518.254 189.873L719.917 286.564L783.267 316.867C795.807 322.837 808.481 328.707 820.843 335.034C827.015 338.193 828.983 341.011 832.953 346.571C824.686 341.581 814.415 337.073 805.571 333.139C804.504 334.524 803.442 336.094 801.772 336.51C800.499 335.72 801.068 336.23 800.457 334.374C800.286 333.446 800.143 332.409 799.815 331.525C798.846 328.913 778.908 320.978 775.351 319.62C773.702 318.99 773.04 318.894 771.282 319.332C770.496 319.529 769.743 319.769 768.932 319.854C766.996 320.055 764.095 319.427 762.728 317.92C761.601 316.675 761.681 315.54 761.89 313.963L762.008 313.111C758.668 310.155 747.781 305.982 743.285 304.08L742.51 304.496C740.562 305.564 740.131 306.116 737.988 306.118C736.165 305.204 736.821 305.85 735.802 304.274C735.861 302.541 735.951 302.162 735.428 300.457C733.52 298.16 717.177 290.421 713.286 289.889C712.067 290.97 712.15 290.976 710.651 291.559C708.304 291.462 706.026 290.743 704.05 289.474C701.087 287.535 702.238 284.465 701.312 283.938C686.485 275.512 667.604 265.625 651.668 259.672C650.469 260.585 649.436 261.728 648.377 262.809C646.109 261.745 637.316 258.035 636.553 256.283C637.166 254.987 637.299 254.68 637.691 253.308C636.669 251.53 586.976 228.217 580.996 225.863L578.214 228.619C574.813 227.149 569.601 225.286 567.141 222.694C567.265 221.909 567.442 221.217 567.683 220.464C565.926 217.67 528.964 200.469 523.457 198.123L520.729 201.665C513.063 197.932 506.17 194.767 498.618 190.688L501.124 186.734C493.339 183.616 485.343 179.422 477.728 175.747C465.535 169.808 453.277 164.003 440.956 158.333C439.574 160.288 439.438 161.165 437.01 161.343C435.321 160.513 435.175 160.582 434.018 159.036C433.82 157.477 433.638 155.33 432.385 154.468C427.57 151.156 399.768 137.656 396.32 137.718C392.874 141.076 391.229 138.153 387.239 136.675C384.73 135.746 380.915 133.756 378.569 132.725C372.95 130.258 376.403 129.871 375.262 127.332C371.944 124.683 366.659 122.973 362.553 121.957C357.924 120.812 350.629 126.5 346.57 129.159C351.51 122.707 353.881 120.189 361.877 118.118Z"/><path fill="white" d="M481.273 382.679C491.367 386.939 504.535 393.887 514.63 398.808L574.639 427.799L634.966 456.835C647.634 462.886 660.964 468.765 673.212 475.528C670.956 479.412 668.789 483.347 666.71 487.329L666.305 487.469C661.71 486.604 625.634 468.013 619.847 465.18L475.551 394.383L481.273 382.679Z"/><path fill="#FBBF24" d="M674.663 476.264C684.582 480.342 697.561 486.672 706.953 491.809C703.876 495.825 702.048 498.7 699.436 502.957L699.147 503.182C697.372 503.341 671.805 490.614 668.03 488.791C670.447 484.8 672.551 480.44 674.663 476.264Z"/><path fill="#FBBF24" d="M452.528 368.763C461.763 372.842 470.798 377.36 479.601 382.302C477.128 386.3 475.603 389.3 473.507 393.524C464.441 388.865 455.274 384.405 446.013 380.145C448.145 376.328 450.317 372.534 452.528 368.763Z"/></svg>