<?xml version="1.0" encoding="utf-8" ?><svg xmlns="http://www.w3.org/2000/svg" xmlns:xlink="http://www.w3.org/1999/xlink" width="1024" height="1024" viewBox="0 0 1024 1024"><path fill="#12100F" d="M264.107 221.637C264.44 216.858 264.427 211.771 265.109 207.135C267.64 188.989 276.644 172.369 290.461 160.336C302.125 150.154 316.497 143.582 331.829 141.421C337.558 140.665 350.235 140.88 356.54 140.829L401.488 140.534L548.267 140.488L758.194 140.598L829.296 140.779C840.398 140.818 856.979 140.404 867.656 141.154C888.209 142.475 907.345 152.081 920.684 167.772C941.946 192.714 940.023 210.471 940.218 240.827L940.101 309.746L940.301 520.434L938.514 519.414L938.529 608.85C938.543 624.342 939.697 654.515 936.467 668.132C933.22 681.725 926.252 694.145 916.343 704C906.323 714.196 893.631 721.362 879.724 724.675C865.895 728.064 847.306 726.598 832.763 726.849C808.401 727.269 782.601 726.161 758.331 727.027C765.452 728.625 788.908 727.398 791.348 728.365C763.379 728.793 719.299 728.347 690.145 728.591C689.861 728.82 689.577 729.05 689.293 729.279L688.982 731.561C688.674 731.615 688.269 731.631 688.013 731.821C687.505 733.047 686.564 753.993 688.986 754.385C689.953 765.388 690.677 771.907 695.056 782.064C705.435 806.14 725.406 821.675 751.342 825.642C754.55 826.133 759.068 825.88 762.508 825.964C771.338 826.117 779.735 829.817 785.806 836.232C795.264 846.363 795.179 856.165 795.294 869.032C795.398 875.221 795.348 881.411 795.144 887.597C789.137 887.887 780.915 887.633 774.751 887.628L737.59 887.628L621.595 887.635L294.425 887.052C291.936 881.914 288.857 872.469 286.855 866.851C282.719 855.432 278.701 843.971 274.8 832.47C266.23 846.619 257.752 856.534 243.645 865.288C197.72 893.785 139.039 880.096 110.555 834.941C101.353 820.273 96.3083 803.382 95.9593 786.071C95.7148 765.572 103.982 739.425 108.654 718.845L136.802 597.53C129.184 602.277 119.977 606.995 110.743 606.959C100.5 606.92 92.7336 600.296 90.195 590.498C89.0252 585.983 89.5571 581.37 89.8535 576.729C83.3159 562.737 57.6762 576.998 55.4512 551.497C53.9879 534.726 80.9746 528.529 77.6205 515.314C74.0358 501.189 49.6069 498.147 59.263 474.602C64.3951 461.024 74.7208 462.483 83.7436 452.926C98.2847 437.525 72.9531 424.154 82.2376 406.463C86.844 393.534 99.455 389.245 108.276 380.022C115.546 372.421 108.99 358.218 108.358 348.032C98.82 347.643 92.3996 346.948 83.927 342.086C72.9545 335.789 64.7898 325.897 63.4148 313.03C64.1568 307.936 64.1675 307.195 63.4149 301.905C63.6087 299.747 63.9972 297.701 64.6254 295.629C75.0001 261.405 109.858 238.418 139.796 223.071C138.198 217.381 133.854 208.178 136.546 203.565C138.092 200.975 140.625 199.126 143.562 198.441C149.755 197.05 153.479 202.599 154.006 208.038C154.24 210.464 153.701 214.053 153.432 216.531C160.621 215.704 168.02 212.131 175.235 210.52C199.939 205.004 227.183 202.5 250.872 213.297C256.155 215.705 259.296 219.379 264.107 221.637ZM456.665 299.688C456.857 297.441 454.135 297.647 452.504 297.491L452.555 298.143C452.698 300.33 455.007 299.78 456.665 299.688ZM161.532 217.061C163.586 218.25 163.996 218.43 166.302 218.987L165.79 218.305C164.505 216.537 163.643 216.936 161.532 217.061ZM768.636 256.947C768.32 257.269 764.09 262.35 763.936 262.617C755.598 271.008 745.604 275.157 734.384 278.232C733.641 278.443 732.901 278.665 732.164 278.897C735.085 280.306 737.491 280.968 740.595 281.915C745.574 283.434 749.937 285.897 754.481 288.344C755.566 289.429 758.01 291.005 759.339 291.957C761.191 293.694 763.058 295.414 764.942 297.116C766.404 299.096 768.291 301.43 769.836 303.422L773.02 309.092L773.53 309.801C774.281 311.942 774.67 313.013 775.677 315.026C777.96 320.936 779.433 327.337 780.426 333.58C781.507 327.537 782.818 321.509 784.729 315.665C788.187 307.382 789.685 306.477 793.671 299.599C794.735 298.507 803.085 290.904 803.077 290.916C813.291 284.461 819.36 281.624 831.207 279.286C798.484 271.318 786.168 257.853 780.134 224.999C778.983 235.096 777.101 240.25 773.277 249.488L768.636 256.947ZM199.155 515.115C199.739 512.763 198.528 509.746 197.11 507.921C195.341 511.701 195.808 513.172 199.155 515.115ZM102.869 411.843L103.215 410.91C103.63 409.76 106.237 405.005 105.139 404.447C103.551 404.499 101.959 409.807 101.572 410.983C101.111 412.703 100.768 414.459 100.479 416.216C100.498 420.361 100.123 424.464 101.153 428.49C103.776 438.74 109.368 445.654 104.953 456.521C104.262 457.622 103.303 458.967 102.719 460.061C101.683 461.11 100.767 461.955 99.6731 462.945C98.4795 463.533 94.631 466.377 93.495 467.28C92.5855 467.766 92.4126 467.862 91.7335 468.633L90.2502 469.996C80.5861 478.972 82.0432 491.855 91.7999 499.857C94.5386 502.103 97.4809 505.046 99.5965 507.894C100.203 509.197 100.862 510.325 101.456 511.635L102.464 510.133C101.695 508.671 101.171 507.565 100.12 506.304C93.6119 498.051 84.2465 495.084 85.2871 482.997C85.7736 477.346 87.7011 473.718 92.0438 470.084C93.5539 469.158 93.999 468.753 95.3647 467.58C97.5624 466.197 99.0484 465.115 101.058 463.515C101.903 462.709 102.691 461.909 103.563 461.126C104.774 459.666 105.357 458.582 106.414 457.181C111.961 440.719 100.334 433.538 102.11 416.02C102.421 414.586 102.572 413.264 102.869 411.843ZM425.726 832.257C425.254 832.502 420.772 835.098 423.248 835.257L424.752 834.664C426.124 834.108 428.332 833.011 425.726 832.257ZM938.77 210.854C938.963 209.908 939.358 209.284 938.586 208.689C938.521 209.536 938.332 210.169 938.77 210.854ZM102.411 525.98C99.7096 534.653 94.569 539.81 86.6075 544.164C85.5569 544.739 81.5687 546.272 81.0857 546.712C80.9855 547.13 80.9893 546.932 81.0448 547.306C82.7068 549.504 94.7514 540.328 96.4638 538.493C100.523 534.144 101.901 531.993 103.756 526.572L102.411 525.98Z"/><path fill="#F0E6D3" d="M266.189 521.987L266.31 303.507C266.154 282.779 266.147 262.049 266.289 241.321C266.286 231.317 265.634 214.114 267.282 204.817C269.808 190.108 276.789 176.529 287.282 165.916C305.499 147.352 324.531 142.424 349.501 142.268L707.767 142.241L816.106 142.175L847.334 142.255C855.892 142.301 864.833 142.148 873.269 143.414C889.281 145.866 904.101 153.337 915.595 164.751C940.439 189.537 938.517 212.258 938.54 244.278L938.52 303.285L938.514 519.414L938.529 608.85C938.543 624.342 939.697 654.515 936.467 668.132C933.22 681.725 926.252 694.145 916.343 704C906.323 714.196 893.631 721.362 879.724 724.675C865.895 728.064 847.306 726.598 832.763 726.849C808.401 727.269 782.601 726.161 758.331 727.027C752.069 726.391 732.67 726.931 725.456 726.905L654.717 726.695L427.224 726.844L366.399 726.818C356.933 726.806 339.926 727.234 331.102 725.925C317.463 723.924 304.639 718.203 294.04 709.389C282.04 699.252 272.621 684.847 269.238 669.394C268.422 665.668 268.034 660.085 267.692 656.163C282.531 648.8 303.321 623.522 316.085 610.662C324.688 617.326 334.519 620.455 345.332 620.468C386.034 620.518 426.788 620.526 467.487 620.518L691.395 620.479L794.726 620.533L825.712 620.595C832.86 620.605 841.644 620.854 848.6 619.872C861.035 618.077 872.559 612.316 881.457 603.446C896.694 588.546 899.682 573.249 899.854 552.976L899.92 329.231L899.921 268.921C899.951 242.187 903.011 218.824 881.868 198.29C863.097 180.058 845.451 180.453 821.118 180.445L785.819 180.446L663.458 180.196L448.299 180.106L390.256 180.263C380.571 180.29 363.461 179.844 354.731 181.367C342.94 183.469 332.077 189.138 323.608 197.608C304.274 217.102 306.396 234.993 306.411 260.006L306.434 309.883L306.463 492.551C289.771 498.426 277.672 508.99 266.189 521.987Z"/><path fill="#12100F" d="M572.492 652.611C592.344 651.509 613.433 653.076 633.415 652.382C636.638 652.27 643.817 652.682 646.486 654.345C661.96 663.99 659.431 684.719 640.928 689.481C622.981 690.244 604.539 689.467 586.548 689.806C580.196 689.926 570.432 690.263 564.98 686.924C560.785 684.333 557.824 680.148 556.777 675.33C554.177 663.637 561.107 654.862 572.492 652.611Z"/><path fill="#FF5C00" d="M576.627 654.209C595.905 653.649 615.572 654.378 634.888 654.058C639.531 653.981 644.13 654.674 647.952 657.52C651.771 660.377 654.235 664.69 654.755 669.431C655.188 673.851 653.861 678.263 651.061 681.711C647.384 686.2 643.106 687.343 637.731 687.892L594.675 687.987C586.342 688.001 570.634 689.536 564.156 684.324C560.696 681.488 558.503 677.394 558.058 672.942C556.721 660.644 565.531 654.835 576.627 654.209Z"/><path fill="#12100F" d="M836.739 638.091C852.141 637.812 851.288 653.918 850.444 665.14C849.504 677.646 855.46 697.097 840.631 700.982C838.17 701.057 835.425 700.744 833.18 699.688C830.771 698.555 828.872 696.627 828.094 694.057C826.279 688.054 825.91 648.356 828.592 643.599C830.407 640.38 833.313 639.012 836.739 638.091Z"/><path fill="#F0E6D3" d="M835.961 640.041C837.409 639.956 838.875 639.847 840.303 640.162C843.21 640.805 845.632 642.669 847.119 645.24C848.84 648.215 849.169 688.937 847.864 692.979C846.825 696.197 844.393 697.512 841.538 698.924C839.594 699.135 837.697 699.232 835.775 698.775C833.501 698.235 831.387 696.61 830.203 694.598C828.397 691.531 828.222 650.87 829.533 646.366C830.436 643.268 833.29 641.477 835.961 640.041Z"/><path fill="#FF5C00" d="M308.226 336.986C308.21 336.491 308.199 335.995 308.193 335.5L308.142 274.123C308.107 261.296 307.082 236.916 309.769 225.789C312.137 215.722 317.246 206.506 324.529 199.164C332.844 190.744 343.587 185.14 355.25 183.139C364.599 181.588 384.34 182.048 394.499 182.032L462.172 181.975L708.199 182.101C700.916 247.054 642.521 294.021 578.494 293.956C564.937 293.942 552.31 292.268 538.981 289.906C513.412 285.374 492.165 290.52 469.01 301.219C452.044 308.151 446.509 313.403 440.616 331.148C440.211 329.65 439.512 326.71 438.896 325.42C421.946 345.431 393.714 356.877 367.777 355.825C344.807 354.893 328.128 347.044 308.226 336.986ZM456.665 299.688C456.857 297.441 454.135 297.647 452.504 297.491L452.555 298.143C452.698 300.33 455.007 299.78 456.665 299.688Z"/><path fill="#FEFEFE" d="M411.806 301.006C430.551 296.499 436.102 288.635 440.974 270.82C441.551 275.244 442.805 279.552 444.692 283.594C450.468 295.773 458.225 297.33 469.01 301.219C452.044 308.151 446.509 313.403 440.616 331.148C440.211 329.65 439.512 326.71 438.896 325.42C433.82 311.193 425.936 305.031 411.806 301.006ZM456.665 299.688C456.857 297.441 454.135 297.647 452.504 297.491L452.555 298.143C452.698 300.33 455.007 299.78 456.665 299.688Z"/><path fill="#FEFEFE" fill-opacity="0.83137256" d="M452.504 297.491C454.135 297.647 456.857 297.441 456.665 299.688C455.007 299.78 452.698 300.33 452.555 298.143L452.504 297.491Z"/><path fill="#FF5C00" d="M361.82 434.71C403.472 432.202 440.288 452.101 463.864 485.979C469.398 493.93 472.73 501.233 477.604 509.323C482.088 516.641 487.235 523.533 492.978 529.912C506.727 545.135 518.638 552.593 536.427 561.383C558.529 572.305 578.485 594.531 585.907 618.366C572.589 618.762 557.464 618.432 544.047 618.433L465.25 618.437L380.618 618.37C370.353 618.374 360.013 618.378 349.751 618.441C337.396 618.518 327.52 617.103 317.502 609.257C325.433 604.795 334.298 600.562 342.492 596.485C350.365 613.242 371.19 599.94 363.815 576.941C367.292 568.613 367.653 561.522 364.924 552.933C370.847 540.819 369.746 532.663 362.749 521.659C364.354 517.331 366.521 509.486 364.52 505.286C354.523 484.3 325.745 485.745 308.091 491.996C307.795 478.618 308.051 464.348 308.066 450.903C325.524 441.47 342.053 436.301 361.82 434.71Z"/><path fill="#FBBF24" d="M312.873 722.807C326.844 729.259 342.575 728.849 357.565 728.856L389.358 728.859C428.946 728.855 470.419 728.264 509.832 728.884C510.381 739.608 510.062 759.203 507.977 769C501.821 797.4 479.379 819.427 450.869 825.051C437.94 827.589 433.846 823.405 420.225 832.28C402.725 846.905 406.828 864.755 406.957 885.563L295.293 885.652C288.798 869.116 281.663 847.621 276.288 830.733C284.379 813.811 287.887 799.097 293.706 781.473C300.171 761.895 307.058 742.578 312.873 722.807Z"/><path fill="#C4B5FD" d="M594.436 734.203C621.241 730.173 663.794 747.17 687.584 759.613C688.717 768.164 689.749 774.331 693.35 782.302C701.102 799.462 709.913 813.707 724.456 825.835C711.736 826.333 696.733 825.959 683.88 825.961L607.75 825.965L476.955 825.956C494.385 807.721 506.496 787.219 511.249 762.375C536.394 746.61 564.886 736.961 594.436 734.203Z"/><path fill="#C4B5FD" d="M897.118 414.949L897.498 415.106C898.477 416.915 898.011 486.384 897.879 493.986C861.979 524.086 824.19 569.62 821.349 618.525L747.558 618.387L746.86 617.917C746.477 608.449 753.969 580.55 757.283 570.948C776.551 515.001 813.592 466.894 862.756 433.967C873.621 426.785 885.419 420.648 897.118 414.949Z"/><path fill="#FCCCC0" d="M323.787 489.655C336.269 488.623 354.467 491.424 361.621 503.418C364.829 508.796 362.808 514.713 361.2 520.276C358.481 517.566 355.332 515.326 351.881 513.645C334.375 504.967 312.795 510.959 295.242 517.465C292.152 518.611 285.741 520.511 284.362 523.297L284.851 523.911C287.55 523.551 290.99 521.211 293.832 520.019C315.238 511.042 352.752 502.356 364.875 529.738C368.032 536.868 367.227 543.258 364.223 550.351C350.336 529.873 320.064 533.961 300.509 542.464C298.253 543.445 294.306 544.626 293.293 546.972C294.337 548.044 299.091 545.301 300.371 544.596C323.975 531.606 376.724 533.601 362.884 574.543C345.822 551.776 316.282 563.341 295.718 573.403L294.711 574.343L294.829 575.286C295.699 575.468 296.196 575.571 297.003 575.113C311.608 566.87 328.197 560.925 345.12 564.698C357.418 567.063 366.39 578.975 363.39 591.525C362.113 596.866 356.11 603.664 350.004 601.888C346.912 600.988 345.178 597.814 343.869 595.057L343.564 594.405C340.66 594.099 335.882 597.639 333.237 598.758C320.029 604.346 315.41 608.571 305.825 618.6C293.688 631.297 281.191 647.429 265.432 655.398C265.634 658.207 266.025 661.331 266.316 664.16L262.424 670.841C245.176 659.057 234.599 644.781 227.306 625.22C228.593 622.352 229.563 618.976 230.637 615.984C236.569 599.457 241.217 582.481 246.779 565.836C248.785 559.833 250.831 552.602 253.446 546.924C266.811 517.91 291.471 494.759 323.787 489.655Z"/><path fill="#FCCCC0" d="M206.339 305.861C208.545 306.828 211.51 308.708 213.756 309.96C228.276 318.048 250.432 326.8 264.46 312.919L264.145 427.72C263.685 428.161 263.257 428.544 262.766 428.951C246.383 442.592 225.17 449.01 203.973 446.738C184.565 444.771 167.331 434.858 155.115 419.759C146.489 408.522 139.88 392.53 136.688 378.641C144.73 372.972 152.267 368.446 160.47 363.108C157.724 355.588 154.057 347.265 151.107 339.525C156.142 346.173 161.296 352.728 166.567 359.189C173.858 354.004 182.507 348.863 190.187 344.133C187.521 337.396 179.632 323.679 175.924 316.577C182.18 323.08 191.055 333.062 196.686 339.981C203.649 335.301 210.709 330.768 217.862 326.384L206.339 305.861Z"/><path fill="#12100F" d="M246.914 377.874C248.47 379.048 249.347 381.687 250.04 383.592C255.836 399.523 248.942 421.353 231.927 427.085C222.041 430.415 212.617 427.562 203.61 423.063C198.184 419.673 195.465 416.108 191.598 411.128C196.999 407.315 204.866 402.962 210.689 399.528C222.863 392.477 234.939 385.258 246.914 377.874Z"/><path fill="#FEFEFE" d="M246.087 380.524C247.44 382.274 248.164 385.119 248.893 387.304C232.403 396.737 215.46 407.046 198.839 416.685C197.533 415.037 195.887 413.227 194.494 411.613C210.363 400.97 229.637 391.263 246.087 380.524Z"/><path fill="#FB7185" d="M240.37 406.649C243.109 406.403 245.787 406.364 248.53 406.319C245.578 414.99 239.644 423.165 230.244 425.454C229.214 425.709 228.177 425.939 227.136 426.146C223.774 426.522 216.945 428.21 218.927 422.746C222.855 411.916 228.853 408.446 240.37 406.649Z"/><path fill="#12100F" d="M226.325 342.69C228.872 341.665 231.776 342.12 233.888 343.874C236 345.628 236.98 348.399 236.441 351.091C235.902 353.783 233.93 355.962 231.305 356.768C227.477 357.942 223.404 355.89 222.069 352.115C220.733 348.341 222.61 344.184 226.325 342.69Z"/><path fill="#12100F" d="M236.551 325.584C240.228 327.323 237.405 330.993 236.194 334.641C237.381 335.183 238.615 335.692 239.856 336.094L240.5 336.312C241.306 334.824 243.947 329.193 245.865 329.167C247.515 330.192 243.068 336.613 242.359 337.83C243.379 339.055 246.946 342.703 245.968 344.504C243.505 344.98 240.457 332.988 226.342 336.817C223.082 338.431 221.291 339.692 219.254 342.492C215.741 347.322 217.373 350.596 217.366 355.706C217.366 355.946 216.494 356.336 216.112 355.892C215.173 354.797 214.484 351.88 214.577 350.5C215.395 338.329 223.606 334.667 233.749 333.921C234.789 331.027 235.662 328.519 236.551 325.584Z"/><path fill="#12100F" d="M173.125 369.569C177.853 369.32 180.381 369.386 183.976 373.015C184.318 373.361 189.214 379.077 185.754 378.914C184.691 378.863 182.782 373.493 179.739 372.526C176.833 371.292 175.196 371.152 172.056 372.256C166.392 374.246 164.405 380.683 166.534 385.981C167.103 387.395 168.263 391.106 165.454 388.728C164.786 387.235 164.223 385.771 163.54 384.276L162.926 384.125C161.321 383.717 154.437 382.334 154.347 382.136C152.344 377.764 162.025 382.148 163.431 382.568C163.644 380.651 163.922 378.753 164.152 376.835C158.977 374.087 158.912 374.356 155.379 370.07L157.021 370.863C159.79 372.179 162.288 373.751 165.104 375.145C168.283 371.764 168.684 371.222 173.125 369.569Z"/><path fill="#12100F" d="M198.44 358.152C201.027 358.92 200.314 359.136 200.926 361.999L201.909 367.506C202.918 373.226 203.769 378.681 205.113 384.35C205.254 384.323 208.816 383.65 208.767 383.644C210.853 383.916 215.607 380.448 216.547 382.514L216.825 383.08C212.426 384.968 208.245 385.805 203.587 386.679C201.771 379.104 199.011 365.923 198.44 358.152Z"/><path fill="#FF5C00" d="M208.946 663.298C209.965 663.91 217.333 676.118 218.609 678.007C224.139 686.128 230.749 693.461 238.255 699.802L136.582 860.444L130.831 855.974C110.444 838.882 102.061 819.284 97.8668 793.794C102.353 789.718 108.735 781.779 112.843 776.963L143.132 740.761C164.372 715.376 188.402 689.013 208.946 663.298Z"/><path fill="#F0E6D3" d="M435.067 828.102C440.318 827.552 448.153 827.858 453.645 827.905C462.421 827.983 471.197 828.001 479.972 827.961L583.644 827.937L707.663 827.977L744.148 827.881C760.342 827.829 776.653 825.603 787.309 840.691C791.169 846.156 792.14 850.298 793.03 856.844L766.988 856.883L408.691 856.748C410.78 841.184 419.666 831.221 435.067 828.102ZM423.248 835.257L424.752 834.664C426.124 834.108 428.332 833.011 425.726 832.257C425.254 832.502 420.772 835.098 423.248 835.257Z"/><path fill="#F0E6D3" fill-opacity="0.93725491" d="M425.726 832.257C428.332 833.011 426.124 834.108 424.752 834.664L423.248 835.257C420.772 835.098 425.254 832.502 425.726 832.257Z"/><path fill="#C4B5FD" d="M408.989 858.733L660.613 858.748C704.414 858.765 749.352 858.176 793.026 858.84L793.011 884.572C792.877 885.243 793.009 884.824 792.383 885.729C779.394 886.383 761.15 885.896 747.902 885.897L662.834 885.883L408.834 885.869C408.738 881.191 408.142 862.011 408.989 858.733Z"/><path fill="#FBBF24" d="M239.697 701.351C251.722 711.04 260.113 715.535 274.465 720.417C271.022 730.681 263.579 747.163 259.197 757.919L229.904 829.47C224.045 843.392 215.66 862.143 211.446 876.29C199.619 879.483 186.603 878.712 174.617 877.099C159.354 873.945 151.356 870.414 138.347 861.774C146.591 846.187 162.623 822.649 172.464 807.07L239.697 701.351Z"/><path fill="#FBBF24" d="M168.203 520.321C169.344 518.644 169.429 517.854 170.97 517.238C171.831 518.241 171.828 518.769 172.162 520.063C181.801 542.036 199.028 567.765 226.591 568.174C235.713 568.31 241.603 563.711 247.551 557.353C243.138 572.106 236.427 594.011 231.204 608.253L222.912 610.097C218.211 618.213 204.312 637.887 202.2 644.831C199.506 647.126 196.77 649.633 194.113 651.994C171.778 651.604 148.365 651.935 125.969 651.995C129.572 635.429 133.66 618.999 137.437 602.758C145.258 569.131 148.265 549.555 168.203 520.321Z"/><path fill="#FBBF24" d="M201.999 647.368C202.828 648.032 207.506 659.654 208.28 661.378C204.478 665.518 199.878 671.318 196.106 675.713C185.634 687.859 175.246 700.076 164.942 712.364C143.46 737.536 122.111 762.822 100.898 788.22L97.8387 791.985C96.1126 771.855 101.977 753.344 106.87 734.044C122.964 720.044 140.725 703.098 156.572 688.504L201.999 647.368Z"/><path fill="#FBBF24" d="M222.412 614.873C223.927 616.531 225.444 625.901 226.55 628.726C233.5 646.48 250.538 669.831 269.232 676.274C276.635 696.834 286.125 706.087 303.221 718.483C295.638 720.259 293.568 720.691 285.877 720.429C273.028 718.924 260.754 714.248 250.16 706.823C232.008 694.363 208.193 666.28 204.054 644.445C206.899 637.779 217.84 621.893 222.412 614.873Z"/><path fill="#C4B5FD" d="M156.33 218.529C160.426 218.708 166.636 227.252 168.948 230.369C178.778 243.624 185.149 258.608 186.745 275.085C172.607 280.146 161.509 285.034 148.719 292.694L147.867 293.217C146.496 293.265 145.974 292.922 144.817 291.736C130.755 277.325 120.316 256.197 119.405 236.265C132.973 228.089 141.525 224.059 156.33 218.529Z"/><path fill="#C4B5FD" d="M200.161 208.198C204.793 207.615 206.348 209.382 209.54 212.355C225.274 227.01 231.677 245.443 232.03 266.449C218.025 267.2 204.171 269.714 190.794 273.929L189.387 274.143C188.052 272.46 186.333 261.072 185.398 258.284C180.341 243.197 171.533 226.969 159.068 217.074C163.201 216.123 167.869 214.398 172.089 213.3C181.248 210.915 190.727 208.954 200.161 208.198ZM166.302 218.987L165.79 218.305C164.505 216.537 163.643 216.936 161.532 217.061C163.586 218.25 163.996 218.43 166.302 218.987Z"/><path fill="#C4B5FD" fill-opacity="0.15686275" d="M161.532 217.061C163.643 216.936 164.505 216.537 165.79 218.305L166.302 218.987C163.996 218.43 163.586 218.25 161.532 217.061Z"/><path fill="#C4B5FD" d="M116.493 238.377C116.777 238.519 117.061 238.661 117.346 238.804C117.793 242.075 119.198 248.676 119.917 251.416C124.637 269.412 132.787 281.989 145.683 294.96C131.806 303.686 123.353 311.172 112.826 323.587C111.39 323.337 107.475 320.271 106.37 319.211C92.1054 305.534 85.084 285.296 83.7349 266.226C92.1847 255.926 105.405 245.673 116.493 238.377Z"/><path fill="#C4B5FD" d="M177.768 509.829C178.92 509.909 191.009 515.99 193.949 517.026C217.78 525.418 235.124 525.501 259.403 522.832C255.107 533.963 252.882 546.673 245.62 556.54C233.94 569.475 220.61 568.772 206.274 560.54C190.479 551.47 177.702 532.263 172.984 514.89L177.768 509.829Z"/><path fill="#FBBF24" d="M226.678 268.701C232.916 267.794 249.815 267.942 255.817 270.943C260.394 273.232 261.442 274.867 263.11 279.402C229.975 278.171 189.193 292.907 160.517 309.548C149.761 315.791 138.974 323.917 129.236 331.61C126.302 333.977 111.587 347.838 110.075 347.953C104.444 339.965 110.414 329.267 115.877 322.907C142.851 291.505 185.937 272.563 226.678 268.701Z"/><path fill="#FBBF24" d="M633.398 383.835C649.045 381.584 663.565 392.412 665.87 408.051C668.175 423.69 657.398 438.247 641.767 440.607C626.059 442.979 611.414 432.136 609.097 416.42C606.78 400.704 617.674 386.097 633.398 383.835Z"/><path fill="#FF5C00" d="M126.841 653.74C148.479 653.531 170.496 653.815 192.167 653.894C175.261 668.165 157.873 685.004 141.323 699.981C129.866 710.227 118.564 720.646 107.422 731.234C108.224 727.346 109.209 723.371 110.117 719.489C115.123 698.073 119.63 676.477 125.176 655.206C125.506 653.941 125.725 654.214 126.841 653.74Z"/><path fill="#C4B5FD" d="M206.666 207.537C222.823 207.336 238.007 208.616 252.592 216.412C256.794 218.657 260.323 221.338 264.291 223.941L264.35 275.2C263.827 274.636 263.291 274.082 262.745 273.539C255.005 265.895 244.13 266.489 234.057 266.468C233.615 241.654 225.745 223.575 206.666 207.537Z"/><path fill="#FEFEFE" d="M247.252 441.078C247.263 441.497 244.315 450.516 243.902 452.609C239.829 473.249 250.647 503.005 261.542 520.328C254.786 522.055 243.016 522.526 235.875 522.598L234.635 522.314C232.586 519.791 225.52 506.177 224.337 503.3C216.377 483.927 215.68 467.873 223.267 448.624C232.976 446.775 238.35 445.29 247.252 441.078Z"/><path fill="#C4B5FD" d="M81.2232 269.342C82.4087 270.703 82.9216 276.761 83.4039 278.929C87.7253 298.357 95.2259 313.913 111.714 325.19C106.705 332.847 105.712 337.094 106.873 346.148C103.756 346.107 100.605 345.692 97.5006 345.354C90.532 343.997 82.8771 340.485 77.5769 335.771C56.2576 316.809 64.8834 287.973 81.2232 269.342Z"/><defs><linearGradient id="gradient_0" gradientUnits="userSpaceOnUse" x1="793.3999" y1="266.78055" x2="762.86316" y2="296.50339"><stop offset="0" stop-color="#FFFFFE" stop-opacity="0.34117648"/><stop offset="1" stop-color="#FFFFFE" stop-opacity="0.43137255"/></linearGradient></defs><path fill="url(#gradient_0)" d="M773.277 249.488C776.949 250.481 777.202 250.187 780.81 248.802C782.445 251.443 784.389 254.056 785.918 256.655C790.852 265.04 799.193 270.323 805.342 277.586C806.125 278.511 805.558 281.235 805.367 282.416C804.073 283.482 797.863 290.62 797.815 291.445C798.223 292.059 798.78 291.535 799.153 291.746L799.154 291.777L799.125 291.752L798.821 291.798L798.754 292.286C797.826 293.174 798.243 292.874 797.697 293.725C795.533 297.098 792.404 295.828 793.671 299.599C789.685 306.477 788.187 307.382 784.729 315.665C780.333 316.094 779.274 314.264 775.677 315.026C774.67 313.013 774.281 311.942 773.53 309.801C777.997 308.449 775.506 304.566 773.293 305.803C773.182 306.495 773.105 308.227 773.02 309.092L769.836 303.422C772.9 302.019 771.247 300.1 769.32 298.308C768.066 297.141 766.59 294.187 765.284 296.533L764.942 297.116C763.058 295.414 761.191 293.694 759.339 291.957C759.825 290.507 761.161 289.525 761.156 289.284C761.116 287.329 756.139 285.19 757.823 282.51C759.147 280.403 760.635 280.87 762.278 279.896C764.519 278.568 768.703 278.22 769.667 275.851C769.552 275.112 768.958 274.248 768.157 274.196C767.138 274.13 765.448 275.21 764.83 274.993C764.684 274.619 765.306 274.054 765.542 273.743C766.201 272.872 765.28 271.894 765.351 271.264C765.55 269.381 768.257 269.353 768.585 267.92C769.187 265.287 771.731 263.516 771.765 260.839C771.777 259.829 772.357 257.634 771.748 256.876C771.435 256.487 769.143 256.904 768.636 256.947L773.277 249.488Z"/><path fill="#FB7185" d="M204.991 448.854C211.333 449.391 214.637 449.41 220.984 448.864C212.092 475.06 216.314 494.842 230.117 518.51C230.748 519.591 231.126 520.152 231.64 521.317L231.29 521.969L229.621 522.112C221.588 521.658 213.604 520.559 205.747 518.824C203.782 514.824 201.21 507.563 200.025 503.222C194.015 481.198 194.324 468.528 204.991 448.854Z"/><path fill="#FB7185" d="M263.491 431.026C264.391 432.312 264.283 512.145 263.874 519.543C260.961 515.833 259.163 512.268 257.034 508.092C249.961 494.602 243.102 471.382 244.878 456.258C245.548 450.55 248.265 441.222 253.056 438.027C256.738 435.572 259.739 433.964 263.491 431.026Z"/><path fill="#FEFEFE" d="M192.407 446.493C195.88 447.236 199.506 447.887 203.005 448.564C189.629 474.058 193.247 492.101 203.359 518.082L197.636 516.251C192.753 514.577 187.36 512.737 182.964 510.021C175.456 488.846 172.56 462.115 192.407 446.493ZM199.155 515.115C199.739 512.763 198.528 509.746 197.11 507.921C195.341 511.701 195.808 513.172 199.155 515.115Z"/><path fill="#FEFEFE" fill-opacity="0.48627451" d="M197.11 507.921C198.528 509.746 199.739 512.763 199.155 515.115C195.808 513.172 195.341 511.701 197.11 507.921Z"/><path fill="#FBBF24" d="M644.102 499.58C649.396 516.614 655.741 525.368 674.047 529.121C656.8 533.814 649.372 540.73 644.44 557.936L643.451 557.589C641.747 542.147 630.448 534.179 616.833 529.787C616.757 529.42 616.685 529.052 616.617 528.684C632.156 525.8 641.182 514.649 644.102 499.58Z"/><path fill="#FCCCC0" d="M134.488 380.095C134.789 380.454 140 395.738 140.892 397.948C138.261 398.011 124.499 398.409 123.412 400.033C123.516 401.763 131.188 400.392 132.85 400.312C132.622 401.643 129.077 415.155 132.971 410.484C132.488 411.064 135.096 400.149 135.117 400.055C137.253 400.02 139.389 400.004 141.525 400.009C143.958 404.719 145.787 408.777 148.563 413.396C149.825 415.207 151.192 417.038 152.48 418.865C145.82 422.583 139.571 424.445 132.002 422.943C119.911 420.513 114.588 405.909 117.943 394.994C120.313 387.286 127.788 383.572 134.488 380.095Z"/><path fill="#FB7185" d="M177.075 440.632C181.405 442.569 185.15 444.02 189.573 445.666C175.367 462.158 172.601 477.141 177.953 498.365C178.526 500.634 180.418 506.175 179.935 508.039C178.198 506.623 176.509 505.148 174.872 503.618C162.466 491.965 158.624 472.175 165.526 456.702C168.469 450.104 172.166 445.796 177.075 440.632Z"/><path fill="#FBBF24" d="M144.282 199.991C153.907 201.028 152.928 210.018 151.578 217.24L151.412 218.158C149.42 218.946 147.284 219.747 145.347 220.615C144.49 220.987 142.042 222.327 141.282 221.99C140.734 221.268 137.24 209.138 136.84 207.665C138.658 202.964 139.221 201.531 144.282 199.991Z"/><path fill="#FEFEFE" fill-opacity="0.21176471" d="M768.636 256.947C769.143 256.904 771.435 256.487 771.748 256.876C772.357 257.634 771.777 259.829 771.765 260.839C771.731 263.516 769.187 265.287 768.585 267.92C768.257 269.353 765.55 269.381 765.351 271.264C765.28 271.894 766.201 272.872 765.542 273.743C765.306 274.054 764.684 274.619 764.83 274.993C765.448 275.21 767.138 274.13 768.157 274.196C768.958 274.248 769.552 275.112 769.667 275.851C768.703 278.22 764.519 278.568 762.278 279.896C760.635 280.87 759.147 280.403 757.823 282.51C756.139 285.19 761.116 287.329 761.156 289.284C761.161 289.525 759.825 290.507 759.339 291.957C758.01 291.005 755.566 289.429 754.481 288.344C757.858 282.487 744.37 280.705 757.207 274.344C758.646 273.631 762.803 269.56 763.807 267.865C766.378 263.522 765.618 265.145 763.936 262.617C764.09 262.35 768.32 257.269 768.636 256.947Z"/><path fill="#FEFEFE" fill-opacity="0.98823529" d="M102.11 416.02C100.334 433.538 111.961 440.719 106.414 457.181L104.953 456.521C109.368 445.654 103.776 438.74 101.153 428.49C100.123 424.464 100.498 420.361 100.479 416.216L102.11 416.02Z"/><path fill="#FEFEFE" fill-opacity="0.070588239" d="M91.7335 468.633L92.0438 470.084C87.7011 473.718 85.7736 477.346 85.2871 482.997C84.2465 495.084 93.6119 498.051 100.12 506.304L99.5965 507.894C97.4809 505.046 94.5386 502.103 91.7999 499.857C82.0432 491.855 80.5861 478.972 90.2502 469.996L91.7335 468.633Z"/><path fill="#FEFEFE" d="M119.746 344.094C119.847 343.59 120.844 341.191 120.872 342.991C120.917 345.838 120.963 349.523 120.837 352.379C121.328 359.803 122.224 367.319 124.713 374.367C127.803 383.114 126.775 385.211 123.378 374.765C122.674 372.621 122.072 370.446 121.574 368.245C119.945 360.922 118.862 351.55 119.746 344.094Z"/><path fill="#ADA6AE" d="M119.746 344.094C119.847 343.59 120.844 341.191 120.872 342.991C120.917 345.838 120.963 349.523 120.837 352.379C119.487 350.339 121.407 347.08 119.746 344.094Z"/><path fill="#FEFEFE" fill-opacity="0.043137256" d="M102.411 525.98L103.756 526.572C101.901 531.993 100.523 534.144 96.4638 538.493C94.7514 540.328 82.7068 549.504 81.0448 547.306C80.9893 546.932 80.9855 547.13 81.0857 546.712C81.5687 546.272 85.5569 544.739 86.6075 544.164C94.569 539.81 99.7096 534.653 102.411 525.98Z"/><path fill="#FEFEFE" fill-opacity="0.16862746" d="M793.671 299.599C792.404 295.828 795.533 297.098 797.697 293.725C798.243 292.874 797.826 293.174 798.754 292.286L798.821 291.798L799.125 291.752L799.154 291.777L799.153 291.746C798.78 291.535 798.223 292.059 797.815 291.445C797.863 290.62 804.073 283.482 805.367 282.416C805.181 286.718 802.252 288.277 803.077 290.916C803.085 290.904 794.735 298.507 793.671 299.599Z"/><path fill="#FBBF24" d="M228.817 610.543C229.232 610.547 229.932 610.408 230.248 610.795C230.377 611.657 227.296 619.789 226.787 621.141C225.936 620.309 225.712 618.46 225.556 617.246C224.77 611.131 222.813 611.86 228.817 610.543Z"/><path fill="#F79528" d="M262.507 521.939C265.733 523.609 264.403 524.349 262.493 527.282C261.068 529.469 259.743 531.575 258.356 533.776C258.18 534.002 258.087 534.176 257.85 534.306L257.77 534.27C256.848 532.937 261.348 523.458 262.507 521.939Z"/><path fill="#F0E6D3" d="M247.375 282.121C250.742 283.125 262.923 289.552 264.71 292.616C262.748 292.338 248.336 283.65 247.375 282.121Z"/><path fill="#FEFEFE" d="M102.464 510.133C104.865 516.977 105.193 519.342 103.756 526.572L102.411 525.98C102.844 520.191 103.839 517.696 101.456 511.635L102.464 510.133Z"/><path fill="#FEFEFE" fill-opacity="0.35686275" d="M764.942 297.116L765.284 296.533C766.59 294.187 768.066 297.141 769.32 298.308C771.247 300.1 772.9 302.019 769.836 303.422C768.291 301.43 766.404 299.096 764.942 297.116Z"/><path fill="#FBBF24" d="M266.333 667.383C267.145 668.207 268.748 672.908 267.583 674.068C263.318 671.622 263.665 671.778 266.333 667.383Z"/><path fill="#FEFEFE" fill-opacity="0.98823529" d="M101.572 410.983C101.959 409.807 103.551 404.499 105.139 404.447C106.237 405.005 103.63 409.76 103.215 410.91L102.869 411.843L101.572 410.983Z"/><path fill="#F0E6D3" fill-opacity="0.29803923" d="M99.6731 462.945L101.058 463.515C99.0484 465.115 97.5624 466.197 95.3647 467.58L93.495 467.28C94.631 466.377 98.4795 463.533 99.6731 462.945Z"/><path fill="#FEFEFE" fill-opacity="0.41960785" d="M773.02 309.092C773.105 308.227 773.182 306.495 773.293 305.803C775.506 304.566 777.997 308.449 773.53 309.801L773.02 309.092Z"/><path fill="#FEFEFE" fill-opacity="0.76078433" d="M101.572 410.983L102.869 411.843C102.572 413.264 102.421 414.586 102.11 416.02L100.479 416.216C100.768 414.459 101.111 412.703 101.572 410.983Z"/><path fill="#F0E6D3" fill-opacity="0.74509805" d="M104.953 456.521L106.414 457.181C105.357 458.582 104.774 459.666 103.563 461.126L102.719 460.061C103.303 458.967 104.262 457.622 104.953 456.521Z"/><path fill="#F0E6D3" fill-opacity="0.84705883" d="M100.12 506.304C101.171 507.565 101.695 508.671 102.464 510.133L101.456 511.635C100.862 510.325 100.203 509.197 99.5965 507.894L100.12 506.304Z"/><path fill="#F0E6D3" fill-opacity="0.52549022" d="M91.7335 468.633C92.4126 467.862 92.5855 467.766 93.495 467.28L95.3647 467.58C93.999 468.753 93.5539 469.158 92.0438 470.084L91.7335 468.633Z"/><path fill="#FEFEFE" fill-opacity="0.11764706" d="M102.719 460.061L103.563 461.126C102.691 461.909 101.903 462.709 101.058 463.515L99.6731 462.945C100.767 461.955 101.683 461.11 102.719 460.061Z"/><path fill="#895921" d="M616.833 529.787C616.392 529.733 613.707 529.555 613.472 529.212C614.223 528.525 615.639 528.642 616.617 528.684C616.685 529.052 616.757 529.42 616.833 529.787Z"/><path fill="#895921" d="M643.451 557.589L644.44 557.936C644.41 558.269 644.446 559.334 644.168 559.636L644.063 559.61C643.61 558.938 643.595 558.398 643.451 557.589Z"/><path fill="#12100F" fill-opacity="0.94117647" d="M938.586 208.689C939.358 209.284 938.963 209.908 938.77 210.854C938.332 210.169 938.521 209.536 938.586 208.689Z"/><path fill="#12100F" fill-opacity="0.98431373" d="M938.514 519.414L940.301 520.434C940.532 551.797 940.487 583.162 940.167 614.525C940.08 628.892 941.001 655.921 938.162 668.308C934.949 682.096 927.999 694.733 918.077 704.833C901.798 721.448 881.21 728.745 858.33 728.463C836.105 728.188 813.572 728.749 791.348 728.365C788.908 727.398 765.452 728.625 758.331 727.027C782.601 726.161 808.401 727.269 832.763 726.849C847.306 726.598 865.895 728.064 879.724 724.675C893.631 721.362 906.323 714.196 916.343 704C926.252 694.145 933.22 681.725 936.467 668.132C939.697 654.515 938.543 624.342 938.529 608.85L938.514 519.414Z"/><path fill="#12100F" fill-opacity="0.91764706" d="M688.986 754.385C686.564 753.993 687.505 733.047 688.013 731.821C688.269 731.631 688.674 731.615 688.982 731.561C689.119 739.168 689.121 746.778 688.986 754.385Z"/><path fill="#12100F" fill-opacity="0.97254902" d="M63.4149 301.905C64.1675 307.195 64.1568 307.936 63.4148 313.03C62.7835 309.667 62.7416 305.257 63.4149 301.905Z"/></svg>